<?xml version="1.0" encoding="utf-8"?>
<!-- Generator: Adobe Illustrator 23.0.6, SVG Export Plug-In . SVG Version: 6.00 Build 0)  -->
<svg version="1.1" id="numbers" xmlns="http://www.w3.org/2000/svg" xmlns:xlink="http://www.w3.org/1999/xlink" x="0px" y="0px"
	 viewBox="0 0 74 74" style="enable-background:new 0 0 74 74;" xml:space="preserve">
<style type="text/css">
	.st0{filter:url(#filter-3);}
	.st1{fill-rule:evenodd;clip-rule:evenodd;}
	.st2{fill-rule:evenodd;clip-rule:evenodd;fill:#F5F7F9;stroke:url(#circle_1_);stroke-width:6;}
	.st3{enable-background:new    ;}
	.st4{fill:#5E81D3;}
</style>
<filter  filterUnits="objectBoundingBox" height="135.0%" id="filter-3" width="135.0%" x="-17.5%" y="-12.5%">
	<feMorphology  in="SourceAlpha" operator="dilate" radius="3" result="shadowSpreadOuter1"></feMorphology>
	<feOffset  dx="0" dy="3" in="shadowSpreadOuter1" result="shadowOffsetOuter1"></feOffset>
	<feGaussianBlur  in="shadowOffsetOuter1" result="shadowBlurOuter1" stdDeviation="2"></feGaussianBlur>
	<feComposite  in="shadowBlurOuter1" in2="SourceAlpha" operator="out" result="shadowBlurOuter1"></feComposite>
	<feColorMatrix  in="shadowBlurOuter1" type="matrix" values="0 0 0 0 0   0 0 0 0 0   0 0 0 0 0  0 0 0 0.203070367 0">
		</feColorMatrix>
</filter>
<title>2 copy</title>
<desc>Created with Sketch.</desc>
<g id="Page-1">
	<g id="biotope-prototype-copy-4" transform="translate(-919.000000, -3841.000000)">
		<g transform="translate(0.000000, 3215.000000)">
			<g transform="translate(926.000000, 592.000000)">
				<g id="shadow" class="st0">
					<circle id="path-2_1_" class="st1" cx="30" cy="68" r="30"/>
				</g>
				
					<linearGradient id="circle_1_" gradientUnits="userSpaceOnUse" x1="-214.9667" y1="318.4667" x2="-214.9667" y2="317.4667" gradientTransform="matrix(60 0 0 -60 12928 19146)">
					<stop  offset="0" style="stop-color:#FFDD88"/>
					<stop  offset="1" style="stop-color:#FF775B"/>
				</linearGradient>
				<circle id="circle" class="st2" cx="30" cy="68" r="30"/>
				<g id="number" class="st3">
					<path class="st4" d="M35.8,60.7c0-2.8-1.5-4.3-4.4-4.3c-1.5,0-2.6,0.1-3.2,0.4c-0.6,0.3-1,0.6-1.3,1c-0.5,0.9-0.8,2.2-0.8,4
						h-3.8c0-2.4,0.4-4.2,1.2-5.5c0.8-1.3,1.9-2.1,3.2-2.5c1.3-0.4,2.8-0.7,4.6-0.7c2.5,0,4.5,0.6,6,1.8c1.5,1.2,2.2,3.1,2.2,5.5
						c0,1.9-0.4,3.4-1.1,4.4c-0.7,1-1.9,1.7-3.5,1.9c1.7,0.4,3,1.1,3.8,2.2c0.8,1.1,1.3,2.9,1.3,5.4s-0.8,4.4-2.3,5.8
						c-1.5,1.4-3.7,2.1-6.5,2.1c-2.1,0-3.8-0.3-5-0.8C25,81,24,80,23.4,78.8c-0.7-1.3-1.1-3-1.3-5.3h3.8c0.2,2.3,0.7,3.9,1.5,4.6
						c0.5,0.4,1,0.7,1.7,0.8c0.6,0.1,1.5,0.2,2.5,0.2c1.7,0,2.9-0.4,3.6-1.3c0.8-0.8,1.2-2.3,1.2-4.2s-0.4-3.3-1.1-3.9
						s-1.6-1-2.7-1.1c-1-0.1-2.1-0.2-3.1-0.2v-2.9c2.1,0,3.5-0.2,4.2-0.5c0.7-0.3,1.3-0.8,1.6-1.2C35.6,63.3,35.8,62.2,35.8,60.7z"
						/>
				</g>
			</g>
		</g>
	</g>
</g>
</svg>
