<?xml version="1.0" encoding="utf-8"?>
<!-- Generator: Adobe Illustrator 23.0.6, SVG Export Plug-In . SVG Version: 6.00 Build 0)  -->
<svg version="1.1" id="Ebene_1" xmlns="http://www.w3.org/2000/svg" xmlns:xlink="http://www.w3.org/1999/xlink" x="0px" y="0px"
	 viewBox="0 0 384.1 503.7" style="enable-background:new 0 0 384.1 503.7;" xml:space="preserve">
<style type="text/css">
	.st0{fill:url(#SVGID_1_);}
	.st1{fill:none;}
	.st2{fill:url(#SVGID_2_);}
	.st3{fill:url(#SVGID_3_);}
	.st4{fill:url(#SVGID_4_);}
	.st5{opacity:0.1;fill:#020203;}
</style>
<linearGradient id="SVGID_1_" gradientUnits="userSpaceOnUse" x1="192.063" y1="491.0391" x2="192.063" y2="123.0321">
	<stop  offset="1.239782e-02" style="stop-color:#EF775E"/>
	<stop  offset="0.3394" style="stop-color:#F59F6E"/>
	<stop  offset="0.786" style="stop-color:#FDCD82"/>
	<stop  offset="1" style="stop-color:#FFDD89"/>
</linearGradient>
<path class="st0" d="M192.1,114.6c-14.4,0-28.4,1.6-41.9,4.6c-29.9,6.7-57.1,20.3-80,39.1C27.3,193.6,0,247,0,306.7
	c0,59.7,27.3,113,70.1,148.3V312.6c-0.1-2-0.1-3.9-0.1-5.9s0.1-3.9,0.1-5.9c2.4-50,35-92.3,80-108.8c13.1-4.8,27.2-7.4,41.9-7.4
	c67.3,0,122.1,54.8,122.1,122.1s-54.8,122.1-122.1,122.1c-14.7,0-28.8-2.6-41.9-7.4v42.4c0,10.7-4.2,20.4-11,27.6
	c16.8,4.8,34.6,7.4,53,7.4c105.9,0,192.1-86.2,192.1-192.1C384.1,200.8,298,114.6,192.1,114.6z"/>
<g>
	<g>
		<path class="st1" d="M70,306.7c0,2,0.1,3.9,0.1,5.9v-11.8C70.1,302.7,70,304.7,70,306.7z"/>
		<linearGradient id="SVGID_2_" gradientUnits="userSpaceOnUse" x1="0" y1="401.939" x2="384.126" y2="401.939">
			<stop  offset="0" style="stop-color:#EC6895"/>
			<stop  offset="0.147" style="stop-color:#DE6998"/>
			<stop  offset="0.4563" style="stop-color:#B669A0"/>
			<stop  offset="0.8991" style="stop-color:#6564A9"/>
			<stop  offset="0.9979" style="stop-color:#4C62AB"/>
		</linearGradient>
		<path class="st2" d="M150.1,421.3c-45-16.5-77.6-58.7-80-108.8V455c20,16.5,43.4,29,69,36.3c6.8-7.2,11-16.9,11-27.6V421.3z"/>
		<g>
			<linearGradient id="SVGID_3_" gradientUnits="userSpaceOnUse" x1="110.1445" y1="527.0155" x2="110.1445" y2="-4.547474e-13">
				<stop  offset="1.071236e-02" style="stop-color:#9BD2CD"/>
				<stop  offset="0.3244" style="stop-color:#84B4CB"/>
				<stop  offset="0.7812" style="stop-color:#688BC2"/>
				<stop  offset="1" style="stop-color:#5E7ABC"/>
			</linearGradient>
			<path class="st3" d="M150.1,40c0-22.1-17.9-40-40-40s-40,17.9-40,40v118.4c22.9-18.8,50.1-32.5,80-39.1V40z"/>
			<linearGradient id="SVGID_4_" gradientUnits="userSpaceOnUse" x1="110.1445" y1="492.3724" x2="110.1445" y2="23.6086">
				<stop  offset="1.071236e-02" style="stop-color:#9BD2CD"/>
				<stop  offset="0.3244" style="stop-color:#84B4CB"/>
				<stop  offset="0.7812" style="stop-color:#688BC2"/>
				<stop  offset="1" style="stop-color:#5E7ABC"/>
			</linearGradient>
			<path class="st4" d="M70.1,300.8v11.8V455v8.8c0,22.1,17.9,40,40,40c11.4,0,21.7-4.8,29-12.4c6.8-7.2,11-16.9,11-27.6v-42.4V192
				C105.2,208.5,72.5,250.8,70.1,300.8z"/>
		</g>
	</g>
	<path class="st5" d="M150.1,205.3V192c-45,16.5-77.6,58.7-80,108.8v11.8v1.5C72.5,264.1,105.2,221.8,150.1,205.3z"/>
	<path class="st5" d="M159.1,425.6v-1.4c-3-0.9-6-1.8-9-2.9v42.4c0,10.7-4.2,20.4-11,27.6c3.4,1,6.9,1.9,10.5,2.7
		c6-7,9.6-16,9.6-25.9V425.6z"/>
</g>
</svg>
