<?xml version="1.0" encoding="utf-8"?>
<!-- Generator: Adobe Illustrator 23.0.6, SVG Export Plug-In . SVG Version: 6.00 Build 0)  -->
<svg version="1.1" id="Ebene_1" xmlns="http://www.w3.org/2000/svg" xmlns:xlink="http://www.w3.org/1999/xlink" x="0px" y="0px"
	 viewBox="0 0 90 91" style="enable-background:new 0 0 90 91;" xml:space="preserve">
<style type="text/css">
	.st0{fill:none;stroke:#0B0A2E;stroke-width:2;stroke-linecap:round;}
</style>
<title>Group 6</title>
<desc>Created with Sketch.</desc>
<g id="Page-1">
	<g id="biotope-prototype-copy-3" transform="translate(-251.000000, -6573.000000)">
		<g transform="translate(0.000000, 3329.000000)">
			<g transform="translate(252.000000, 2826.000000)">
				<g id="code" transform="translate(0.000000, 119.000000)">
					<g id="github-copy-3" transform="translate(0.000000, 300.000000)">
						<g id="Group-6">
							<g id="github" transform="translate(0.000000, 0.770492)">
								<g id="code-icon" transform="translate(27.000000, 22.229508)">
									<g>
										<g id="Group" transform="translate(4.594595, 13.323944)">
											<path id="Path" class="st0" d="M6.4,17.3l-6.1-6c-0.4-0.4-0.4-1.1,0-1.5l6.1-6"/>
											<path class="st0" d="M18.4,17.3l6.1-6c0.4-0.4,0.4-1.1,0-1.5l-6.1-6"/>
											<path class="st0" d="M14.7,0l-4.5,21.1"/>
										</g>
										<path class="st0" d="M34,9.1v31.6c0,1.3-1,2.3-2.3,2.3H2.3C1,43,0,42,0,40.7V2.3C0,1,1,0,2.3,0h22.5L34,9.1z"/>
										<path class="st0" d="M34,9.1h-6.9c-1.3,0-2.3-1-2.3-2.3V0"/>
									</g>
								</g>
							</g>
						</g>
					</g>
				</g>
			</g>
		</g>
	</g>
</g>
</svg>
