<?xml version="1.0" encoding="utf-8"?>
<!-- Generator: Adobe Illustrator 23.0.6, SVG Export Plug-In . SVG Version: 6.00 Build 0)  -->
<svg version="1.1" id="Ebene_1" xmlns="http://www.w3.org/2000/svg" xmlns:xlink="http://www.w3.org/1999/xlink" x="0px" y="0px"
	 viewBox="0 0 1920 1281.7" style="enable-background:new 0 0 1920 1281.7;" xml:space="preserve">
<style type="text/css">
	.st0{opacity:0.2;fill:url(#SVGID_1_);}
	.st1{fill:url(#SVGID_2_);}
	.st2{fill:#FFFFFF;}
	.st3{fill:none;stroke:url(#SVGID_3_);stroke-width:30;stroke-linecap:round;stroke-linejoin:round;stroke-miterlimit:10;}
	.st4{fill:none;stroke:url(#SVGID_4_);stroke-width:30;stroke-linecap:round;stroke-linejoin:round;stroke-miterlimit:10;}
	.st5{opacity:0.3;}
	.st6{fill:url(#SVGID_5_);}
	.st7{opacity:0.5;}
	.st8{fill:url(#SVGID_6_);}
	.st9{opacity:0.7;}
	.st10{fill:url(#SVGID_7_);}
	.st11{opacity:0.15;}
	.st12{fill:none;stroke:url(#SVGID_8_);stroke-width:20;stroke-linecap:round;stroke-miterlimit:10;}
	.st13{fill:none;stroke:url(#SVGID_9_);stroke-width:20;stroke-linecap:round;stroke-miterlimit:10;}
	.st14{fill:none;stroke:url(#SVGID_10_);stroke-width:20;stroke-linecap:round;stroke-miterlimit:10;}
	.st15{fill:none;stroke:url(#SVGID_11_);stroke-width:20;stroke-linecap:round;stroke-miterlimit:10;}
	.st16{fill:none;stroke:url(#SVGID_12_);stroke-width:20;stroke-linecap:round;stroke-miterlimit:10;}
	.st17{fill:none;stroke:url(#SVGID_13_);stroke-width:20;stroke-linecap:round;stroke-miterlimit:10;}
	.st18{fill:none;stroke:url(#SVGID_14_);stroke-width:20;stroke-linecap:round;stroke-miterlimit:10;}
	.st19{fill:none;stroke:url(#SVGID_15_);stroke-width:20;stroke-linecap:round;stroke-miterlimit:10;}
	.st20{fill:url(#SVGID_16_);}
	.st21{opacity:0.2;fill:none;stroke:url(#SVGID_17_);stroke-width:10;stroke-linecap:round;stroke-miterlimit:10;}
	.st22{fill:url(#SVGID_18_);}
	.st23{opacity:0.4;}
	.st24{fill:url(#SVGID_19_);}
	.st25{opacity:0.1;fill:none;stroke:url(#SVGID_20_);stroke-width:30;stroke-linecap:round;stroke-miterlimit:10;}
	.st26{fill:none;stroke:url(#SVGID_21_);stroke-width:20;stroke-miterlimit:10;}
	.st27{fill:url(#SVGID_22_);}
	.st28{fill:url(#SVGID_23_);}
	.st29{fill:url(#SVGID_24_);}
	.st30{opacity:0.2;}
	.st31{fill:url(#SVGID_25_);}
	.st32{fill:url(#SVGID_26_);}
	.st33{fill:url(#SVGID_27_);}
	.st34{fill:url(#SVGID_28_);}
	.st35{fill:url(#SVGID_29_);}
	.st36{fill:url(#SVGID_30_);}
	.st37{fill:url(#SVGID_31_);}
	.st38{fill:url(#SVGID_32_);}
	.st39{fill:url(#SVGID_33_);}
	.st40{fill:url(#SVGID_34_);}
	.st41{fill:url(#SVGID_35_);}
	.st42{fill:url(#SVGID_36_);}
	.st43{fill:url(#SVGID_37_);}
	.st44{opacity:0.1;}
	.st45{fill:url(#SVGID_38_);}
	.st46{fill:url(#SVGID_39_);}
	.st47{fill:url(#SVGID_40_);}
	.st48{fill:url(#SVGID_41_);}
	.st49{fill:url(#SVGID_42_);}
	.st50{fill:url(#SVGID_43_);}
	.st51{fill:none;}
	.st52{fill:url(#SVGID_44_);}
	.st53{fill:url(#SVGID_45_);}
	.st54{fill:url(#SVGID_46_);}
	.st55{fill:url(#SVGID_47_);}
	.st56{fill:url(#SVGID_48_);}
	.st57{opacity:0.1;fill:#020203;}
	.st58{opacity:0.8;}
	.st59{fill:none;stroke:url(#SVGID_49_);stroke-width:20;stroke-linecap:round;stroke-miterlimit:10;}
	.st60{fill:none;stroke:url(#SVGID_50_);stroke-width:20;stroke-linecap:round;stroke-miterlimit:10;}
	.st61{fill:none;stroke:url(#SVGID_51_);stroke-width:20;stroke-linecap:round;stroke-miterlimit:10;}
	.st62{fill:none;stroke:url(#SVGID_52_);stroke-width:20;stroke-linecap:round;stroke-miterlimit:10;}
	.st63{fill:none;stroke:url(#SVGID_53_);stroke-width:20;stroke-linecap:round;stroke-miterlimit:10;}
	.st64{fill:none;stroke:url(#SVGID_54_);stroke-width:20;stroke-linecap:round;stroke-miterlimit:10;}
	.st65{fill:none;stroke:url(#SVGID_55_);stroke-width:20;stroke-linecap:round;stroke-miterlimit:10;}
	.st66{fill:none;stroke:url(#SVGID_56_);stroke-width:20;stroke-linecap:round;stroke-miterlimit:10;}
	.st67{opacity:0.3;fill:none;stroke:url(#SVGID_57_);stroke-width:30;stroke-linecap:round;stroke-miterlimit:10;}
	.st68{opacity:0.25;fill:none;stroke:url(#SVGID_58_);stroke-width:20;stroke-linecap:round;stroke-miterlimit:10;}
	.st69{fill:url(#SVGID_59_);}
	.st70{fill:none;stroke:url(#SVGID_60_);stroke-width:82;stroke-linecap:round;stroke-linejoin:round;stroke-miterlimit:10;}
	.st71{fill:url(#SVGID_61_);}
	.st72{fill:url(#SVGID_62_);}
	.st73{fill:url(#SVGID_63_);}
	.st74{fill:url(#SVGID_64_);}
	.st75{fill:url(#SVGID_65_);}
	.st76{fill:url(#SVGID_66_);}
	.st77{fill:url(#SVGID_67_);}
	.st78{fill:url(#SVGID_68_);}
	.st79{fill:url(#SVGID_69_);}
	.st80{fill:url(#SVGID_70_);}
	.st81{fill:url(#SVGID_71_);}
	.st82{fill:url(#SVGID_72_);}
	.st83{fill:url(#SVGID_73_);}
	.st84{fill:url(#SVGID_74_);}
	.st85{fill:url(#SVGID_75_);}
	.st86{opacity:0.2;fill:none;stroke:url(#SVGID_76_);stroke-width:10;stroke-linecap:round;stroke-miterlimit:10;}
	.st87{fill:none;stroke:url(#SVGID_77_);stroke-width:20;stroke-linecap:round;stroke-linejoin:round;stroke-miterlimit:10;}
	.st88{fill:none;stroke:url(#SVGID_78_);stroke-width:20;stroke-linecap:round;stroke-linejoin:round;stroke-miterlimit:10;}
	
		.st89{fill:none;stroke:url(#SVGID_79_);stroke-width:20;stroke-linecap:round;stroke-linejoin:round;stroke-miterlimit:10;stroke-dasharray:0,70;}
	.st90{fill:none;stroke:url(#SVGID_80_);stroke-width:20;stroke-linecap:round;stroke-linejoin:round;}
	.st91{fill:none;stroke:url(#SVGID_81_);stroke-width:20;stroke-linecap:round;stroke-linejoin:round;stroke-dasharray:0,70.5201;}
	.st92{fill:none;stroke:url(#SVGID_82_);stroke-width:20;stroke-linecap:round;stroke-linejoin:round;}
	.st93{fill:none;stroke:url(#SVGID_83_);stroke-width:20;stroke-linecap:round;stroke-linejoin:round;stroke-miterlimit:10;}
	.st94{fill:none;stroke:url(#SVGID_84_);stroke-width:20;stroke-linecap:round;stroke-linejoin:round;stroke-miterlimit:10;}
	.st95{fill:url(#SVGID_85_);}
	.st96{fill:none;stroke:url(#SVGID_86_);stroke-width:20;stroke-linecap:round;stroke-linejoin:round;stroke-miterlimit:10;}
	.st97{fill:url(#SVGID_87_);}
	.st98{fill:url(#SVGID_88_);}
	.st99{fill:url(#SVGID_89_);}
	.st100{fill:url(#SVGID_90_);}
	.st101{fill:url(#SVGID_91_);}
	.st102{fill:url(#SVGID_92_);}
	.st103{fill:none;stroke:url(#SVGID_93_);stroke-width:20;stroke-linecap:round;stroke-linejoin:round;stroke-miterlimit:10;}
	.st104{fill:none;stroke:url(#SVGID_94_);stroke-width:20;stroke-linecap:round;stroke-linejoin:round;stroke-miterlimit:10;}
	.st105{fill:url(#SVGID_95_);}
	.st106{fill:url(#SVGID_96_);}
	.st107{fill:none;stroke:url(#SVGID_97_);stroke-width:80;stroke-linecap:round;stroke-linejoin:round;stroke-miterlimit:10;}
	.st108{opacity:0.4;fill:none;stroke:url(#SVGID_98_);stroke-width:50;stroke-linecap:round;stroke-miterlimit:10;}
	.st109{opacity:0.4;fill:none;stroke:url(#SVGID_99_);stroke-width:50;stroke-linecap:round;stroke-miterlimit:10;}
	.st110{fill:url(#SVGID_100_);}
	.st111{opacity:0.2;fill:url(#SVGID_101_);}
	.st112{fill:url(#SVGID_102_);}
	.st113{fill:url(#SVGID_103_);}
	.st114{fill:url(#SVGID_104_);}
	.st115{fill:url(#SVGID_105_);}
	.st116{fill:url(#SVGID_106_);}
	.st117{fill:url(#SVGID_107_);}
	.st118{fill:url(#SVGID_108_);}
	.st119{fill:url(#SVGID_109_);}
	.st120{fill:url(#SVGID_110_);}
	.st121{fill:url(#SVGID_111_);}
	.st122{fill:url(#SVGID_112_);}
	.st123{fill:url(#SVGID_113_);}
	.st124{fill:url(#SVGID_114_);}
	.st125{fill:url(#SVGID_115_);}
	.st126{fill:url(#SVGID_116_);}
	.st127{fill:url(#SVGID_117_);}
	.st128{fill:none;stroke:url(#SVGID_118_);stroke-width:16;stroke-linecap:round;stroke-linejoin:round;stroke-miterlimit:10;}
	.st129{fill:url(#SVGID_119_);}
	.st130{fill:url(#SVGID_120_);}
	.st131{fill:none;stroke:url(#SVGID_121_);stroke-width:24;stroke-linecap:round;stroke-linejoin:round;stroke-miterlimit:10;}
	
		.st132{fill:none;stroke:url(#SVGID_122_);stroke-width:24;stroke-linecap:round;stroke-linejoin:round;stroke-miterlimit:10;stroke-dasharray:0,58;}
	.st133{fill:none;stroke:#6B95C5;stroke-width:24;stroke-linecap:round;stroke-linejoin:round;stroke-miterlimit:10;}
	.st134{opacity:0.3;fill:url(#SVGID_123_);}
	.st135{opacity:0.3;fill:url(#SVGID_124_);}
	.st136{opacity:0.3;fill:url(#SVGID_125_);}
	.st137{opacity:0.3;fill:url(#SVGID_126_);}
	.st138{opacity:0.2;fill:url(#SVGID_127_);}
	.st139{fill:url(#SVGID_128_);}
	.st140{fill:url(#SVGID_129_);}
	.st141{fill:url(#SVGID_130_);}
	.st142{fill:url(#SVGID_131_);}
	.st143{fill:url(#SVGID_132_);}
	.st144{fill:url(#SVGID_133_);}
	.st145{fill:url(#SVGID_134_);}
	.st146{fill:url(#SVGID_135_);}
	.st147{fill:url(#SVGID_136_);}
	.st148{fill:url(#SVGID_137_);}
	.st149{fill:url(#SVGID_138_);}
	.st150{fill:url(#SVGID_139_);}
	.st151{fill:url(#SVGID_140_);}
	.st152{fill:url(#SVGID_141_);}
	.st153{fill:url(#SVGID_142_);}
	.st154{fill:url(#SVGID_143_);}
	.st155{fill:url(#SVGID_144_);}
	.st156{fill:url(#SVGID_145_);}
	.st157{fill:url(#SVGID_146_);}
	.st158{fill:url(#SVGID_147_);}
	.st159{fill:url(#SVGID_148_);}
	.st160{fill:url(#SVGID_149_);}
	.st161{fill:url(#SVGID_150_);}
	.st162{fill:url(#SVGID_151_);}
	.st163{fill:url(#SVGID_152_);}
	.st164{fill:url(#SVGID_153_);}
	
		.st165{opacity:0.4;fill:none;stroke:url(#SVGID_154_);stroke-width:20;stroke-linecap:round;stroke-linejoin:round;stroke-miterlimit:10;}
	
		.st166{opacity:0.4;fill:none;stroke:url(#SVGID_155_);stroke-width:20;stroke-linecap:round;stroke-linejoin:round;stroke-miterlimit:10;}
	.st167{fill:url(#SVGID_156_);}
	.st168{fill:none;stroke:url(#SVGID_157_);stroke-width:40;stroke-miterlimit:10;}
	.st169{fill:url(#SVGID_158_);}
	.st170{fill:url(#SVGID_159_);}
	
		.st171{opacity:0.2;fill:none;stroke:url(#SVGID_160_);stroke-width:24;stroke-linecap:round;stroke-linejoin:round;stroke-miterlimit:10;}
	
		.st172{opacity:0.4;fill:none;stroke:url(#SVGID_161_);stroke-width:24;stroke-linecap:round;stroke-linejoin:round;stroke-miterlimit:10;}
	
		.st173{opacity:0.2;fill:none;stroke:url(#SVGID_162_);stroke-width:22;stroke-linecap:round;stroke-linejoin:round;stroke-miterlimit:10;stroke-dasharray:0,44;}
	.st174{fill:none;stroke:url(#SVGID_163_);stroke-width:22;stroke-linecap:round;stroke-linejoin:round;}
	.st175{fill:none;stroke:url(#SVGID_164_);stroke-width:22;stroke-linecap:round;stroke-linejoin:round;stroke-dasharray:0,41.452;}
	.st176{fill:none;stroke:url(#SVGID_165_);stroke-width:22;stroke-linecap:round;stroke-linejoin:round;}
	
		.st177{opacity:0.4;fill:none;stroke:url(#SVGID_166_);stroke-width:24;stroke-linecap:round;stroke-linejoin:round;stroke-miterlimit:10;}
	
		.st178{opacity:0.2;fill:none;stroke:url(#SVGID_167_);stroke-width:24;stroke-linecap:round;stroke-linejoin:round;stroke-miterlimit:10;}
	.st179{fill:url(#SVGID_168_);}
	.st180{fill:none;stroke:url(#SVGID_169_);stroke-width:16;stroke-linecap:round;stroke-linejoin:round;stroke-miterlimit:10;}
	.st181{fill:none;stroke:url(#SVGID_170_);stroke-width:16;stroke-linecap:round;stroke-linejoin:round;stroke-miterlimit:10;}
	.st182{fill:url(#SVGID_171_);}
	.st183{fill:url(#SVGID_172_);}
	.st184{opacity:0.3;fill:none;stroke:url(#SVGID_173_);stroke-width:14;stroke-linecap:round;stroke-miterlimit:10;}
	
		.st185{opacity:0.7;fill:none;stroke:url(#SVGID_174_);stroke-width:14;stroke-linecap:round;stroke-miterlimit:10;stroke-dasharray:0,30;}
	.st186{opacity:0.7;fill:none;stroke:url(#SVGID_175_);stroke-width:14;stroke-linecap:round;stroke-miterlimit:10;}
	.st187{opacity:0.2;fill:none;stroke:url(#SVGID_176_);stroke-width:14;stroke-linecap:round;stroke-miterlimit:10;}
	.st188{fill:url(#SVGID_177_);}
	.st189{fill:none;stroke:url(#SVGID_178_);stroke-width:20;stroke-miterlimit:10;}
	.st190{opacity:0.4;fill:url(#SVGID_179_);}
	.st191{opacity:0.6;}
	.st192{fill:url(#SVGID_180_);}
	.st193{fill:url(#SVGID_181_);}
	.st194{fill:url(#SVGID_182_);}
	.st195{fill:url(#SVGID_183_);}
	.st196{fill:url(#SVGID_184_);}
	.st197{fill:url(#SVGID_185_);}
	.st198{fill:url(#SVGID_186_);}
	.st199{fill:none;stroke:url(#SVGID_187_);stroke-width:20;stroke-linecap:round;stroke-miterlimit:10;}
	.st200{fill:none;stroke:url(#SVGID_188_);stroke-width:20;stroke-linecap:round;stroke-miterlimit:10;}
	.st201{fill:none;stroke:url(#SVGID_189_);stroke-width:20;stroke-linecap:round;stroke-miterlimit:10;}
	.st202{fill:none;stroke:url(#SVGID_190_);stroke-width:20;stroke-linecap:round;stroke-miterlimit:10;}
	.st203{fill:none;stroke:url(#SVGID_191_);stroke-width:20;stroke-linecap:round;stroke-miterlimit:10;}
	.st204{fill:none;stroke:url(#SVGID_192_);stroke-width:20;stroke-linecap:round;stroke-miterlimit:10;}
	.st205{opacity:0.3;fill:none;stroke:url(#SVGID_193_);stroke-width:20;stroke-linecap:round;stroke-miterlimit:10;}
	.st206{opacity:0.4;fill:none;stroke:url(#SVGID_194_);stroke-width:14;stroke-linecap:round;stroke-miterlimit:10;}
	
		.st207{opacity:0.4;fill:none;stroke:url(#SVGID_195_);stroke-width:24;stroke-linecap:round;stroke-linejoin:round;stroke-miterlimit:10;}
	.st208{fill:url(#SVGID_196_);}
	.st209{fill:url(#SVGID_197_);}
	.st210{fill:url(#SVGID_198_);}
	.st211{fill:url(#SVGID_199_);}
	.st212{fill:url(#SVGID_200_);}
	.st213{fill:url(#SVGID_201_);}
	.st214{fill:url(#SVGID_202_);}
	.st215{fill:url(#SVGID_203_);}
	.st216{fill:url(#SVGID_204_);}
	.st217{fill:url(#SVGID_205_);}
	.st218{fill:url(#SVGID_206_);}
	.st219{fill:url(#SVGID_207_);}
	.st220{fill:url(#SVGID_208_);}
	.st221{fill:url(#SVGID_209_);}
	.st222{fill:url(#SVGID_210_);}
	.st223{fill:url(#SVGID_211_);}
	.st224{fill:url(#SVGID_212_);}
	.st225{fill:url(#SVGID_213_);}
	.st226{fill:url(#SVGID_214_);}
	.st227{fill:url(#SVGID_215_);}
	.st228{fill:url(#SVGID_216_);}
	.st229{fill:url(#SVGID_217_);}
	.st230{fill:none;stroke:url(#SVGID_218_);stroke-width:16;stroke-linecap:round;stroke-linejoin:round;stroke-miterlimit:10;}
	.st231{fill:url(#SVGID_219_);}
	.st232{fill:url(#SVGID_220_);}
	.st233{fill:url(#SVGID_221_);}
	.st234{fill:url(#SVGID_222_);}
	.st235{fill:url(#SVGID_223_);}
	.st236{fill:url(#SVGID_224_);}
	.st237{fill:url(#SVGID_225_);}
	.st238{fill:url(#SVGID_226_);}
	.st239{opacity:0.4;fill:url(#SVGID_227_);}
	.st240{fill:url(#SVGID_228_);}
	.st241{fill:url(#SVGID_229_);}
	.st242{fill:url(#SVGID_230_);}
	.st243{fill:url(#SVGID_231_);}
	.st244{fill:url(#SVGID_232_);}
	.st245{fill:url(#SVGID_233_);}
	.st246{fill:url(#SVGID_234_);}
	.st247{fill:url(#SVGID_235_);}
	.st248{fill:url(#SVGID_236_);}
	.st249{fill:url(#SVGID_237_);}
	.st250{fill:url(#SVGID_238_);}
	.st251{fill:url(#SVGID_239_);}
	.st252{fill:url(#SVGID_240_);}
</style>
<linearGradient id="SVGID_1_" gradientUnits="userSpaceOnUse" x1="847.83" y1="4073.3679" x2="2004.9025" y2="4073.3679" gradientTransform="matrix(0 1 -1 0 5051.0186 -784.2828)">
	<stop  offset="1.071236e-02" style="stop-color:#BDE0DD"/>
	<stop  offset="0.6303" style="stop-color:#A7BFDA"/>
	<stop  offset="1" style="stop-color:#9EAFD7"/>
</linearGradient>
<circle class="st0" cx="977.7" cy="642.1" r="578.5"/>
<linearGradient id="SVGID_2_" gradientUnits="userSpaceOnUse" x1="735.0437" y1="459.6471" x2="706.4443" y2="337.7214">
	<stop  offset="1.071236e-02" style="stop-color:#9BD2CD"/>
	<stop  offset="0.3244" style="stop-color:#84B4CB"/>
	<stop  offset="0.7812" style="stop-color:#688BC2"/>
	<stop  offset="1" style="stop-color:#5E7ABC"/>
</linearGradient>
<path class="st1" d="M720.8,336c13.8,0,27.5,4.7,38.6,13.4c11.3,8.9,19,20.9,22.3,35c3.8,16.3,1.1,33.1-7.7,47.3s-22.6,24.1-38.9,28
	c-4.7,1.1-9.6,1.7-14.4,1.7c-13.9,0-27.5-4.7-38.6-13.4c-11.3-8.9-19-20.9-22.3-35c-7.9-33.6,13-67.4,46.7-75.3
	C711.2,336.6,716,336,720.8,336 M720.8,296c-7.8,0-15.6,0.9-23.5,2.7c-55.2,12.9-89.4,68.2-76.5,123.3
	c11.1,47.3,53.3,79.2,99.8,79.2c7.8,0,15.6-0.9,23.5-2.7c55.2-12.9,89.4-68.2,76.5-123.3C809.6,328,767.4,296,720.8,296L720.8,296z"
	/>
<g class="st7">
	
		<linearGradient id="SVGID_3_" gradientUnits="userSpaceOnUse" x1="1018.0324" y1="260.6256" x2="1244.5571" y2="260.6256" gradientTransform="matrix(0.6096 0.7927 -0.7927 0.6096 632.4551 -754.1482)">
		<stop  offset="1.071236e-02" style="stop-color:#9BD2CD"/>
		<stop  offset="0.3244" style="stop-color:#84B4CB"/>
		<stop  offset="0.7812" style="stop-color:#688BC2"/>
		<stop  offset="1" style="stop-color:#5E7ABC"/>
	</linearGradient>
	<path style="fill:url(#SVGID_3_);" d="M1129.6,431.5c-2.3,0-4.5-1-6-2.9c-2.5-3.3-1.9-8,1.4-10.5c25.3-19.4,41.4-47.5,45.6-79.1
		c4.1-31.6-4.3-62.9-23.7-88.2c-18-23.4-43.8-39.2-72.7-44.6c-4.1-0.8-6.8-4.7-6-8.8c0.8-4.1,4.7-6.8,8.8-6
		c32.6,6.1,61.7,23.9,81.9,50.2c21.9,28.4,31.4,63.7,26.7,99.3c-4.6,35.6-22.9,67.2-51.3,89.1C1132.9,431,1131.2,431.5,1129.6,431.5
		z"/>
</g>
<g class="st9">
	<linearGradient id="SVGID_4_" gradientUnits="userSpaceOnUse" x1="918.3783" y1="256.9249" x2="933.4211" y2="256.9249">
		<stop  offset="1.071236e-02" style="stop-color:#272A5B"/>
		<stop  offset="1" style="stop-color:#005B8E"/>
	</linearGradient>
	<path style="fill:url(#SVGID_4_);" d="M925.3,321.5c-4.1-0.3-7.3-3.9-6.9-8.1l0,0c0.3-4.1,3.9-7.3,8.1-6.9l0,0
		c4.1,0.3,7.2,3.9,6.9,8.1l0,0c-0.3,3.9-3.6,7-7.5,7l0,0C925.7,321.5,925.5,321.5,925.3,321.5z M929.9,289.6c-3.9-1.3-6-5.6-4.7-9.5
		l0,0c1.3-3.9,5.6-6,9.5-4.7l0,0c3.9,1.3,6,5.6,4.7,9.5l0,0c-1.1,3.1-4,5.1-7.1,5.1l0,0C931.5,290,930.7,289.9,929.9,289.6z
		 M942.3,259.9c-3.5-2.3-4.4-7-2.1-10.4l0,0c0,0,0,0,0,0l0,0c2.3-3.5,7-4.4,10.4-2.1l0,0c3.5,2.3,4.4,7,2.1,10.4l0,0
		c-1.4,2.2-3.8,3.4-6.3,3.4l0,0C945.1,261.2,943.6,260.8,942.3,259.9z M961.9,234.3c-2.8-3.1-2.5-7.8,0.6-10.6l0,0
		c3.1-2.8,7.8-2.5,10.6,0.6l0,0c2.8,3.1,2.5,7.8-0.6,10.6l0,0c-1.4,1.3-3.2,1.9-5,1.9l0,0C965.4,236.8,963.4,236,961.9,234.3z
		 M987.2,214.4c-1.9-3.7-0.5-8.2,3.2-10.1l0,0c3.7-1.9,8.2-0.5,10.1,3.2l0,0c1.9,3.7,0.5,8.2-3.2,10.2l0,0c-1.1,0.6-2.3,0.8-3.5,0.8
		l0,0C991.2,218.5,988.6,217,987.2,214.4z M1016.7,201.5c-0.9-4.1,1.6-8.1,5.7-9l0,0c4.1-0.9,8.1,1.6,9,5.7l0,0
		c0.9,4.1-1.6,8.1-5.7,9l0,0c-0.6,0.1-1.1,0.2-1.7,0.2l0,0C1020.6,207.4,1017.5,205,1016.7,201.5z"/>
</g>
<g class="st44">
	<linearGradient id="SVGID_5_" gradientUnits="userSpaceOnUse" x1="867.905" y1="970.7837" x2="966.0815" y2="970.7837">
		<stop  offset="1.071236e-02" style="stop-color:#272A5B"/>
		<stop  offset="1" style="stop-color:#005B8E"/>
	</linearGradient>
	<path class="st6" d="M959.1,1002.4c-3.9,0-7-3.1-7-7c0-23.3-19-42.3-42.3-42.3c-11.3,0-21.9,4.4-29.9,12.4c-2.7,2.7-7.2,2.7-9.9,0
		c-2.7-2.7-2.7-7.2,0-9.9c10.6-10.6,24.8-16.5,39.8-16.5c31,0,56.3,25.3,56.3,56.3C966.1,999.3,962.9,1002.4,959.1,1002.4z"/>
</g>
<g class="st30">
	<linearGradient id="SVGID_6_" gradientUnits="userSpaceOnUse" x1="853.4625" y1="1013.8032" x2="883.8719" y2="1013.8032">
		<stop  offset="1.071236e-02" style="stop-color:#272A5B"/>
		<stop  offset="1" style="stop-color:#005B8E"/>
	</linearGradient>
	<path class="st8" d="M876.9,1039.2c-1.7,0-3.3-0.6-4.7-1.8c-11.9-10.7-18.7-26-18.7-41.9c0-3.9,3.1-7,7-7s7,3.1,7,7
		c0,12,5.1,23.5,14.1,31.5c2.9,2.6,3.1,7,0.5,9.9C880.7,1038.4,878.8,1039.2,876.9,1039.2z"/>
</g>
<g>
	<linearGradient id="SVGID_7_" gradientUnits="userSpaceOnUse" x1="1221.7195" y1="544.6172" x2="1371.6337" y2="544.6172">
		<stop  offset="1.071236e-02" style="stop-color:#9BD2CD"/>
		<stop  offset="0.3244" style="stop-color:#84B4CB"/>
		<stop  offset="0.7812" style="stop-color:#688BC2"/>
		<stop  offset="1" style="stop-color:#5E7ABC"/>
	</linearGradient>
	<path class="st10" d="M1296.5,619.6c-17.1,0-33.6-5.8-47-16.7c-15.6-12.6-25.3-30.5-27.4-50.4c-2.1-19.9,3.7-39.4,16.3-55
		c12.6-15.6,30.5-25.3,50.4-27.4c19.9-2.1,39.4,3.7,55,16.3c15.6,12.6,25.3,30.5,27.4,50.4c2.1,19.9-3.7,39.4-16.3,55
		s-30.5,25.3-50.4,27.4C1301.8,619.4,1299.2,619.6,1296.5,619.6z M1289.9,480l1,9.9c-14.6,1.5-27.7,8.7-37,20.1
		c-9.2,11.4-13.5,25.7-11.9,40.3c1.5,14.6,8.7,27.7,20.1,37s25.7,13.5,40.3,11.9c14.6-1.5,27.7-8.7,37-20.1
		c9.2-11.4,13.5-25.7,11.9-40.3c-1.5-14.6-8.7-27.7-20.1-37c-11.4-9.2-25.7-13.5-40.3-11.9L1289.9,480z"/>
</g>
<linearGradient id="SVGID_8_" gradientUnits="userSpaceOnUse" x1="12489.5723" y1="4114.2764" x2="12675.0078" y2="4114.2764" gradientTransform="matrix(-0.9614 -0.2753 0.2753 -0.9614 12017.9082 7737.4531)">
	<stop  offset="1.071236e-02" style="stop-color:#272A5B"/>
	<stop  offset="1" style="stop-color:#005B8E"/>
</linearGradient>
<circle style="fill:url(#SVGID_8_);" cx="1054.7" cy="318" r="92.7"/>
<linearGradient id="SVGID_9_" gradientUnits="userSpaceOnUse" x1="575.3789" y1="750.8135" x2="755.1486" y2="750.8135">
	<stop  offset="1.071236e-02" style="stop-color:#272A5B"/>
	<stop  offset="1" style="stop-color:#005B8E"/>
</linearGradient>
<circle style="fill:url(#SVGID_9_);" cx="665.3" cy="750.8" r="89.9"/>
<g class="st30">
	<g>
		<g>
			<linearGradient id="SVGID_10_" gradientUnits="userSpaceOnUse" x1="1117.2928" y1="798.7297" x2="1149.7878" y2="798.7297">
				<stop  offset="1.071236e-02" style="stop-color:#9BD2CD"/>
				<stop  offset="0.3244" style="stop-color:#84B4CB"/>
				<stop  offset="0.7812" style="stop-color:#688BC2"/>
				<stop  offset="1" style="stop-color:#5E7ABC"/>
			</linearGradient>
			<path style="fill:url(#SVGID_10_);" d="M1139.8,815c-2.6,0-5.1-1-7.1-3l-12.5-12.6c-3.9-3.9-3.9-10.3,0.1-14.1
				c3.9-3.9,10.3-3.9,14.1,0.1l12.5,12.6c3.9,3.9,3.9,10.3-0.1,14.1C1144.9,814.1,1142.3,815,1139.8,815z"/>
		</g>
	</g>
	<g>
		<g>
			<linearGradient id="SVGID_11_" gradientUnits="userSpaceOnUse" x1="927.6772" y1="859.5908" x2="951.0394" y2="859.5908">
				<stop  offset="1.071236e-02" style="stop-color:#9BD2CD"/>
				<stop  offset="0.3244" style="stop-color:#84B4CB"/>
				<stop  offset="0.7812" style="stop-color:#688BC2"/>
				<stop  offset="1" style="stop-color:#5E7ABC"/>
			</linearGradient>
			<path style="fill:url(#SVGID_11_);" d="M937.7,878.3c-0.6,0-1.3-0.1-1.9-0.2c-5.4-1-9-6.3-7.9-11.7l3.4-17.4
				c1-5.4,6.3-9,11.7-7.9c5.4,1,9,6.3,7.9,11.7l-3.4,17.4C946.6,875,942.4,878.3,937.7,878.3z"/>
		</g>
	</g>
	<g>
		<g>
			<linearGradient id="SVGID_12_" gradientUnits="userSpaceOnUse" x1="771.6631" y1="714.5312" x2="808.7109" y2="714.5312">
				<stop  offset="1.071236e-02" style="stop-color:#9BD2CD"/>
				<stop  offset="0.3244" style="stop-color:#84B4CB"/>
				<stop  offset="0.7812" style="stop-color:#688BC2"/>
				<stop  offset="1" style="stop-color:#5E7ABC"/>
			</linearGradient>
			<path style="fill:url(#SVGID_12_);" d="M781.7,727c-4.3,0-8.3-2.8-9.6-7.2c-1.5-5.3,1.5-10.9,6.8-12.4l17-5
				c5.3-1.5,10.9,1.5,12.4,6.8c1.5,5.3-1.5,10.9-6.8,12.4l-17,5C783.5,726.9,782.6,727,781.7,727z"/>
		</g>
	</g>
	<g>
		<g>
			<linearGradient id="SVGID_13_" gradientUnits="userSpaceOnUse" x1="804.6304" y1="512.3479" x2="837.18" y2="512.3479">
				<stop  offset="1.071236e-02" style="stop-color:#9BD2CD"/>
				<stop  offset="0.3244" style="stop-color:#84B4CB"/>
				<stop  offset="0.7812" style="stop-color:#688BC2"/>
				<stop  offset="1" style="stop-color:#5E7ABC"/>
			</linearGradient>
			<path style="fill:url(#SVGID_13_);" d="M827.2,528.6c-2.6,0-5.1-1-7.1-2.9l-12.5-12.5c-3.9-3.9-3.9-10.2,0-14.1
				c3.9-3.9,10.2-3.9,14.1,0l12.5,12.5c3.9,3.9,3.9,10.2,0,14.1C832.3,527.6,829.7,528.6,827.2,528.6z"/>
		</g>
	</g>
	<g>
		<g>
			<linearGradient id="SVGID_14_" gradientUnits="userSpaceOnUse" x1="1014.2302" y1="451.5266" x2="1037.7784" y2="451.5266">
				<stop  offset="1.071236e-02" style="stop-color:#9BD2CD"/>
				<stop  offset="0.3244" style="stop-color:#84B4CB"/>
				<stop  offset="0.7812" style="stop-color:#688BC2"/>
				<stop  offset="1" style="stop-color:#5E7ABC"/>
			</linearGradient>
			<path style="fill:url(#SVGID_14_);" d="M1023.8,470.2c-0.5,0-1-0.1-1.5-0.2c-5.4-1.1-8.9-6.4-7.8-11.8l3.5-17.4
				c1.1-5.4,6.4-8.9,11.8-7.8c5.4,1.1,8.9,6.4,7.8,11.8l-3.5,17.4C1033,467.1,1028.6,470.4,1023.8,470.2z"/>
		</g>
	</g>
	<g>
		<g>
			<linearGradient id="SVGID_15_" gradientUnits="userSpaceOnUse" x1="1161.5409" y1="584.9333" x2="1197.9756" y2="584.9333">
				<stop  offset="1.071236e-02" style="stop-color:#9BD2CD"/>
				<stop  offset="0.3244" style="stop-color:#84B4CB"/>
				<stop  offset="0.7812" style="stop-color:#688BC2"/>
				<stop  offset="1" style="stop-color:#5E7ABC"/>
			</linearGradient>
			<path style="fill:url(#SVGID_15_);" d="M1171.5,598.3c-3.9,0-7.7-2.3-9.3-6.2c-2.1-5.1,0.4-11,5.5-13l16.4-6.7
				c5.1-2.1,11,0.4,13,5.5c2.1,5.1-0.4,11-5.5,13l-16.4,6.7C1174.1,598.1,1172.8,598.3,1171.5,598.3z"/>
		</g>
	</g>
</g>
<g class="st30">
	
		<linearGradient id="SVGID_16_" gradientUnits="userSpaceOnUse" x1="1281.9421" y1="470.9562" x2="1344.3806" y2="642.5045" gradientTransform="matrix(0.9945 -0.1045 0.1045 0.9945 -49.853 143.4277)">
		<stop  offset="1.071236e-02" style="stop-color:#9BD2CD"/>
		<stop  offset="0.3244" style="stop-color:#84B4CB"/>
		<stop  offset="0.7812" style="stop-color:#688BC2"/>
		<stop  offset="1" style="stop-color:#5E7ABC"/>
	</linearGradient>
	<path class="st20" d="M1298.3,656.7c-20.6,0-40.5-5.7-58.2-16.6c-4.7-2.9-6.1-9.1-3.2-13.8c2.9-4.7,9.1-6.1,13.8-3.2
		c17.3,10.7,37.1,15.2,57.4,13.1c50-5.2,86.3-50.2,81.1-100.1c-3.3-31.1-21.9-58-49.8-72c-4.9-2.5-6.9-8.5-4.5-13.4
		s8.5-6.9,13.4-4.5c34.1,17.1,56.8,49.9,60.8,87.8c6.4,60.9-38,115.7-98.9,122.1C1306.2,656.5,1302.2,656.7,1298.3,656.7z"/>
</g>
<g class="st5">
	<linearGradient id="SVGID_17_" gradientUnits="userSpaceOnUse" x1="533.617" y1="721.3519" x2="699.667" y2="721.3519">
		<stop  offset="1.071236e-02" style="stop-color:#9BD2CD"/>
		<stop  offset="0.3244" style="stop-color:#84B4CB"/>
		<stop  offset="0.7812" style="stop-color:#688BC2"/>
		<stop  offset="1" style="stop-color:#5E7ABC"/>
	</linearGradient>
	<path style="fill:url(#SVGID_17_);" d="M559.8,820.4c-2.3,0-4.5-1.1-5.9-3.2c-27.7-42.9-27-97.8,1.9-139.9
		c30.7-44.9,86.5-65,138.8-50.1c3.7,1.1,5.9,4.9,4.8,8.7c-1.1,3.7-4.9,5.9-8.7,4.8c-46.5-13.3-96.1,4.6-123.4,44.6
		c-25.6,37.4-26.3,86.3-1.7,124.4c2.1,3.2,1.2,7.6-2.1,9.7C562.4,820,561.1,820.4,559.8,820.4z"/>
</g>
<g>
	<linearGradient id="SVGID_18_" gradientUnits="userSpaceOnUse" x1="840.1751" y1="995.17" x2="979.4178" y2="995.17">
		<stop  offset="1.071236e-02" style="stop-color:#9BD2CD"/>
		<stop  offset="0.3244" style="stop-color:#84B4CB"/>
		<stop  offset="0.7812" style="stop-color:#688BC2"/>
		<stop  offset="1" style="stop-color:#5E7ABC"/>
	</linearGradient>
	<path class="st22" d="M909.8,925.5c14.8,0,29.5,4.9,41.4,13.7c12.3,9.1,21.1,21.7,25.4,36.5c5.2,17.9,3.1,36.7-5.8,52.9
		c-9,16.3-23.7,28.1-41.6,33.3c-6.4,1.9-12.9,2.8-19.5,2.8c-14.8,0-29.5-4.9-41.4-13.7c-12.3-9.1-21.1-21.7-25.4-36.5
		c-10.7-36.9,10.6-75.6,47.4-86.3C896.7,926.5,903.3,925.5,909.8,925.5L909.8,925.5L909.8,925.5 M909.8,905.5
		c-8.3,0-16.7,1.2-25,3.6c-47.5,13.8-74.8,63.5-61,111c11.4,39.2,47.2,64.6,86,64.6c8.3,0,16.7-1.2,25.1-3.6
		c47.5-13.8,74.8-63.5,61-111C984.4,931,948.7,905.5,909.8,905.5L909.8,905.5z"/>
</g>
<linearGradient id="SVGID_19_" gradientUnits="userSpaceOnUse" x1="1221.7195" y1="815.0322" x2="1221.7195" y2="977.5183">
	<stop  offset="1.071236e-02" style="stop-color:#272A5B"/>
	<stop  offset="1" style="stop-color:#005B8E"/>
</linearGradient>
<path class="st24" d="M1221.7,855c22.7,0,41.2,18.5,41.2,41.2c0,22.7-18.5,41.2-41.2,41.2s-41.2-18.5-41.2-41.2
	C1180.5,873.5,1199,855,1221.7,855 M1221.7,815c-44.9,0-81.2,36.4-81.2,81.2c0,44.9,36.4,81.2,81.2,81.2s81.2-36.4,81.2-81.2
	C1303,851.4,1266.6,815,1221.7,815L1221.7,815z"/>
<g>
	<linearGradient id="SVGID_20_" gradientUnits="userSpaceOnUse" x1="872.8364" y1="751.2865" x2="1090.722" y2="533.4008">
		<stop  offset="1.239782e-02" style="stop-color:#EF775E"/>
		<stop  offset="0.3394" style="stop-color:#F59F6E"/>
		<stop  offset="0.786" style="stop-color:#FDCD82"/>
		<stop  offset="1" style="stop-color:#FFDD89"/>
	</linearGradient>
	<path style="fill:url(#SVGID_20_);" d="M981.8,538.3c27.8,0,53.9,10.8,73.6,30.5c40.6,40.6,40.6,106.6,0,147.2
		c-19.7,19.7-45.8,30.5-73.6,30.5c-27.8,0-53.9-10.8-73.6-30.5c-40.6-40.6-40.6-106.6,0-147.2C927.8,549.1,954,538.3,981.8,538.3
		 M981.8,488.3c-39.4,0-78.9,15-108.9,45.1c-60.2,60.2-60.2,157.7,0,217.9c30.1,30.1,69.5,45.1,108.9,45.1s78.9-15,108.9-45.1
		c60.2-60.2,60.2-157.7,0-217.9C1060.6,503.3,1021.2,488.3,981.8,488.3L981.8,488.3z"/>
</g>
</svg>
