<?xml version="1.0" encoding="utf-8"?>
<!-- Generator: Adobe Illustrator 23.0.6, SVG Export Plug-In . SVG Version: 6.00 Build 0)  -->
<svg version="1.1" id="Ebene_1" xmlns="http://www.w3.org/2000/svg" xmlns:xlink="http://www.w3.org/1999/xlink" x="0px" y="0px"
	 viewBox="0 0 1920 1281.7" style="enable-background:new 0 0 1920 1281.7;" xml:space="preserve">
<style type="text/css">
	.st0{opacity:0.2;fill:url(#SVGID_1_);}
	.st1{fill:url(#SVGID_2_);}
	.st2{fill:#FFFFFF;}
	.st3{fill:none;stroke:url(#SVGID_3_);stroke-width:30;stroke-linecap:round;stroke-linejoin:round;stroke-miterlimit:10;}
	.st4{fill:none;stroke:url(#SVGID_4_);stroke-width:30;stroke-linecap:round;stroke-linejoin:round;stroke-miterlimit:10;}
	.st5{opacity:0.3;}
	.st6{fill:url(#SVGID_5_);}
	.st7{opacity:0.5;}
	.st8{fill:url(#SVGID_6_);}
	.st9{opacity:0.7;}
	.st10{fill:url(#SVGID_7_);}
	.st11{opacity:0.15;}
	.st12{fill:none;stroke:url(#SVGID_8_);stroke-width:20;stroke-linecap:round;stroke-miterlimit:10;}
	.st13{fill:none;stroke:url(#SVGID_9_);stroke-width:20;stroke-linecap:round;stroke-miterlimit:10;}
	.st14{fill:none;stroke:url(#SVGID_10_);stroke-width:20;stroke-linecap:round;stroke-miterlimit:10;}
	.st15{fill:none;stroke:url(#SVGID_11_);stroke-width:20;stroke-linecap:round;stroke-miterlimit:10;}
	.st16{fill:none;stroke:url(#SVGID_12_);stroke-width:20;stroke-linecap:round;stroke-miterlimit:10;}
	.st17{fill:none;stroke:url(#SVGID_13_);stroke-width:20;stroke-linecap:round;stroke-miterlimit:10;}
	.st18{fill:none;stroke:url(#SVGID_14_);stroke-width:20;stroke-linecap:round;stroke-miterlimit:10;}
	.st19{fill:none;stroke:url(#SVGID_15_);stroke-width:20;stroke-linecap:round;stroke-miterlimit:10;}
	.st20{fill:url(#SVGID_16_);}
	.st21{opacity:0.2;fill:none;stroke:url(#SVGID_17_);stroke-width:10;stroke-linecap:round;stroke-miterlimit:10;}
	.st22{fill:url(#SVGID_18_);}
	.st23{opacity:0.4;}
	.st24{fill:url(#SVGID_19_);}
	.st25{opacity:0.1;fill:none;stroke:url(#SVGID_20_);stroke-width:30;stroke-linecap:round;stroke-miterlimit:10;}
	.st26{fill:none;stroke:url(#SVGID_21_);stroke-width:20;stroke-miterlimit:10;}
	.st27{fill:url(#SVGID_22_);}
	.st28{fill:url(#SVGID_23_);}
	.st29{fill:url(#SVGID_24_);}
	.st30{opacity:0.2;}
	.st31{fill:url(#SVGID_25_);}
	.st32{fill:url(#SVGID_26_);}
	.st33{fill:url(#SVGID_27_);}
	.st34{fill:url(#SVGID_28_);}
	.st35{fill:url(#SVGID_29_);}
	.st36{fill:url(#SVGID_30_);}
	.st37{fill:url(#SVGID_31_);}
	.st38{fill:url(#SVGID_32_);}
	.st39{fill:url(#SVGID_33_);}
	.st40{fill:url(#SVGID_34_);}
	.st41{fill:url(#SVGID_35_);}
	.st42{fill:url(#SVGID_36_);}
	.st43{fill:url(#SVGID_37_);}
	.st44{opacity:0.1;}
	.st45{fill:url(#SVGID_38_);}
	.st46{fill:url(#SVGID_39_);}
	.st47{fill:url(#SVGID_40_);}
	.st48{fill:url(#SVGID_41_);}
	.st49{fill:url(#SVGID_42_);}
	.st50{fill:url(#SVGID_43_);}
	.st51{fill:none;}
	.st52{fill:url(#SVGID_44_);}
	.st53{fill:url(#SVGID_45_);}
	.st54{fill:url(#SVGID_46_);}
	.st55{fill:url(#SVGID_47_);}
	.st56{fill:url(#SVGID_48_);}
	.st57{opacity:0.1;fill:#020203;}
	.st58{opacity:0.8;}
	.st59{fill:none;stroke:url(#SVGID_49_);stroke-width:20;stroke-linecap:round;stroke-miterlimit:10;}
	.st60{fill:none;stroke:url(#SVGID_50_);stroke-width:20;stroke-linecap:round;stroke-miterlimit:10;}
	.st61{fill:none;stroke:url(#SVGID_51_);stroke-width:20;stroke-linecap:round;stroke-miterlimit:10;}
	.st62{fill:none;stroke:url(#SVGID_52_);stroke-width:20;stroke-linecap:round;stroke-miterlimit:10;}
	.st63{fill:none;stroke:url(#SVGID_53_);stroke-width:20;stroke-linecap:round;stroke-miterlimit:10;}
	.st64{fill:none;stroke:url(#SVGID_54_);stroke-width:20;stroke-linecap:round;stroke-miterlimit:10;}
	.st65{fill:none;stroke:url(#SVGID_55_);stroke-width:20;stroke-linecap:round;stroke-miterlimit:10;}
	.st66{fill:none;stroke:url(#SVGID_56_);stroke-width:20;stroke-linecap:round;stroke-miterlimit:10;}
	.st67{opacity:0.3;fill:none;stroke:url(#SVGID_57_);stroke-width:30;stroke-linecap:round;stroke-miterlimit:10;}
	.st68{opacity:0.25;fill:none;stroke:url(#SVGID_58_);stroke-width:20;stroke-linecap:round;stroke-miterlimit:10;}
	.st69{fill:url(#SVGID_59_);}
	.st70{fill:none;stroke:url(#SVGID_60_);stroke-width:82;stroke-linecap:round;stroke-linejoin:round;stroke-miterlimit:10;}
	.st71{fill:url(#SVGID_61_);}
	.st72{fill:url(#SVGID_62_);}
	.st73{fill:url(#SVGID_63_);}
	.st74{fill:url(#SVGID_64_);}
	.st75{fill:url(#SVGID_65_);}
	.st76{fill:url(#SVGID_66_);}
	.st77{fill:url(#SVGID_67_);}
	.st78{fill:url(#SVGID_68_);}
	.st79{fill:url(#SVGID_69_);}
	.st80{fill:url(#SVGID_70_);}
	.st81{fill:url(#SVGID_71_);}
	.st82{fill:url(#SVGID_72_);}
	.st83{fill:url(#SVGID_73_);}
	.st84{fill:url(#SVGID_74_);}
	.st85{fill:url(#SVGID_75_);}
	.st86{opacity:0.2;fill:none;stroke:url(#SVGID_76_);stroke-width:10;stroke-linecap:round;stroke-miterlimit:10;}
	.st87{fill:none;stroke:url(#SVGID_77_);stroke-width:20;stroke-linecap:round;stroke-linejoin:round;stroke-miterlimit:10;}
	.st88{fill:none;stroke:url(#SVGID_78_);stroke-width:20;stroke-linecap:round;stroke-linejoin:round;stroke-miterlimit:10;}
	
		.st89{fill:none;stroke:url(#SVGID_79_);stroke-width:20;stroke-linecap:round;stroke-linejoin:round;stroke-miterlimit:10;stroke-dasharray:0,70;}
	.st90{fill:none;stroke:url(#SVGID_80_);stroke-width:20;stroke-linecap:round;stroke-linejoin:round;}
	.st91{fill:none;stroke:url(#SVGID_81_);stroke-width:20;stroke-linecap:round;stroke-linejoin:round;stroke-dasharray:0,70.5201;}
	.st92{fill:none;stroke:url(#SVGID_82_);stroke-width:20;stroke-linecap:round;stroke-linejoin:round;}
	.st93{fill:none;stroke:url(#SVGID_83_);stroke-width:20;stroke-linecap:round;stroke-linejoin:round;stroke-miterlimit:10;}
	.st94{fill:none;stroke:url(#SVGID_84_);stroke-width:20;stroke-linecap:round;stroke-linejoin:round;stroke-miterlimit:10;}
	.st95{fill:url(#SVGID_85_);}
	.st96{fill:none;stroke:url(#SVGID_86_);stroke-width:20;stroke-linecap:round;stroke-linejoin:round;stroke-miterlimit:10;}
	.st97{fill:url(#SVGID_87_);}
	.st98{fill:url(#SVGID_88_);}
	.st99{fill:url(#SVGID_89_);}
	.st100{fill:url(#SVGID_90_);}
	.st101{fill:url(#SVGID_91_);}
	.st102{fill:url(#SVGID_92_);}
	.st103{fill:none;stroke:url(#SVGID_93_);stroke-width:20;stroke-linecap:round;stroke-linejoin:round;stroke-miterlimit:10;}
	.st104{fill:none;stroke:url(#SVGID_94_);stroke-width:20;stroke-linecap:round;stroke-linejoin:round;stroke-miterlimit:10;}
	.st105{fill:url(#SVGID_95_);}
	.st106{fill:url(#SVGID_96_);}
	.st107{fill:none;stroke:url(#SVGID_97_);stroke-width:80;stroke-linecap:round;stroke-linejoin:round;stroke-miterlimit:10;}
	.st108{opacity:0.4;fill:none;stroke:url(#SVGID_98_);stroke-width:50;stroke-linecap:round;stroke-miterlimit:10;}
	.st109{opacity:0.4;fill:none;stroke:url(#SVGID_99_);stroke-width:50;stroke-linecap:round;stroke-miterlimit:10;}
	.st110{fill:url(#SVGID_100_);}
	.st111{opacity:0.2;fill:url(#SVGID_101_);}
	.st112{fill:url(#SVGID_102_);}
	.st113{fill:url(#SVGID_103_);}
	.st114{fill:url(#SVGID_104_);}
	.st115{fill:url(#SVGID_105_);}
	.st116{fill:url(#SVGID_106_);}
	.st117{fill:url(#SVGID_107_);}
	.st118{fill:url(#SVGID_108_);}
	.st119{fill:url(#SVGID_109_);}
	.st120{fill:url(#SVGID_110_);}
	.st121{fill:url(#SVGID_111_);}
	.st122{fill:url(#SVGID_112_);}
	.st123{fill:url(#SVGID_113_);}
	.st124{fill:url(#SVGID_114_);}
	.st125{fill:url(#SVGID_115_);}
	.st126{fill:url(#SVGID_116_);}
	.st127{fill:url(#SVGID_117_);}
	.st128{fill:none;stroke:url(#SVGID_118_);stroke-width:16;stroke-linecap:round;stroke-linejoin:round;stroke-miterlimit:10;}
	.st129{fill:url(#SVGID_119_);}
	.st130{fill:url(#SVGID_120_);}
	.st131{fill:none;stroke:url(#SVGID_121_);stroke-width:24;stroke-linecap:round;stroke-linejoin:round;stroke-miterlimit:10;}
	
		.st132{fill:none;stroke:url(#SVGID_122_);stroke-width:24;stroke-linecap:round;stroke-linejoin:round;stroke-miterlimit:10;stroke-dasharray:0,58;}
	.st133{fill:none;stroke:#6B95C5;stroke-width:24;stroke-linecap:round;stroke-linejoin:round;stroke-miterlimit:10;}
	.st134{opacity:0.3;fill:url(#SVGID_123_);}
	.st135{opacity:0.3;fill:url(#SVGID_124_);}
	.st136{opacity:0.3;fill:url(#SVGID_125_);}
	.st137{opacity:0.3;fill:url(#SVGID_126_);}
	.st138{opacity:0.2;fill:url(#SVGID_127_);}
	.st139{fill:url(#SVGID_128_);}
	.st140{fill:url(#SVGID_129_);}
	.st141{fill:url(#SVGID_130_);}
	.st142{fill:url(#SVGID_131_);}
	.st143{fill:url(#SVGID_132_);}
	.st144{fill:url(#SVGID_133_);}
	.st145{fill:url(#SVGID_134_);}
	.st146{fill:url(#SVGID_135_);}
	.st147{fill:url(#SVGID_136_);}
	.st148{fill:url(#SVGID_137_);}
	.st149{fill:url(#SVGID_138_);}
	.st150{fill:url(#SVGID_139_);}
	.st151{fill:url(#SVGID_140_);}
	.st152{fill:url(#SVGID_141_);}
	.st153{fill:url(#SVGID_142_);}
	.st154{fill:url(#SVGID_143_);}
	.st155{fill:url(#SVGID_144_);}
	.st156{fill:url(#SVGID_145_);}
	.st157{fill:url(#SVGID_146_);}
	.st158{fill:url(#SVGID_147_);}
	.st159{fill:url(#SVGID_148_);}
	.st160{fill:url(#SVGID_149_);}
	.st161{fill:url(#SVGID_150_);}
	.st162{fill:url(#SVGID_151_);}
	.st163{fill:url(#SVGID_152_);}
	.st164{fill:url(#SVGID_153_);}
	
		.st165{opacity:0.4;fill:none;stroke:url(#SVGID_154_);stroke-width:20;stroke-linecap:round;stroke-linejoin:round;stroke-miterlimit:10;}
	
		.st166{opacity:0.4;fill:none;stroke:url(#SVGID_155_);stroke-width:20;stroke-linecap:round;stroke-linejoin:round;stroke-miterlimit:10;}
	.st167{fill:url(#SVGID_156_);}
	.st168{fill:none;stroke:url(#SVGID_157_);stroke-width:40;stroke-miterlimit:10;}
	.st169{fill:url(#SVGID_158_);}
	.st170{fill:url(#SVGID_159_);}
	
		.st171{opacity:0.2;fill:none;stroke:url(#SVGID_160_);stroke-width:24;stroke-linecap:round;stroke-linejoin:round;stroke-miterlimit:10;}
	
		.st172{opacity:0.4;fill:none;stroke:url(#SVGID_161_);stroke-width:24;stroke-linecap:round;stroke-linejoin:round;stroke-miterlimit:10;}
	
		.st173{opacity:0.2;fill:none;stroke:url(#SVGID_162_);stroke-width:22;stroke-linecap:round;stroke-linejoin:round;stroke-miterlimit:10;stroke-dasharray:0,44;}
	.st174{fill:none;stroke:url(#SVGID_163_);stroke-width:22;stroke-linecap:round;stroke-linejoin:round;}
	.st175{fill:none;stroke:url(#SVGID_164_);stroke-width:22;stroke-linecap:round;stroke-linejoin:round;stroke-dasharray:0,41.452;}
	.st176{fill:none;stroke:url(#SVGID_165_);stroke-width:22;stroke-linecap:round;stroke-linejoin:round;}
	
		.st177{opacity:0.4;fill:none;stroke:url(#SVGID_166_);stroke-width:24;stroke-linecap:round;stroke-linejoin:round;stroke-miterlimit:10;}
	
		.st178{opacity:0.2;fill:none;stroke:url(#SVGID_167_);stroke-width:24;stroke-linecap:round;stroke-linejoin:round;stroke-miterlimit:10;}
	.st179{fill:url(#SVGID_168_);}
	.st180{fill:none;stroke:url(#SVGID_169_);stroke-width:16;stroke-linecap:round;stroke-linejoin:round;stroke-miterlimit:10;}
	.st181{fill:none;stroke:url(#SVGID_170_);stroke-width:16;stroke-linecap:round;stroke-linejoin:round;stroke-miterlimit:10;}
	.st182{fill:url(#SVGID_171_);}
	.st183{fill:url(#SVGID_172_);}
	.st184{opacity:0.3;fill:none;stroke:url(#SVGID_173_);stroke-width:14;stroke-linecap:round;stroke-miterlimit:10;}
	
		.st185{opacity:0.7;fill:none;stroke:url(#SVGID_174_);stroke-width:14;stroke-linecap:round;stroke-miterlimit:10;stroke-dasharray:0,30;}
	.st186{opacity:0.7;fill:none;stroke:url(#SVGID_175_);stroke-width:14;stroke-linecap:round;stroke-miterlimit:10;}
	.st187{opacity:0.2;fill:none;stroke:url(#SVGID_176_);stroke-width:14;stroke-linecap:round;stroke-miterlimit:10;}
	.st188{fill:url(#SVGID_177_);}
	.st189{fill:none;stroke:url(#SVGID_178_);stroke-width:20;stroke-miterlimit:10;}
	.st190{opacity:0.4;fill:url(#SVGID_179_);}
	.st191{opacity:0.6;}
	.st192{fill:url(#SVGID_180_);}
	.st193{fill:url(#SVGID_181_);}
	.st194{fill:url(#SVGID_182_);}
	.st195{fill:url(#SVGID_183_);}
	.st196{fill:url(#SVGID_184_);}
	.st197{fill:url(#SVGID_185_);}
	.st198{fill:url(#SVGID_186_);}
	.st199{fill:none;stroke:url(#SVGID_187_);stroke-width:20;stroke-linecap:round;stroke-miterlimit:10;}
	.st200{fill:none;stroke:url(#SVGID_188_);stroke-width:20;stroke-linecap:round;stroke-miterlimit:10;}
	.st201{fill:none;stroke:url(#SVGID_189_);stroke-width:20;stroke-linecap:round;stroke-miterlimit:10;}
	.st202{fill:none;stroke:url(#SVGID_190_);stroke-width:20;stroke-linecap:round;stroke-miterlimit:10;}
	.st203{fill:none;stroke:url(#SVGID_191_);stroke-width:20;stroke-linecap:round;stroke-miterlimit:10;}
	.st204{fill:none;stroke:url(#SVGID_192_);stroke-width:20;stroke-linecap:round;stroke-miterlimit:10;}
	.st205{opacity:0.3;fill:none;stroke:url(#SVGID_193_);stroke-width:20;stroke-linecap:round;stroke-miterlimit:10;}
	.st206{opacity:0.4;fill:none;stroke:url(#SVGID_194_);stroke-width:14;stroke-linecap:round;stroke-miterlimit:10;}
	
		.st207{opacity:0.4;fill:none;stroke:url(#SVGID_195_);stroke-width:24;stroke-linecap:round;stroke-linejoin:round;stroke-miterlimit:10;}
	.st208{fill:url(#SVGID_196_);}
	.st209{fill:url(#SVGID_197_);}
	.st210{fill:url(#SVGID_198_);}
	.st211{fill:url(#SVGID_199_);}
	.st212{fill:url(#SVGID_200_);}
	.st213{fill:url(#SVGID_201_);}
	.st214{fill:url(#SVGID_202_);}
	.st215{fill:url(#SVGID_203_);}
	.st216{fill:url(#SVGID_204_);}
	.st217{fill:url(#SVGID_205_);}
	.st218{fill:url(#SVGID_206_);}
	.st219{fill:url(#SVGID_207_);}
	.st220{fill:url(#SVGID_208_);}
	.st221{fill:url(#SVGID_209_);}
	.st222{fill:url(#SVGID_210_);}
	.st223{fill:url(#SVGID_211_);}
	.st224{fill:url(#SVGID_212_);}
	.st225{fill:url(#SVGID_213_);}
	.st226{fill:url(#SVGID_214_);}
	.st227{fill:url(#SVGID_215_);}
	.st228{fill:url(#SVGID_216_);}
	.st229{fill:url(#SVGID_217_);}
	.st230{fill:none;stroke:url(#SVGID_218_);stroke-width:16;stroke-linecap:round;stroke-linejoin:round;stroke-miterlimit:10;}
	.st231{fill:url(#SVGID_219_);}
	.st232{fill:url(#SVGID_220_);}
	.st233{fill:url(#SVGID_221_);}
	.st234{fill:url(#SVGID_222_);}
	.st235{fill:url(#SVGID_223_);}
	.st236{fill:url(#SVGID_224_);}
	.st237{fill:url(#SVGID_225_);}
	.st238{fill:url(#SVGID_226_);}
	.st239{opacity:0.4;fill:url(#SVGID_227_);}
	.st240{fill:url(#SVGID_228_);}
	.st241{fill:url(#SVGID_229_);}
	.st242{fill:url(#SVGID_230_);}
	.st243{fill:url(#SVGID_231_);}
	.st244{fill:url(#SVGID_232_);}
	.st245{fill:url(#SVGID_233_);}
	.st246{fill:url(#SVGID_234_);}
	.st247{fill:url(#SVGID_235_);}
	.st248{fill:url(#SVGID_236_);}
	.st249{fill:url(#SVGID_237_);}
	.st250{fill:url(#SVGID_238_);}
	.st251{fill:url(#SVGID_239_);}
	.st252{fill:url(#SVGID_240_);}
</style>
<linearGradient id="SVGID_1_" gradientUnits="userSpaceOnUse" x1="-3030.6702" y1="190.2582" x2="-1873.5975" y2="190.2582" gradientTransform="matrix(0 1 -1 0 1171.0187 3095.7173)">
	<stop  offset="1.071236e-02" style="stop-color:#BDE0DD"/>
	<stop  offset="0.6303" style="stop-color:#A7BFDA"/>
	<stop  offset="1" style="stop-color:#9EAFD7"/>
</linearGradient>
<circle class="st0" cx="980.8" cy="643.6" r="578.5"/>
<g>
	<path class="st51" d="M1035.2,747.3L1035.2,747.3c2-9,3.1-19.4,3.1-30.9c0-11.1-1.6-19.5-4.8-24.9c-5.4-9.3-18.6-17.4-39.3-24.1
		l-14.6-4.9v124.5c8.8-0.6,16.4-1.8,22.7-3.6C1020,778.2,1030.8,766.4,1035.2,747.3z"/>
	<path class="st51" d="M884,528.1c-0.3,5-0.5,9.3-0.5,13c0,11.8,2.5,21,7.3,27.2c4.9,6.3,14.9,12.1,29.7,17.1l23.3,7.8V487.4
		c-16.1,1.4-29.1,4.5-38.7,9.4C891.9,503.3,885,513.6,884,528.1z"/>
	<linearGradient id="SVGID_2_" gradientUnits="userSpaceOnUse" x1="821.767" y1="510.8281" x2="1093.9077" y2="510.8281">
		<stop  offset="1.071236e-02" style="stop-color:#272A5B"/>
		<stop  offset="1" style="stop-color:#005B8E"/>
	</linearGradient>
	<path class="st1" d="M979.5,483.1c21.9,1.1,42.6,5,61.8,11.8l38-38c-0.8-0.7-1.8-1.3-2.8-1.8c-24.1-12.2-56.8-19.3-97.1-21.3v-27.4
		c0-9.8-8-17.8-17.8-17.8c-9.8,0-17.8,8-17.8,17.8v27.4c-59.4,2.6-97.1,23.9-111.8,63.2c-4.3,11.6-6.5,25.7-6.5,41.9
		c0,16.3,2.7,30.7,8.1,42.7c5.4,12.2,13.7,22.4,24.7,30.3c10.8,7.8,25.5,14.8,43.9,20.9l1,0.3l76.4-76.4V483.1z M943.9,589.2
		l-23.3-7.8c-14.8-5-24.8-10.8-29.7-17.1c-4.9-6.2-7.3-15.4-7.3-27.2c0-3.6,0.2-8,0.5-13c1-14.5,7.9-24.7,21.1-31.3
		c9.6-4.9,22.6-8,38.7-9.4V589.2z"/>
	<linearGradient id="SVGID_3_" gradientUnits="userSpaceOnUse" x1="821.767" y1="760.5915" x2="1093.9077" y2="760.5915">
		<stop  offset="1.071236e-02" style="stop-color:#272A5B"/>
		<stop  offset="1" style="stop-color:#005B8E"/>
	</linearGradient>
	<path style="fill:url(#SVGID_3_);" d="M943.9,790.7c-15-1.4-31.6-4.7-49.4-9.9c-9.6-2.7-18.7-6-27.4-9.6l-38.5,38.5
		c0.4,0.2,0.8,0.5,1.2,0.7c33.4,17.3,71.8,27.4,114.2,30v40.9c0,9.8,8,17.8,17.8,17.8c9.8,0,17.8-8,17.8-17.8v-40.6
		c75.9-4,114.4-42.9,114.4-115.7c0-37.5-11.3-64.8-33.5-81.2l0,0c-10.8-7.9-25.5-15.1-43.9-21.6l-0.3-0.1l-72.3,72.3V790.7z
		 M979.5,666.8l14.6,4.9c20.7,6.7,33.9,14.8,39.3,24.1c3.2,5.4,4.8,13.8,4.8,24.9c0,11.5-1,21.9-3.1,30.9h0
		c-4.3,19.1-15.1,30.9-33,36c-6.3,1.8-13.9,3-22.7,3.6V666.8z"/>
</g>
<g>
	<linearGradient id="SVGID_4_" gradientUnits="userSpaceOnUse" x1="687.8999" y1="936.444" x2="1273.6204" y2="350.7235">
		<stop  offset="1.239782e-02" style="stop-color:#EF775E"/>
		<stop  offset="0.3394" style="stop-color:#F59F6E"/>
		<stop  offset="0.786" style="stop-color:#FDCD82"/>
		<stop  offset="1" style="stop-color:#FFDD89"/>
	</linearGradient>
	<path style="fill:url(#SVGID_4_);" d="M927.7,1053.6c-3.9,0-7.9-0.3-11.7-0.9c-28.6-4.5-49.3-24.9-69.3-44.6
		c-12.4-12.2-24.2-23.8-36.3-30c-11.3-5.8-27-8.3-43.7-11c-26.9-4.4-57.4-9.3-78.7-30.6c-21.3-21.3-26.3-51.8-30.6-78.7
		c-2.7-16.6-5.2-32.3-11-43.7c-6.2-12.2-17.8-23.9-30-36.3c-19.7-20-40.1-40.7-44.6-69.3c-4.6-28.9,9.1-56.1,21.2-80.2
		c7.8-15.5,15.1-30.1,17.2-43.3c2-12.9-0.4-28.9-3-45.8c-4.1-26.8-8.8-57.1,4.7-83.5c12.9-25.4,38.5-38.6,63.1-51.5
		c15.7-8.2,30.6-15.9,40.6-25.9s17.7-24.8,25.9-40.6c12.8-24.7,26.1-50.2,51.5-63.1c11.8-6,25.4-9,41.6-9c14.1,0,28.3,2.2,42,4.3
		c12.6,1.9,24.5,3.8,35.2,3.8c3.9,0,7.4-0.2,10.6-0.7c13.2-2.1,27.8-9.4,43.3-17.2c21.6-10.9,44-22.1,68.5-22.1
		c4,0,7.9,0.3,11.7,0.9c28.6,4.5,49.3,24.9,69.3,44.6c12.4,12.2,24.2,23.8,36.3,30c11.3,5.8,27,8.3,43.7,11
		c26.9,4.4,57.4,9.3,78.7,30.6c21.3,21.3,26.3,51.8,30.6,78.7c2.7,16.6,5.2,32.3,11,43.7c6.2,12.2,17.8,23.9,30,36.3
		c19.7,20,40.1,40.7,44.6,69.3c4.6,28.9-9.1,56.1-21.2,80.2c-7.8,15.5-15.1,30.1-17.2,43.3c-2,12.9,0.4,28.9,3,45.8
		c4.1,26.8,8.8,57.1-4.7,83.5c-12.9,25.4-38.5,38.6-63.1,51.5c-15.7,8.2-30.6,15.9-40.6,25.9c-10,10-17.7,24.8-25.9,40.6
		c-12.8,24.7-26.1,50.2-51.5,63.1c-11.8,6-25.4,9-41.6,9c-14.1,0-28.3-2.2-42-4.3c-12.6-1.9-24.5-3.8-35.2-3.8c0,0,0,0,0,0
		c-3.9,0-7.4,0.2-10.6,0.7c-13.2,2.1-27.8,9.4-43.3,17.2C974.5,1042.4,952.2,1053.6,927.7,1053.6z M834.2,305.5
		c-9.7,0-17.3,1.5-23.4,4.6c-13.9,7.1-23.7,26-34.1,46c-9.2,17.7-18.7,36.1-33.1,50.4c-14.3,14.3-32.7,23.9-50.4,33.1
		c-20,10.4-38.9,20.2-46,34.1c-7.6,14.9-4.3,36.5-0.8,59.3c3,19.2,6,39.1,3,58.1c-3.1,19.4-12.1,37.5-20.9,55
		c-10.3,20.5-20,39.8-17.4,56c2.5,15.9,17.6,31.3,33.6,47.5c13.8,14.1,28.1,28.6,37.1,46.2c8.6,16.9,11.8,36.5,14.9,55.4
		c3.7,23,7.2,44.7,19.4,56.9c12.2,12.2,33.9,15.7,56.9,19.4c18.9,3.1,38.5,6.2,55.4,14.9c17.7,9,32.2,23.3,46.2,37.1
		c16.2,16,31.6,31.1,47.5,33.6c1.8,0.3,3.6,0.4,5.5,0.4c15,0,32.3-8.7,50.6-17.8c17.5-8.8,35.6-17.9,55-20.9
		c5.3-0.8,10.8-1.2,16.8-1.2c0,0,0,0,0,0c13.8,0,27.8,2.2,41.3,4.2c12.8,2,24.8,3.8,35.9,3.8c9.7,0,17.3-1.5,23.4-4.6
		c13.9-7.1,23.7-26,34.1-46c9.2-17.7,18.7-36.1,33.1-50.4c14.3-14.3,32.7-23.9,50.4-33.1c20-10.4,38.9-20.2,46-34.1
		c7.6-14.9,4.3-36.5,0.8-59.3c-3-19.2-6-39.1-3-58.1c3.1-19.4,12.1-37.5,20.9-55c10.3-20.5,20-39.8,17.4-56
		c-2.5-15.9-17.6-31.3-33.6-47.5c-13.8-14.1-28.1-28.6-37.1-46.2c-8.6-16.9-11.8-36.5-14.9-55.4c-3.7-23-7.2-44.7-19.4-56.9
		s-33.9-15.7-56.9-19.4c-18.9-3.1-38.5-6.2-55.4-14.9c-17.7-9-32.2-23.3-46.2-37.1c-16.2-16-31.6-31.1-47.5-33.6
		c-1.8-0.3-3.6-0.4-5.5-0.4c-15,0-32.3,8.7-50.6,17.8c-17.5,8.8-35.6,17.9-55,20.9c-5.3,0.8-10.8,1.2-16.8,1.2
		c-13.8,0-27.8-2.2-41.3-4.2C857.3,307.4,845.3,305.5,834.2,305.5z"/>
</g>
<g class="st7">
	
		<linearGradient id="SVGID_5_" gradientUnits="userSpaceOnUse" x1="510.8407" y1="610.2632" x2="992.7267" y2="294.3571" gradientTransform="matrix(0.7152 -0.2152 -0.2152 0.7152 517.5052 468.0369)">
		<stop  offset="1.071236e-02" style="stop-color:#9BD2CD"/>
		<stop  offset="0.3244" style="stop-color:#84B4CB"/>
		<stop  offset="0.7812" style="stop-color:#688BC2"/>
		<stop  offset="1" style="stop-color:#5E7ABC"/>
	</linearGradient>
	<path class="st6" d="M772.6,826c-2.8,0-5.6-1.1-7.8-3.2c-4.3-4.3-4.3-11.3,0-15.6l370.5-370.5c4.3-4.3,11.3-4.3,15.6,0
		c4.3,4.3,4.3,11.3,0,15.6L780.4,822.8C778.2,824.9,775.4,826,772.6,826z"/>
</g>
</svg>
