<?xml version="1.0" encoding="utf-8"?>
<!-- Generator: Adobe Illustrator 23.0.6, SVG Export Plug-In . SVG Version: 6.00 Build 0)  -->
<svg version="1.1" id="Ebene_1" xmlns="http://www.w3.org/2000/svg" xmlns:xlink="http://www.w3.org/1999/xlink" x="0px" y="0px"
	 viewBox="0 0 1920 1281.7" style="enable-background:new 0 0 1920 1281.7;" xml:space="preserve">
<style type="text/css">
	.st0{opacity:0.2;fill:url(#SVGID_1_);}
	.st1{fill:url(#SVGID_2_);}
	.st2{fill:#FFFFFF;}
	.st3{fill:none;stroke:url(#SVGID_3_);stroke-width:30;stroke-linecap:round;stroke-linejoin:round;stroke-miterlimit:10;}
	.st4{fill:none;stroke:url(#SVGID_4_);stroke-width:30;stroke-linecap:round;stroke-linejoin:round;stroke-miterlimit:10;}
	.st5{opacity:0.3;}
	.st6{fill:url(#SVGID_5_);}
	.st7{opacity:0.5;}
	.st8{fill:url(#SVGID_6_);}
	.st9{opacity:0.7;}
	.st10{fill:url(#SVGID_7_);}
	.st11{opacity:0.15;}
	.st12{fill:none;stroke:url(#SVGID_8_);stroke-width:20;stroke-linecap:round;stroke-miterlimit:10;}
	.st13{fill:none;stroke:url(#SVGID_9_);stroke-width:20;stroke-linecap:round;stroke-miterlimit:10;}
	.st14{fill:none;stroke:url(#SVGID_10_);stroke-width:20;stroke-linecap:round;stroke-miterlimit:10;}
	.st15{fill:none;stroke:url(#SVGID_11_);stroke-width:20;stroke-linecap:round;stroke-miterlimit:10;}
	.st16{fill:none;stroke:url(#SVGID_12_);stroke-width:20;stroke-linecap:round;stroke-miterlimit:10;}
	.st17{fill:none;stroke:url(#SVGID_13_);stroke-width:20;stroke-linecap:round;stroke-miterlimit:10;}
	.st18{fill:none;stroke:url(#SVGID_14_);stroke-width:20;stroke-linecap:round;stroke-miterlimit:10;}
	.st19{fill:none;stroke:url(#SVGID_15_);stroke-width:20;stroke-linecap:round;stroke-miterlimit:10;}
	.st20{fill:url(#SVGID_16_);}
	.st21{opacity:0.2;fill:none;stroke:url(#SVGID_17_);stroke-width:10;stroke-linecap:round;stroke-miterlimit:10;}
	.st22{fill:url(#SVGID_18_);}
	.st23{opacity:0.4;}
	.st24{fill:url(#SVGID_19_);}
	.st25{opacity:0.1;fill:none;stroke:url(#SVGID_20_);stroke-width:30;stroke-linecap:round;stroke-miterlimit:10;}
	.st26{fill:none;stroke:url(#SVGID_21_);stroke-width:20;stroke-miterlimit:10;}
	.st27{fill:url(#SVGID_22_);}
	.st28{fill:url(#SVGID_23_);}
	.st29{fill:url(#SVGID_24_);}
	.st30{opacity:0.2;}
	.st31{fill:url(#SVGID_25_);}
	.st32{fill:url(#SVGID_26_);}
	.st33{fill:url(#SVGID_27_);}
	.st34{fill:url(#SVGID_28_);}
	.st35{fill:url(#SVGID_29_);}
	.st36{fill:url(#SVGID_30_);}
	.st37{fill:url(#SVGID_31_);}
	.st38{fill:url(#SVGID_32_);}
	.st39{fill:url(#SVGID_33_);}
	.st40{fill:url(#SVGID_34_);}
	.st41{fill:url(#SVGID_35_);}
	.st42{fill:url(#SVGID_36_);}
	.st43{fill:url(#SVGID_37_);}
	.st44{opacity:0.1;}
	.st45{fill:url(#SVGID_38_);}
	.st46{fill:url(#SVGID_39_);}
	.st47{fill:url(#SVGID_40_);}
	.st48{fill:url(#SVGID_41_);}
	.st49{fill:url(#SVGID_42_);}
	.st50{fill:url(#SVGID_43_);}
	.st51{fill:none;}
	.st52{fill:url(#SVGID_44_);}
	.st53{fill:url(#SVGID_45_);}
	.st54{fill:url(#SVGID_46_);}
	.st55{fill:url(#SVGID_47_);}
	.st56{fill:url(#SVGID_48_);}
	.st57{opacity:0.1;fill:#020203;}
	.st58{opacity:0.8;}
	.st59{fill:none;stroke:url(#SVGID_49_);stroke-width:20;stroke-linecap:round;stroke-miterlimit:10;}
	.st60{fill:none;stroke:url(#SVGID_50_);stroke-width:20;stroke-linecap:round;stroke-miterlimit:10;}
	.st61{fill:none;stroke:url(#SVGID_51_);stroke-width:20;stroke-linecap:round;stroke-miterlimit:10;}
	.st62{fill:none;stroke:url(#SVGID_52_);stroke-width:20;stroke-linecap:round;stroke-miterlimit:10;}
	.st63{fill:none;stroke:url(#SVGID_53_);stroke-width:20;stroke-linecap:round;stroke-miterlimit:10;}
	.st64{fill:none;stroke:url(#SVGID_54_);stroke-width:20;stroke-linecap:round;stroke-miterlimit:10;}
	.st65{fill:none;stroke:url(#SVGID_55_);stroke-width:20;stroke-linecap:round;stroke-miterlimit:10;}
	.st66{fill:none;stroke:url(#SVGID_56_);stroke-width:20;stroke-linecap:round;stroke-miterlimit:10;}
	.st67{opacity:0.3;fill:none;stroke:url(#SVGID_57_);stroke-width:30;stroke-linecap:round;stroke-miterlimit:10;}
	.st68{opacity:0.25;fill:none;stroke:url(#SVGID_58_);stroke-width:20;stroke-linecap:round;stroke-miterlimit:10;}
	.st69{fill:url(#SVGID_59_);}
	.st70{fill:none;stroke:url(#SVGID_60_);stroke-width:82;stroke-linecap:round;stroke-linejoin:round;stroke-miterlimit:10;}
	.st71{fill:url(#SVGID_61_);}
	.st72{fill:url(#SVGID_62_);}
	.st73{fill:url(#SVGID_63_);}
	.st74{fill:url(#SVGID_64_);}
	.st75{fill:url(#SVGID_65_);}
	.st76{fill:url(#SVGID_66_);}
	.st77{fill:url(#SVGID_67_);}
	.st78{fill:url(#SVGID_68_);}
	.st79{fill:url(#SVGID_69_);}
	.st80{fill:url(#SVGID_70_);}
	.st81{fill:url(#SVGID_71_);}
	.st82{fill:url(#SVGID_72_);}
	.st83{fill:url(#SVGID_73_);}
	.st84{fill:url(#SVGID_74_);}
	.st85{fill:url(#SVGID_75_);}
	.st86{opacity:0.2;fill:none;stroke:url(#SVGID_76_);stroke-width:10;stroke-linecap:round;stroke-miterlimit:10;}
	.st87{fill:none;stroke:url(#SVGID_77_);stroke-width:20;stroke-linecap:round;stroke-linejoin:round;stroke-miterlimit:10;}
	.st88{fill:none;stroke:url(#SVGID_78_);stroke-width:20;stroke-linecap:round;stroke-linejoin:round;stroke-miterlimit:10;}
	
		.st89{fill:none;stroke:url(#SVGID_79_);stroke-width:20;stroke-linecap:round;stroke-linejoin:round;stroke-miterlimit:10;stroke-dasharray:0,70;}
	.st90{fill:none;stroke:url(#SVGID_80_);stroke-width:20;stroke-linecap:round;stroke-linejoin:round;}
	.st91{fill:none;stroke:url(#SVGID_81_);stroke-width:20;stroke-linecap:round;stroke-linejoin:round;stroke-dasharray:0,70.5201;}
	.st92{fill:none;stroke:url(#SVGID_82_);stroke-width:20;stroke-linecap:round;stroke-linejoin:round;}
	.st93{fill:none;stroke:url(#SVGID_83_);stroke-width:20;stroke-linecap:round;stroke-linejoin:round;stroke-miterlimit:10;}
	.st94{fill:none;stroke:url(#SVGID_84_);stroke-width:20;stroke-linecap:round;stroke-linejoin:round;stroke-miterlimit:10;}
	.st95{fill:url(#SVGID_85_);}
	.st96{fill:none;stroke:url(#SVGID_86_);stroke-width:20;stroke-linecap:round;stroke-linejoin:round;stroke-miterlimit:10;}
	.st97{fill:url(#SVGID_87_);}
	.st98{fill:url(#SVGID_88_);}
	.st99{fill:url(#SVGID_89_);}
	.st100{fill:url(#SVGID_90_);}
	.st101{fill:url(#SVGID_91_);}
	.st102{fill:url(#SVGID_92_);}
	.st103{fill:none;stroke:url(#SVGID_93_);stroke-width:20;stroke-linecap:round;stroke-linejoin:round;stroke-miterlimit:10;}
	.st104{fill:none;stroke:url(#SVGID_94_);stroke-width:20;stroke-linecap:round;stroke-linejoin:round;stroke-miterlimit:10;}
	.st105{fill:url(#SVGID_95_);}
	.st106{fill:url(#SVGID_96_);}
	.st107{fill:none;stroke:url(#SVGID_97_);stroke-width:80;stroke-linecap:round;stroke-linejoin:round;stroke-miterlimit:10;}
	.st108{opacity:0.4;fill:none;stroke:url(#SVGID_98_);stroke-width:50;stroke-linecap:round;stroke-miterlimit:10;}
	.st109{opacity:0.4;fill:none;stroke:url(#SVGID_99_);stroke-width:50;stroke-linecap:round;stroke-miterlimit:10;}
	.st110{fill:url(#SVGID_100_);}
	.st111{opacity:0.2;fill:url(#SVGID_101_);}
	.st112{fill:url(#SVGID_102_);}
	.st113{fill:url(#SVGID_103_);}
	.st114{fill:url(#SVGID_104_);}
	.st115{fill:url(#SVGID_105_);}
	.st116{fill:url(#SVGID_106_);}
	.st117{fill:url(#SVGID_107_);}
	.st118{fill:url(#SVGID_108_);}
	.st119{fill:url(#SVGID_109_);}
	.st120{fill:url(#SVGID_110_);}
	.st121{fill:url(#SVGID_111_);}
	.st122{fill:url(#SVGID_112_);}
	.st123{fill:url(#SVGID_113_);}
	.st124{fill:url(#SVGID_114_);}
	.st125{fill:url(#SVGID_115_);}
	.st126{fill:url(#SVGID_116_);}
	.st127{fill:url(#SVGID_117_);}
	.st128{fill:url(#SVGID_118_);}
	.st129{fill:url(#SVGID_119_);}
	.st130{fill:url(#SVGID_120_);}
	.st131{fill:none;stroke:url(#SVGID_121_);stroke-width:24;stroke-linecap:round;stroke-linejoin:round;stroke-miterlimit:10;}
	
		.st132{fill:none;stroke:url(#SVGID_122_);stroke-width:24;stroke-linecap:round;stroke-linejoin:round;stroke-miterlimit:10;stroke-dasharray:0,58;}
	.st133{fill:none;stroke:#6B95C5;stroke-width:24;stroke-linecap:round;stroke-linejoin:round;stroke-miterlimit:10;}
	.st134{opacity:0.3;fill:url(#SVGID_123_);}
	.st135{opacity:0.3;fill:url(#SVGID_124_);}
	.st136{opacity:0.3;fill:url(#SVGID_125_);}
	.st137{opacity:0.3;fill:url(#SVGID_126_);}
	.st138{opacity:0.2;fill:url(#SVGID_127_);}
	.st139{fill:url(#SVGID_128_);}
	.st140{fill:url(#SVGID_129_);}
	.st141{fill:url(#SVGID_130_);}
	.st142{fill:url(#SVGID_131_);}
	.st143{fill:url(#SVGID_132_);}
	.st144{fill:url(#SVGID_133_);}
	.st145{fill:url(#SVGID_134_);}
	.st146{fill:url(#SVGID_135_);}
	.st147{fill:url(#SVGID_136_);}
	.st148{fill:url(#SVGID_137_);}
	.st149{fill:url(#SVGID_138_);}
	.st150{fill:url(#SVGID_139_);}
	.st151{fill:url(#SVGID_140_);}
	.st152{fill:url(#SVGID_141_);}
	.st153{fill:url(#SVGID_142_);}
	.st154{fill:url(#SVGID_143_);}
	.st155{fill:url(#SVGID_144_);}
	.st156{fill:url(#SVGID_145_);}
	.st157{fill:url(#SVGID_146_);}
	.st158{fill:url(#SVGID_147_);}
	.st159{fill:url(#SVGID_148_);}
	.st160{fill:url(#SVGID_149_);}
	.st161{fill:url(#SVGID_150_);}
	.st162{fill:url(#SVGID_151_);}
	.st163{fill:url(#SVGID_152_);}
	.st164{fill:url(#SVGID_153_);}
	
		.st165{opacity:0.4;fill:none;stroke:url(#SVGID_154_);stroke-width:20;stroke-linecap:round;stroke-linejoin:round;stroke-miterlimit:10;}
	
		.st166{opacity:0.4;fill:none;stroke:url(#SVGID_155_);stroke-width:20;stroke-linecap:round;stroke-linejoin:round;stroke-miterlimit:10;}
	.st167{fill:url(#SVGID_156_);}
	.st168{fill:none;stroke:url(#SVGID_157_);stroke-width:40;stroke-miterlimit:10;}
	.st169{fill:url(#SVGID_158_);}
	.st170{fill:url(#SVGID_159_);}
	
		.st171{opacity:0.2;fill:none;stroke:url(#SVGID_160_);stroke-width:24;stroke-linecap:round;stroke-linejoin:round;stroke-miterlimit:10;}
	
		.st172{opacity:0.4;fill:none;stroke:url(#SVGID_161_);stroke-width:24;stroke-linecap:round;stroke-linejoin:round;stroke-miterlimit:10;}
	
		.st173{opacity:0.2;fill:none;stroke:url(#SVGID_162_);stroke-width:22;stroke-linecap:round;stroke-linejoin:round;stroke-miterlimit:10;stroke-dasharray:0,44;}
	.st174{fill:none;stroke:url(#SVGID_163_);stroke-width:22;stroke-linecap:round;stroke-linejoin:round;}
	.st175{fill:none;stroke:url(#SVGID_164_);stroke-width:22;stroke-linecap:round;stroke-linejoin:round;stroke-dasharray:0,41.452;}
	.st176{fill:none;stroke:url(#SVGID_165_);stroke-width:22;stroke-linecap:round;stroke-linejoin:round;}
	
		.st177{opacity:0.4;fill:none;stroke:url(#SVGID_166_);stroke-width:24;stroke-linecap:round;stroke-linejoin:round;stroke-miterlimit:10;}
	
		.st178{opacity:0.2;fill:none;stroke:url(#SVGID_167_);stroke-width:24;stroke-linecap:round;stroke-linejoin:round;stroke-miterlimit:10;}
	.st179{fill:url(#SVGID_168_);}
	.st180{fill:none;stroke:url(#SVGID_169_);stroke-width:16;stroke-linecap:round;stroke-linejoin:round;stroke-miterlimit:10;}
	.st181{fill:none;stroke:url(#SVGID_170_);stroke-width:16;stroke-linecap:round;stroke-linejoin:round;stroke-miterlimit:10;}
	.st182{fill:url(#SVGID_171_);}
	.st183{fill:url(#SVGID_172_);}
	.st184{opacity:0.3;fill:none;stroke:url(#SVGID_173_);stroke-width:14;stroke-linecap:round;stroke-miterlimit:10;}
	
		.st185{opacity:0.7;fill:none;stroke:url(#SVGID_174_);stroke-width:14;stroke-linecap:round;stroke-miterlimit:10;stroke-dasharray:0,30;}
	.st186{opacity:0.7;fill:none;stroke:url(#SVGID_175_);stroke-width:14;stroke-linecap:round;stroke-miterlimit:10;}
	.st187{opacity:0.2;fill:none;stroke:url(#SVGID_176_);stroke-width:14;stroke-linecap:round;stroke-miterlimit:10;}
	.st188{fill:url(#SVGID_177_);}
	.st189{fill:none;stroke:url(#SVGID_178_);stroke-width:20;stroke-miterlimit:10;}
	.st190{opacity:0.4;fill:url(#SVGID_179_);}
	.st191{opacity:0.6;}
	.st192{fill:url(#SVGID_180_);}
	.st193{fill:url(#SVGID_181_);}
	.st194{fill:url(#SVGID_182_);}
	.st195{fill:url(#SVGID_183_);}
	.st196{fill:url(#SVGID_184_);}
	.st197{fill:url(#SVGID_185_);}
	.st198{fill:url(#SVGID_186_);}
	.st199{fill:none;stroke:url(#SVGID_187_);stroke-width:20;stroke-linecap:round;stroke-miterlimit:10;}
	.st200{fill:none;stroke:url(#SVGID_188_);stroke-width:20;stroke-linecap:round;stroke-miterlimit:10;}
	.st201{fill:none;stroke:url(#SVGID_189_);stroke-width:20;stroke-linecap:round;stroke-miterlimit:10;}
	.st202{fill:none;stroke:url(#SVGID_190_);stroke-width:20;stroke-linecap:round;stroke-miterlimit:10;}
	.st203{fill:none;stroke:url(#SVGID_191_);stroke-width:20;stroke-linecap:round;stroke-miterlimit:10;}
	.st204{fill:none;stroke:url(#SVGID_192_);stroke-width:20;stroke-linecap:round;stroke-miterlimit:10;}
	.st205{opacity:0.3;fill:none;stroke:url(#SVGID_193_);stroke-width:20;stroke-linecap:round;stroke-miterlimit:10;}
	.st206{opacity:0.4;fill:none;stroke:url(#SVGID_194_);stroke-width:14;stroke-linecap:round;stroke-miterlimit:10;}
	
		.st207{opacity:0.4;fill:none;stroke:url(#SVGID_195_);stroke-width:24;stroke-linecap:round;stroke-linejoin:round;stroke-miterlimit:10;}
	.st208{fill:url(#SVGID_196_);}
	.st209{fill:url(#SVGID_197_);}
	.st210{fill:url(#SVGID_198_);}
	.st211{fill:url(#SVGID_199_);}
	.st212{fill:url(#SVGID_200_);}
	.st213{fill:url(#SVGID_201_);}
	.st214{fill:url(#SVGID_202_);}
	.st215{fill:url(#SVGID_203_);}
	.st216{fill:url(#SVGID_204_);}
	.st217{fill:url(#SVGID_205_);}
	.st218{fill:url(#SVGID_206_);}
	.st219{fill:url(#SVGID_207_);}
	.st220{fill:url(#SVGID_208_);}
	.st221{fill:url(#SVGID_209_);}
	.st222{fill:url(#SVGID_210_);}
	.st223{fill:url(#SVGID_211_);}
	.st224{fill:url(#SVGID_212_);}
	.st225{fill:url(#SVGID_213_);}
	.st226{fill:url(#SVGID_214_);}
	.st227{fill:url(#SVGID_215_);}
	.st228{fill:url(#SVGID_216_);}
	.st229{fill:url(#SVGID_217_);}
	.st230{fill:none;stroke:url(#SVGID_218_);stroke-width:16;stroke-linecap:round;stroke-linejoin:round;stroke-miterlimit:10;}
	.st231{fill:url(#SVGID_219_);}
	.st232{fill:url(#SVGID_220_);}
	.st233{fill:url(#SVGID_221_);}
	.st234{fill:url(#SVGID_222_);}
	.st235{fill:url(#SVGID_223_);}
	.st236{fill:url(#SVGID_224_);}
	.st237{fill:url(#SVGID_225_);}
	.st238{fill:url(#SVGID_226_);}
	.st239{opacity:0.4;fill:url(#SVGID_227_);}
	.st240{fill:url(#SVGID_228_);}
	.st241{fill:url(#SVGID_229_);}
	.st242{fill:url(#SVGID_230_);}
	.st243{fill:url(#SVGID_231_);}
	.st244{fill:url(#SVGID_232_);}
	.st245{fill:url(#SVGID_233_);}
	.st246{fill:url(#SVGID_234_);}
	.st247{fill:url(#SVGID_235_);}
	.st248{fill:url(#SVGID_236_);}
	.st249{fill:url(#SVGID_237_);}
	.st250{fill:url(#SVGID_238_);}
	.st251{fill:url(#SVGID_239_);}
	.st252{fill:url(#SVGID_240_);}
</style>
<linearGradient id="SVGID_1_" gradientUnits="userSpaceOnUse" x1="-1092.17" y1="2133.3679" x2="64.9025" y2="2133.3679" gradientTransform="matrix(0 1 -1 0 3111.0188 1155.7172)">
	<stop  offset="1.071236e-02" style="stop-color:#BDE0DD"/>
	<stop  offset="0.6303" style="stop-color:#A7BFDA"/>
	<stop  offset="1" style="stop-color:#9EAFD7"/>
</linearGradient>
<circle class="st0" cx="977.7" cy="642.1" r="578.5"/>
<g class="st44">
	
		<linearGradient id="SVGID_2_" gradientUnits="userSpaceOnUse" x1="1094.4657" y1="1394.8035" x2="1016.9098" y2="1293.4657" gradientTransform="matrix(1.0023 5.140288e-02 4.066972e-03 1.2964 -55.9284 -929.9316)">
		<stop  offset="1.071236e-02" style="stop-color:#9BD2CD"/>
		<stop  offset="0.3244" style="stop-color:#84B4CB"/>
		<stop  offset="0.7812" style="stop-color:#688BC2"/>
		<stop  offset="1" style="stop-color:#5E7ABC"/>
	</linearGradient>
	<path class="st1" d="M1014.7,961c-5.1,0-9.5-4-10-9.2l-14-168.3c-0.5-5.5,3.6-10.3,9.1-10.8c5.5-0.5,10.3,3.6,10.8,9.1l14,168.3
		c0.5,5.5-3.6,10.3-9.1,10.8C1015.2,961,1015,961,1014.7,961z"/>
</g>
<g class="st30">
	
		<linearGradient id="SVGID_3_" gradientUnits="userSpaceOnUse" x1="689.019" y1="442.7538" x2="873.1653" y2="442.7538" gradientTransform="matrix(0.8851 -0.1032 -0.1287 0.8828 183.6041 168.5522)">
		<stop  offset="1.071236e-02" style="stop-color:#9BD2CD"/>
		<stop  offset="0.3244" style="stop-color:#84B4CB"/>
		<stop  offset="0.7812" style="stop-color:#688BC2"/>
		<stop  offset="1" style="stop-color:#5E7ABC"/>
	</linearGradient>
	<path style="fill:url(#SVGID_3_);" d="M878.9,551.1c-2.6,0-5.2-1-7.2-3L749.9,423.4c-3.9-4-3.8-10.3,0.2-14.1
		c4-3.9,10.3-3.8,14.1,0.2L886,534.1c3.9,4,3.8,10.3-0.2,14.1C883.9,550.2,881.4,551.1,878.9,551.1z"/>
</g>
<g>
	<linearGradient id="SVGID_4_" gradientUnits="userSpaceOnUse" x1="873.8366" y1="754.2865" x2="1091.7223" y2="536.4008">
		<stop  offset="1.239782e-02" style="stop-color:#EF775E"/>
		<stop  offset="0.3394" style="stop-color:#F59F6E"/>
		<stop  offset="0.786" style="stop-color:#FDCD82"/>
		<stop  offset="1" style="stop-color:#FFDD89"/>
	</linearGradient>
	<path style="fill:url(#SVGID_4_);" d="M982.8,541.3c27.8,0,53.9,10.8,73.6,30.5c40.6,40.6,40.6,106.6,0,147.2
		c-19.7,19.7-45.8,30.5-73.6,30.5s-53.9-10.8-73.6-30.5c-40.6-40.6-40.6-106.6,0-147.2C928.8,552.1,955,541.3,982.8,541.3
		 M982.8,491.3c-39.4,0-78.9,15-108.9,45.1c-60.2,60.2-60.2,157.7,0,217.9c30.1,30.1,69.5,45.1,108.9,45.1s78.9-15,108.9-45.1
		c60.2-60.2,60.2-157.7,0-217.9C1061.6,506.3,1022.2,491.3,982.8,491.3L982.8,491.3z"/>
</g>
<linearGradient id="SVGID_5_" gradientUnits="userSpaceOnUse" x1="644.7443" y1="417.3519" x2="773.3251" y2="288.7711">
	<stop  offset="1.071236e-02" style="stop-color:#9BD2CD"/>
	<stop  offset="0.3244" style="stop-color:#84B4CB"/>
	<stop  offset="0.7812" style="stop-color:#688BC2"/>
	<stop  offset="1" style="stop-color:#5E7ABC"/>
</linearGradient>
<path class="st6" d="M709,286.1c17.9,0,34.7,7,47.3,19.6c26.1,26.1,26.1,68.5,0,94.6C743.7,413,726.9,420,709,420
	c-17.9,0-34.7-7-47.3-19.6s-19.6-29.4-19.6-47.3s7-34.7,19.6-47.3C674.4,293.1,691.2,286.1,709,286.1 M709,262.1
	c-23.3,0-46.5,8.9-64.3,26.6c-35.5,35.5-35.5,93.1,0,128.6c17.8,17.8,41,26.6,64.3,26.6c23.3,0,46.5-8.9,64.3-26.6
	c35.5-35.5,35.5-93.1,0-128.6C755.6,271,732.3,262.1,709,262.1L709,262.1z"/>
<linearGradient id="SVGID_6_" gradientUnits="userSpaceOnUse" x1="958.058" y1="1089.25" x2="1085.4043" y2="961.9037">
	<stop  offset="1.071236e-02" style="stop-color:#272A5B"/>
	<stop  offset="1" style="stop-color:#005B8E"/>
</linearGradient>
<circle class="st8" cx="1021.7" cy="1025.6" r="90"/>
<g class="st30">
	
		<linearGradient id="SVGID_7_" gradientUnits="userSpaceOnUse" x1="1128.8403" y1="-547.9593" x2="1194.3901" y2="-547.9593" gradientTransform="matrix(0.7071 -0.7071 0.7071 0.7071 380.8464 2209.6116)">
		<stop  offset="1.071236e-02" style="stop-color:#9BD2CD"/>
		<stop  offset="0.3244" style="stop-color:#84B4CB"/>
		<stop  offset="0.7812" style="stop-color:#688BC2"/>
		<stop  offset="1" style="stop-color:#5E7ABC"/>
	</linearGradient>
	<path class="st10" d="M870.3,1038.9c-1.1,0-2.3-0.2-3.4-0.5c-40.8-11.9-79.2-30-114.4-53.8c-5.5-3.7-6.9-11.2-3.2-16.7
		c3.7-5.5,11.2-6.9,16.7-3.2c33.1,22.4,69.3,39.4,107.7,50.7c6.4,1.9,10,8.5,8.1,14.9C880.3,1035.5,875.5,1038.9,870.3,1038.9z"/>
</g>
<g class="st23">
	
		<linearGradient id="SVGID_8_" gradientUnits="userSpaceOnUse" x1="4245.083" y1="2075.7585" x2="4455.6455" y2="2075.7585" gradientTransform="matrix(-0.7071 0.7071 -0.7071 -0.7071 5348.2827 -905.6359)">
		<stop  offset="1.239782e-02" style="stop-color:#EF775E"/>
		<stop  offset="0.3394" style="stop-color:#F59F6E"/>
		<stop  offset="0.786" style="stop-color:#FDCD82"/>
		<stop  offset="1" style="stop-color:#FFDD89"/>
	</linearGradient>
	<path style="fill:url(#SVGID_8_);" d="M864.7,888.8c-1.8,0-3.7-0.4-5.4-1.3c-25.7-13-49.1-30-69.7-50.6
		c-42.5-42.5-69.2-96.2-77.4-155.6c-7.9-57.4,2.8-116.9,30.3-167.6c3.2-5.8,10.4-8,16.3-4.8c5.8,3.2,8,10.4,4.8,16.3
		c-25,46.2-34.8,100.5-27.6,152.9c7.5,54.1,31.9,103.2,70.6,141.9c18.7,18.7,40.1,34.3,63.5,46.1c5.9,3,8.3,10.2,5.3,16.1
		C873.3,886.4,869.1,888.8,864.7,888.8z"/>
</g>
<g class="st58">
	
		<linearGradient id="SVGID_9_" gradientUnits="userSpaceOnUse" x1="3910.7163" y1="2057.2561" x2="4106.6182" y2="2057.2561" gradientTransform="matrix(-0.7071 0.7071 -0.7071 -0.7071 5348.2827 -905.6359)">
		<stop  offset="1.071236e-02" style="stop-color:#9BD2CD"/>
		<stop  offset="0.3244" style="stop-color:#84B4CB"/>
		<stop  offset="0.7812" style="stop-color:#688BC2"/>
		<stop  offset="1" style="stop-color:#5E7ABC"/>
	</linearGradient>
	<path style="fill:url(#SVGID_9_);" d="M1219.3,562.2L1219.3,562.2L1219.3,562.2c-2-5.7,1.1-12,6.8-14l0,0c5.7-2,12,1.1,14,6.8l0,0
		c2,5.8-1.1,12-6.8,14l0,0c-1.2,0.4-2.4,0.6-3.6,0.6l0,0C1225.1,569.6,1220.8,566.7,1219.3,562.2z M1202.3,523.7
		c-2.9-5.3-1-12,4.4-14.9l0,0c5.3-2.9,12-1,14.9,4.4l0,0c2.9,5.3,1,12-4.4,14.9l0,0c-1.7,0.9-3.5,1.4-5.3,1.4l0,0
		C1208,529.4,1204.3,527.3,1202.3,523.7z M1179,488.6c-3.8-4.8-3-11.7,1.8-15.5l0,0c4.8-3.8,11.7-3,15.5,1.8l0,0
		c3.8,4.8,3,11.7-1.8,15.4l0,0c-2,1.6-4.4,2.4-6.8,2.4l0,0C1184.4,492.8,1181.1,491.3,1179,488.6z M1150.1,457.9
		c-4.5-4.1-4.9-11-0.8-15.5l0,0c4.1-4.5,11-4.9,15.5-0.8l0,0c4.5,4.1,4.9,11,0.8,15.5l0,0c-2.2,2.4-5.2,3.6-8.2,3.6l0,0
		C1154.9,460.7,1152.2,459.8,1150.1,457.9z M1116.6,432.4c-5.1-3.2-6.7-10-3.4-15.2l0,0c3.3-5.1,10.1-6.7,15.2-3.4l0,0
		c5.1,3.2,6.6,10,3.4,15.2l0,0c-2.1,3.3-5.7,5.1-9.3,5.1l0,0C1120.5,434.1,1118.4,433.6,1116.6,432.4z M860.1,412.9
		c-2.6-5.5-0.3-12,5.2-14.7l0,0c5.5-2.6,12.1-0.3,14.7,5.2l0,0c2.6,5.5,0.3,12.1-5.2,14.7l0,0c-1.5,0.7-3.1,1.1-4.7,1.1l0,0
		C865.9,419.2,862,416.9,860.1,412.9z M1079.3,413c-5.6-2.3-8.2-8.8-5.9-14.4l0,0c2.3-5.6,8.8-8.2,14.4-5.9l0,0
		c5.6,2.3,8.2,8.8,5.9,14.4l0,0c-1.8,4.2-5.8,6.8-10.2,6.8l0,0C1082.1,413.8,1080.7,413.6,1079.3,413z M900.6,395.7
		c-1.7-5.8,1.7-11.9,7.6-13.6l0,0c5.8-1.7,11.9,1.7,13.6,7.6l0,0c1.7,5.8-1.7,11.9-7.6,13.6l0,0c-1,0.3-2,0.4-3,0.4l0,0
		C906.3,403.7,901.9,400.5,900.6,395.7z M1039.2,400.1L1039.2,400.1L1039.2,400.1c-5.9-1.4-9.6-7.3-8.2-13.2l0,0
		c1.4-5.9,7.3-9.6,13.2-8.2l0,0c5.9,1.4,9.6,7.3,8.2,13.2l0,0c-1.2,5.1-5.7,8.5-10.7,8.5l0,0
		C1040.9,400.4,1040.1,400.3,1039.2,400.1z M943.3,385.4c-0.7-6,3.7-11.5,9.7-12.1l0,0c6-0.7,11.5,3.7,12.1,9.7l0,0
		c0.7,6-3.7,11.5-9.7,12.1l0,0c-0.4,0-0.8,0.1-1.2,0.1l0,0C948.7,395.2,943.9,391.1,943.3,385.4z M997.6,394.1
		c-6.1-0.4-10.7-5.6-10.3-11.6l0,0c0.4-6.1,5.6-10.7,11.6-10.3l0,0c6.1,0.4,10.7,5.6,10.3,11.6l0,0c-0.3,5.9-5.2,10.4-11,10.4l0,0
		C998,394.1,997.8,394.1,997.6,394.1z"/>
</g>
<g class="st30">
	<g>
		<linearGradient id="SVGID_10_" gradientUnits="userSpaceOnUse" x1="594.4817" y1="772.4525" x2="759.6746" y2="607.2596">
			<stop  offset="1.071236e-02" style="stop-color:#9BD2CD"/>
			<stop  offset="0.3244" style="stop-color:#84B4CB"/>
			<stop  offset="0.7812" style="stop-color:#688BC2"/>
			<stop  offset="1" style="stop-color:#5E7ABC"/>
		</linearGradient>
		<path style="fill:url(#SVGID_10_);" d="M602.3,775.7c-0.7,0-1.4-0.1-2.1-0.2c-0.7-0.1-1.4-0.4-2.1-0.6c-0.7-0.3-1.3-0.6-1.9-1
			c-0.6-0.4-1.2-0.9-1.7-1.4c-2-2.1-3.2-4.9-3.2-7.8c0-0.7,0.1-1.4,0.2-2.2c0.1-0.7,0.4-1.4,0.6-2c0.3-0.7,0.6-1.3,1-1.9
			c0.4-0.6,0.9-1.2,1.4-1.7c0.5-0.5,1.1-1,1.7-1.4c0.6-0.4,1.2-0.7,1.9-1c0.7-0.3,1.4-0.5,2.1-0.6c1.4-0.3,2.9-0.3,4.3,0
			c0.7,0.1,1.4,0.4,2.1,0.6c0.7,0.3,1.3,0.6,1.9,1c0.6,0.4,1.2,0.9,1.7,1.4c0.5,0.5,1,1.1,1.4,1.7c0.4,0.6,0.7,1.2,1,1.9
			c0.3,0.7,0.5,1.3,0.6,2c0.1,0.7,0.2,1.4,0.2,2.2c0,2.9-1.2,5.7-3.2,7.8c-0.5,0.5-1.1,1-1.7,1.4c-0.6,0.4-1.2,0.7-1.9,1
			c-0.7,0.3-1.4,0.5-2.1,0.6C603.7,775.6,603,775.7,602.3,775.7z"/>
	</g>
	<g>
		<linearGradient id="SVGID_11_" gradientUnits="userSpaceOnUse" x1="522.3424" y1="697.4366" x2="671.54" y2="548.239">
			<stop  offset="1.071236e-02" style="stop-color:#9BD2CD"/>
			<stop  offset="0.3244" style="stop-color:#84B4CB"/>
			<stop  offset="0.7812" style="stop-color:#688BC2"/>
			<stop  offset="1" style="stop-color:#5E7ABC"/>
		</linearGradient>
		<path style="fill:url(#SVGID_11_);" d="M581,726.8c-1.2-6,2.6-11.8,8.6-13l0,0c5.9-1.2,11.8,2.6,13,8.6l0,0c1.2,6-2.6,11.8-8.6,13
			l0,0c-0.8,0.2-1.5,0.2-2.2,0.2l0,0C586.7,735.6,582.1,732,581,726.8z M574.7,684.7L574.7,684.7L574.7,684.7
			c-0.6-6,3.8-11.4,9.9-12l0,0c6-0.6,11.4,3.8,12,9.9l0,0c0.6,6-3.8,11.4-9.9,12l0,0c-0.4,0-0.7,0-1.1,0l0,0
			C580,694.6,575.2,690.4,574.7,684.7z M572.6,642.2c0-6.1,4.9-11,11-11l0,0c6.1,0,11,4.9,11,11v0c0,6.1-4.9,11-11,11l0,0
			C577.5,653.2,572.6,648.3,572.6,642.2z M584.7,611.8c-6-0.7-10.4-6.1-9.8-12.1l0,0c0.6-6,6.1-10.4,12.1-9.8l0,0
			c6,0.6,10.4,6.1,9.8,12.1l0,0c-0.6,5.6-5.4,9.8-10.9,9.8l0,0C585.5,611.8,585.1,611.8,584.7,611.8z M590.1,570.7
			c-5.9-1.3-9.7-7.1-8.4-13.1l0,0c1.3-5.9,7.1-9.7,13.1-8.4l0,0c5.9,1.3,9.7,7.1,8.4,13.1l0,0c-1.1,5.2-5.7,8.7-10.7,8.7l0,0
			C591.7,570.9,590.9,570.9,590.1,570.7z M599.8,530.4c-5.8-1.9-8.9-8.1-7-13.9l0,0c1.9-5.8,8.1-8.9,13.9-7l0,0
			c5.8,1.9,8.9,8.1,7,13.9l0,0c-1.5,4.6-5.8,7.6-10.5,7.6l0,0C602.1,530.9,600.9,530.8,599.8,530.4z"/>
	</g>
	<g>
		<linearGradient id="SVGID_12_" gradientUnits="userSpaceOnUse" x1="460.7029" y1="638.6415" x2="625.887" y2="473.4574">
			<stop  offset="1.071236e-02" style="stop-color:#9BD2CD"/>
			<stop  offset="0.3244" style="stop-color:#84B4CB"/>
			<stop  offset="0.7812" style="stop-color:#688BC2"/>
			<stop  offset="1" style="stop-color:#5E7ABC"/>
		</linearGradient>
		<path style="fill:url(#SVGID_12_);" d="M618.1,492.2c-0.7,0-1.4-0.1-2.2-0.2c-0.7-0.1-1.4-0.4-2.1-0.6c-0.7-0.3-1.3-0.6-1.9-1
			c-0.6-0.4-1.2-0.9-1.7-1.4c-0.5-0.5-1-1.1-1.4-1.7c-0.4-0.6-0.7-1.2-1-1.9c-0.3-0.7-0.5-1.4-0.6-2.1c-0.1-0.7-0.2-1.4-0.2-2.1
			c0-0.7,0.1-1.4,0.2-2.1c0.1-0.7,0.4-1.4,0.6-2.1c0.3-0.7,0.6-1.3,1-1.9c0.4-0.6,0.9-1.2,1.4-1.7c0.5-0.5,1.1-1,1.7-1.4
			c0.6-0.4,1.2-0.7,1.9-1c0.7-0.3,1.4-0.5,2.1-0.6c1.4-0.3,2.9-0.3,4.3,0c0.7,0.1,1.4,0.4,2.1,0.6c0.7,0.3,1.3,0.6,1.9,1
			c0.6,0.4,1.2,0.9,1.7,1.4c0.5,0.5,1,1.1,1.4,1.7c0.4,0.6,0.7,1.2,1,1.9c0.3,0.7,0.5,1.4,0.6,2.1c0.1,0.7,0.2,1.4,0.2,2.1
			c0,0.7-0.1,1.4-0.2,2.1c-0.2,0.7-0.4,1.4-0.6,2.1c-0.3,0.7-0.6,1.3-1,1.9c-0.4,0.6-0.9,1.2-1.4,1.7c-0.5,0.5-1.1,1-1.7,1.4
			c-0.6,0.4-1.2,0.7-1.9,1c-0.7,0.3-1.4,0.5-2.1,0.6C619.5,492.2,618.8,492.2,618.1,492.2z"/>
	</g>
</g>
<g class="st23">
	
		<linearGradient id="SVGID_13_" gradientUnits="userSpaceOnUse" x1="857.4586" y1="1365.9698" x2="1165.3645" y2="1365.9698" gradientTransform="matrix(0.9968 -8.017017e-02 -8.017017e-02 -0.9968 87.4778 1706.7585)">
		<stop  offset="1.071236e-02" style="stop-color:#9BD2CD"/>
		<stop  offset="0.3244" style="stop-color:#84B4CB"/>
		<stop  offset="0.7812" style="stop-color:#688BC2"/>
		<stop  offset="1" style="stop-color:#5E7ABC"/>
	</linearGradient>
	<path style="fill:url(#SVGID_13_);" d="M1129.3,285.8c-1.5,0-3-0.3-4.5-0.9c-56.1-22.7-115.4-31.8-176.2-26.9
		c-34.5,2.8-68.3,10.1-100.5,21.7c-6.2,2.2-13.1-1-15.4-7.2c-2.2-6.2,1-13.1,7.2-15.4c34.2-12.3,70.1-20.1,106.7-23
		c64.6-5.2,127.5,4.4,187.1,28.6c6.1,2.5,9.1,9.5,6.6,15.6C1138.5,282.9,1134,285.8,1129.3,285.8z"/>
</g>
<g class="st23">
	
		<linearGradient id="SVGID_14_" gradientUnits="userSpaceOnUse" x1="1091.5806" y1="851.0515" x2="1371.8567" y2="851.0515" gradientTransform="matrix(0.9925 -0.122 -0.122 -0.9925 149.6987 1743.0607)">
		<stop  offset="1.239782e-02" style="stop-color:#EF775E"/>
		<stop  offset="0.3394" style="stop-color:#F59F6E"/>
		<stop  offset="0.786" style="stop-color:#FDCD82"/>
		<stop  offset="1" style="stop-color:#FFDD89"/>
	</linearGradient>
	<path style="fill:url(#SVGID_14_);" d="M1169.8,1008.5c-4.3,0-8.4-2.3-10.6-6.4c-3.1-5.9-0.9-13.1,5-16.2
		c68.4-36.4,123.9-91.9,160.4-160.6c37.3-70.3,51.9-149.3,42.2-228.6c-3.9-31.3-11.5-62-22.6-91.2c-2.4-6.2,0.7-13.1,6.9-15.5
		c6.2-2.4,13.1,0.7,15.5,6.9c11.8,31,19.9,63.6,24,96.8c10.4,84.2-5.1,168.2-44.8,242.8c-38.8,73-97.7,131.9-170.3,170.6
		C1173.6,1008,1171.7,1008.5,1169.8,1008.5z"/>
</g>
<linearGradient id="SVGID_15_" gradientUnits="userSpaceOnUse" x1="1560.6672" y1="375.2579" x2="1421.6763" y2="313.1754" gradientTransform="matrix(0.9879 -0.1554 0.1554 0.9879 -268.4654 218.6381)">
	<stop  offset="1.071236e-02" style="stop-color:#272A5B"/>
	<stop  offset="1" style="stop-color:#005B8E"/>
</linearGradient>
<path style="fill:url(#SVGID_15_);" d="M1286.5,272.1l31.3,117.8c3,11.3-7.3,21.6-18.6,18.5l-117.6-31.8c-11.3-3-15-17.2-6.7-25.4
	l86.4-86C1269.4,257,1283.5,260.8,1286.5,272.1z"/>
<g>
	
		<linearGradient id="SVGID_16_" gradientUnits="userSpaceOnUse" x1="1816.9052" y1="2488.6877" x2="1933.9633" y2="2488.6877" gradientTransform="matrix(0.6427 0.7661 -0.7661 0.6427 1937.0526 -2348.4778)">
		<stop  offset="1.071236e-02" style="stop-color:#9BD2CD"/>
		<stop  offset="0.3244" style="stop-color:#84B4CB"/>
		<stop  offset="0.7812" style="stop-color:#688BC2"/>
		<stop  offset="1" style="stop-color:#5E7ABC"/>
	</linearGradient>
	<path class="st20" d="M1232.6,757.5c-8.9,0-17.7-3.8-23.9-11.1l-35.2-41.9c-5.3-6.4-7.9-14.5-7.2-22.7c0.7-8.3,4.6-15.8,11-21.2
		l41.9-35.2c13.2-11,32.9-9.3,43.9,3.8l35.2,41.9c5.3,6.4,7.9,14.5,7.2,22.7s-4.6,15.8-11,21.1l-41.9,35.2
		C1246.7,755.2,1239.6,757.5,1232.6,757.5z M1239.3,634.1c-3.4,0-6.9,1.2-9.7,3.5l-41.9,35.2c-3.1,2.6-5,6.3-5.4,10.3
		c-0.4,4,0.9,8,3.5,11.1l35.2,41.9l0,0c5.4,6.4,14.9,7.2,21.3,1.9l41.9-35.2c3.1-2.6,5-6.3,5.4-10.3s-0.9-8-3.5-11.1l-35.2-41.9
		C1247.9,636,1243.6,634.1,1239.3,634.1z"/>
</g>
<g>
	<linearGradient id="SVGID_17_" gradientUnits="userSpaceOnUse" x1="588.6761" y1="883.3904" x2="739.3127" y2="883.3904">
		<stop  offset="1.071236e-02" style="stop-color:#272A5B"/>
		<stop  offset="1" style="stop-color:#005B8E"/>
	</linearGradient>
	<path style="fill:url(#SVGID_17_);" d="M677.2,961.6c-2,0-4-0.3-6-1l-69.1-22.5c-8-2.6-13.4-10-13.4-18.4V847
		c0-8.4,5.4-15.8,13.4-18.4l69.1-22.5c8-2.6,16.7,0.2,21.7,7l42.7,58.8c5,6.8,5,16,0,22.8l-42.7,58.8
		C689.1,958.7,683.3,961.6,677.2,961.6z M677.2,821.2c-0.3,0-0.7,0.1-1,0.2L607,843.8c-1.4,0.5-2.3,1.7-2.3,3.2v72.7
		c0,1.5,0.9,2.8,2.3,3.2l69.1,22.5c1.4,0.5,2.9,0,3.8-1.2l42.7-58.8c0.9-1.2,0.9-2.8,0-4l0,0l-42.7-58.8
		C679.3,821.7,678.3,821.2,677.2,821.2z"/>
</g>
</svg>
