<?xml version="1.0" encoding="UTF-8"?>
<svg width="163px" height="182px" viewBox="0 0 163 182" version="1.1" xmlns="http://www.w3.org/2000/svg" xmlns:xlink="http://www.w3.org/1999/xlink">
    <!-- Generator: Sketch 54.1 (76490) - https://sketchapp.com -->
    <title>Shape</title>
    <desc>Created with Sketch.</desc>
    <g id="Page-1" stroke="none" stroke-width="1" fill="none" fill-rule="evenodd">
        <g id="biotope-prototype-copy-3" transform="translate(-253.000000, -10383.000000)" fill="#1E083C" fill-rule="nonzero">
            <g id="07_footer" transform="translate(-1.000000, 10243.000000)">
                <path d="M370.734212,316.475732 C370.734212,312.564551 370.866906,299.803492 370.866906,283.937796 C370.866906,272.878212 367.074084,265.663518 362.816835,261.984356 C389.24495,259.045445 417,249.024424 417,203.482361 C417,190.533478 412.39996,179.960029 404.792201,171.651531 C406.019616,168.668426 410.088882,156.603425 403.631133,140.27369 C403.631133,140.27369 393.679124,137.091712 371.032772,152.427079 C361.54519,149.797528 351.39414,148.482752 341.309436,148.438558 C331.224733,148.482752 321.073683,149.797528 311.608216,152.427079 C288.928691,137.091712 278.965624,140.27369 278.965624,140.27369 C272.518933,156.603425 276.588199,168.668426 277.815614,171.651531 C270.218913,179.948981 265.574642,190.533478 265.574642,203.471313 C265.574642,248.90289 293.28546,259.067543 319.647228,262.072744 C316.252487,265.033752 313.178422,270.270757 312.116874,277.927392 C305.349508,280.954691 288.165704,286.202745 277.5834,268.072099 C277.5834,268.072099 271.302576,256.692107 259.393338,255.852419 C259.393338,255.852419 247.815833,255.697739 258.586119,263.056064 C258.586119,263.056064 266.359745,266.70208 271.767003,280.402264 C271.767003,280.402264 278.73341,301.56021 311.751967,294.38971 C311.807256,304.300246 311.917834,313.636259 311.917834,316.464684 C311.917834,318.652294 310.845228,321.09402 308.191359,322 L374.405398,322 C371.762586,321.09402 370.734212,318.663342 370.734212,316.475732 Z M268.078135,261.328393 C267.78994,261.929517 266.781255,262.110989 265.868636,261.702678 C264.932001,261.305709 264.41565,260.477744 264.715854,259.87662 C264.992041,259.252811 266.000726,259.082682 266.937361,259.502335 C267.873997,259.899304 268.402355,260.727268 268.078135,261.328393 Z M272.236484,266.952704 C271.661427,267.467946 270.533865,267.226769 269.767123,266.404575 C268.97783,265.58238 268.831247,264.486121 269.417579,263.959917 C270.015187,263.444675 271.108922,263.685852 271.898215,264.508047 C272.687508,265.341203 272.834091,266.4265 272.236484,266.952704 Z M277.391759,273.196189 C276.703413,273.722067 275.587457,273.230486 274.888682,272.133003 C274.200335,271.046953 274.200335,269.73226 274.909541,269.206383 C275.597887,268.680506 276.713842,269.149223 277.412618,270.235273 C278.090535,271.35562 278.090535,272.670312 277.391759,273.196189 Z M283.754099,280.037385 C283.103375,280.768024 281.724723,280.565693 280.710035,279.57652 C279.673289,278.609829 279.38653,277.227235 280.037253,276.496596 C280.699006,275.765957 282.088687,275.968288 283.103375,276.957461 C284.129092,277.924152 284.43791,279.306746 283.754099,280.037385 Z M292.920709,283.840124 C292.61597,284.728542 291.197763,285.130445 289.779555,284.749695 C288.361348,284.358368 287.42369,283.32188 287.716708,282.422885 C288.009726,281.52389 289.427934,281.111411 290.869583,281.513314 C292.28779,281.904641 293.225448,282.941129 292.920709,283.840124 Z M300.104912,286.659195 C298.629464,286.692313 297.430663,285.897494 297.407609,284.937089 C297.407609,283.954605 298.571829,283.148747 300.047277,283.126669 C301.522726,283.104591 302.721527,283.88837 302.721527,284.859815 C302.767635,285.831259 301.58036,286.637117 300.104912,286.659195 Z M309.247769,285.719122 C307.801209,285.968181 306.470374,285.383434 306.285214,284.463 C306.111627,283.499251 307.15315,282.546331 308.588138,282.297273 C310.057843,282.059043 311.377106,282.622132 311.562266,283.575052 C311.735853,284.506315 310.717475,285.459235 309.247769,285.719122 Z" id="Shape"></path>
            </g>
        </g>
    </g>
</svg>