<?xml version="1.0" encoding="utf-8"?>
<!-- Generator: Adobe Illustrator 23.0.6, SVG Export Plug-In . SVG Version: 6.00 Build 0)  -->
<svg version="1.1" id="Ebene_1" xmlns="http://www.w3.org/2000/svg" xmlns:xlink="http://www.w3.org/1999/xlink" x="0px" y="0px"
	 viewBox="0 0 1920 1281.7" style="enable-background:new 0 0 1920 1281.7;" xml:space="preserve">
<style type="text/css">
	.st0{fill:url(#SVGID_1_);}
	.st1{fill:url(#SVGID_2_);}
	.st2{fill:#FFFFFF;}
	.st3{fill:none;stroke:url(#SVGID_3_);stroke-width:30;stroke-linecap:round;stroke-linejoin:round;stroke-miterlimit:10;}
	.st4{fill:none;stroke:url(#SVGID_4_);stroke-width:30;stroke-linecap:round;stroke-linejoin:round;stroke-miterlimit:10;}
	.st5{opacity:0.3;}
	.st6{fill:url(#SVGID_5_);}
	.st7{opacity:0.5;}
	.st8{fill:url(#SVGID_6_);}
	.st9{opacity:0.7;}
	.st10{fill:url(#SVGID_7_);}
	.st11{opacity:0.15;}
	.st12{fill:url(#SVGID_8_);}
	.st13{fill:url(#SVGID_9_);}
	.st14{fill:url(#SVGID_10_);}
	.st15{fill:url(#SVGID_11_);}
	.st16{fill:url(#SVGID_12_);}
	.st17{fill:url(#SVGID_13_);}
	.st18{fill:url(#SVGID_14_);}
	.st19{fill:url(#SVGID_15_);}
	.st20{fill:url(#SVGID_16_);}
	.st21{opacity:0.2;fill:none;stroke:url(#SVGID_17_);stroke-width:10;stroke-linecap:round;stroke-miterlimit:10;}
	.st22{fill:url(#SVGID_18_);}
	.st23{opacity:0.4;}
	.st24{fill:url(#SVGID_19_);}
	.st25{opacity:0.1;}
	.st26{fill:url(#SVGID_20_);}
	.st27{fill:none;stroke:url(#SVGID_21_);stroke-width:20;stroke-miterlimit:10;}
	.st28{fill:url(#SVGID_22_);}
	.st29{fill:url(#SVGID_23_);}
	.st30{fill:url(#SVGID_24_);}
	.st31{opacity:0.2;}
	.st32{fill:url(#SVGID_25_);}
	.st33{fill:url(#SVGID_26_);}
	.st34{fill:url(#SVGID_27_);}
	.st35{fill:url(#SVGID_28_);}
	.st36{fill:url(#SVGID_29_);}
	.st37{fill:url(#SVGID_30_);}
	.st38{fill:url(#SVGID_31_);}
	.st39{fill:url(#SVGID_32_);}
	.st40{fill:url(#SVGID_33_);}
	.st41{fill:url(#SVGID_34_);}
	.st42{fill:url(#SVGID_35_);}
	.st43{fill:url(#SVGID_36_);}
	.st44{fill:url(#SVGID_37_);}
	.st45{fill:url(#SVGID_38_);}
	.st46{fill:url(#SVGID_39_);}
	.st47{fill:url(#SVGID_40_);}
	.st48{fill:url(#SVGID_41_);}
	.st49{fill:url(#SVGID_42_);}
	.st50{fill:url(#SVGID_43_);}
	.st51{fill:none;}
	.st52{fill:url(#SVGID_44_);}
	.st53{fill:url(#SVGID_45_);}
	.st54{fill:url(#SVGID_46_);}
	.st55{fill:url(#SVGID_47_);}
	.st56{fill:url(#SVGID_48_);}
	.st57{opacity:0.1;fill:#020203;}
	.st58{opacity:0.8;}
	.st59{fill:none;stroke:url(#SVGID_49_);stroke-width:20;stroke-linecap:round;stroke-miterlimit:10;}
	.st60{fill:none;stroke:url(#SVGID_50_);stroke-width:20;stroke-linecap:round;stroke-miterlimit:10;}
	.st61{fill:none;stroke:url(#SVGID_51_);stroke-width:20;stroke-linecap:round;stroke-miterlimit:10;}
	.st62{fill:none;stroke:url(#SVGID_52_);stroke-width:20;stroke-linecap:round;stroke-miterlimit:10;}
	.st63{fill:none;stroke:url(#SVGID_53_);stroke-width:20;stroke-linecap:round;stroke-miterlimit:10;}
	.st64{fill:none;stroke:url(#SVGID_54_);stroke-width:20;stroke-linecap:round;stroke-miterlimit:10;}
	.st65{fill:none;stroke:url(#SVGID_55_);stroke-width:20;stroke-linecap:round;stroke-miterlimit:10;}
	.st66{fill:none;stroke:url(#SVGID_56_);stroke-width:20;stroke-linecap:round;stroke-miterlimit:10;}
	.st67{opacity:0.3;fill:none;stroke:url(#SVGID_57_);stroke-width:30;stroke-linecap:round;stroke-miterlimit:10;}
	.st68{opacity:0.25;fill:none;stroke:url(#SVGID_58_);stroke-width:20;stroke-linecap:round;stroke-miterlimit:10;}
	.st69{fill:url(#SVGID_59_);}
	.st70{fill:url(#SVGID_60_);}
	.st71{fill:url(#SVGID_61_);}
	.st72{fill:url(#SVGID_62_);}
	.st73{fill:url(#SVGID_63_);}
	.st74{fill:url(#SVGID_64_);}
	.st75{fill:url(#SVGID_65_);}
	.st76{fill:url(#SVGID_66_);}
	.st77{fill:url(#SVGID_67_);}
	.st78{fill:url(#SVGID_68_);}
	.st79{fill:url(#SVGID_69_);}
	.st80{fill:url(#SVGID_70_);}
	.st81{fill:url(#SVGID_71_);}
	.st82{fill:url(#SVGID_72_);}
	.st83{fill:url(#SVGID_73_);}
	.st84{fill:url(#SVGID_74_);}
	.st85{fill:url(#SVGID_75_);}
	.st86{opacity:0.2;fill:none;stroke:url(#SVGID_76_);stroke-width:10;stroke-linecap:round;stroke-miterlimit:10;}
	.st87{fill:none;stroke:url(#SVGID_77_);stroke-width:20;stroke-linecap:round;stroke-linejoin:round;stroke-miterlimit:10;}
	.st88{fill:none;stroke:url(#SVGID_78_);stroke-width:20;stroke-linecap:round;stroke-linejoin:round;stroke-miterlimit:10;}
	
		.st89{fill:none;stroke:url(#SVGID_79_);stroke-width:20;stroke-linecap:round;stroke-linejoin:round;stroke-miterlimit:10;stroke-dasharray:0,70;}
	.st90{fill:none;stroke:url(#SVGID_80_);stroke-width:20;stroke-linecap:round;stroke-linejoin:round;}
	.st91{fill:none;stroke:url(#SVGID_81_);stroke-width:20;stroke-linecap:round;stroke-linejoin:round;stroke-dasharray:0,70.5201;}
	.st92{fill:none;stroke:url(#SVGID_82_);stroke-width:20;stroke-linecap:round;stroke-linejoin:round;}
	.st93{fill:none;stroke:url(#SVGID_83_);stroke-width:20;stroke-linecap:round;stroke-linejoin:round;stroke-miterlimit:10;}
	.st94{fill:none;stroke:url(#SVGID_84_);stroke-width:20;stroke-linecap:round;stroke-linejoin:round;stroke-miterlimit:10;}
	.st95{fill:url(#SVGID_85_);}
	.st96{fill:none;stroke:url(#SVGID_86_);stroke-width:20;stroke-linecap:round;stroke-linejoin:round;stroke-miterlimit:10;}
	.st97{fill:url(#SVGID_87_);}
	.st98{fill:url(#SVGID_88_);}
	.st99{fill:url(#SVGID_89_);}
	.st100{fill:url(#SVGID_90_);}
	.st101{fill:url(#SVGID_91_);}
	.st102{fill:url(#SVGID_92_);}
	.st103{fill:none;stroke:url(#SVGID_93_);stroke-width:20;stroke-linecap:round;stroke-linejoin:round;stroke-miterlimit:10;}
	.st104{fill:none;stroke:url(#SVGID_94_);stroke-width:20;stroke-linecap:round;stroke-linejoin:round;stroke-miterlimit:10;}
	.st105{fill:url(#SVGID_95_);}
	.st106{fill:url(#SVGID_96_);}
	.st107{fill:url(#SVGID_97_);}
	.st108{fill:url(#SVGID_98_);}
	.st109{fill:url(#SVGID_99_);}
	.st110{fill:url(#SVGID_100_);}
	.st111{fill:url(#SVGID_101_);}
	.st112{fill:url(#SVGID_102_);}
	.st113{fill:url(#SVGID_103_);}
	.st114{fill:url(#SVGID_104_);}
	.st115{fill:url(#SVGID_105_);}
	.st116{fill:url(#SVGID_106_);}
	.st117{fill:url(#SVGID_107_);}
	.st118{fill:url(#SVGID_108_);}
	.st119{fill:url(#SVGID_109_);}
	.st120{fill:url(#SVGID_110_);}
	.st121{fill:url(#SVGID_111_);}
	.st122{fill:url(#SVGID_112_);}
	.st123{fill:url(#SVGID_113_);}
	.st124{fill:url(#SVGID_114_);}
	.st125{fill:url(#SVGID_115_);}
	.st126{fill:url(#SVGID_116_);}
	.st127{fill:url(#SVGID_117_);}
	.st128{fill:url(#SVGID_118_);}
	.st129{fill:url(#SVGID_119_);}
	.st130{fill:url(#SVGID_120_);}
	.st131{fill:none;stroke:url(#SVGID_121_);stroke-width:24;stroke-linecap:round;stroke-linejoin:round;stroke-miterlimit:10;}
	
		.st132{fill:none;stroke:url(#SVGID_122_);stroke-width:24;stroke-linecap:round;stroke-linejoin:round;stroke-miterlimit:10;stroke-dasharray:0,58;}
	.st133{fill:none;stroke:#6B95C5;stroke-width:24;stroke-linecap:round;stroke-linejoin:round;stroke-miterlimit:10;}
	.st134{opacity:0.3;fill:url(#SVGID_123_);}
	.st135{opacity:0.3;fill:url(#SVGID_124_);}
	.st136{opacity:0.3;fill:url(#SVGID_125_);}
	.st137{opacity:0.3;fill:url(#SVGID_126_);}
	.st138{fill:url(#SVGID_127_);}
	.st139{fill:url(#SVGID_128_);}
	.st140{fill:url(#SVGID_129_);}
	.st141{fill:url(#SVGID_130_);}
	.st142{fill:url(#SVGID_131_);}
	.st143{fill:url(#SVGID_132_);}
	.st144{fill:url(#SVGID_133_);}
	.st145{opacity:0.4;fill:url(#SVGID_134_);}
	.st146{opacity:0.6;}
	.st147{fill:url(#SVGID_135_);}
	.st148{fill:url(#SVGID_136_);}
	.st149{fill:url(#SVGID_137_);}
	.st150{fill:url(#SVGID_138_);}
	.st151{fill:url(#SVGID_139_);}
	.st152{fill:url(#SVGID_140_);}
	.st153{fill:url(#SVGID_141_);}
	.st154{fill:url(#SVGID_142_);}
	.st155{fill:url(#SVGID_143_);}
	.st156{fill:url(#SVGID_144_);}
	.st157{fill:url(#SVGID_145_);}
	.st158{fill:url(#SVGID_146_);}
	.st159{fill:url(#SVGID_147_);}
	.st160{fill:url(#SVGID_148_);}
	.st161{fill:url(#SVGID_149_);}
	.st162{fill:url(#SVGID_150_);}
	.st163{fill:url(#SVGID_151_);}
	.st164{fill:url(#SVGID_152_);}
	.st165{fill:url(#SVGID_153_);}
	.st166{fill:url(#SVGID_154_);}
	.st167{fill:url(#SVGID_155_);}
	.st168{fill:url(#SVGID_156_);}
	.st169{fill:url(#SVGID_157_);}
	.st170{fill:url(#SVGID_158_);}
	
		.st171{opacity:0.4;fill:none;stroke:url(#SVGID_159_);stroke-width:20;stroke-linecap:round;stroke-linejoin:round;stroke-miterlimit:10;}
	
		.st172{opacity:0.4;fill:none;stroke:url(#SVGID_160_);stroke-width:20;stroke-linecap:round;stroke-linejoin:round;stroke-miterlimit:10;}
	.st173{fill:url(#SVGID_161_);}
	.st174{fill:none;stroke:url(#SVGID_162_);stroke-width:40;stroke-miterlimit:10;}
	.st175{fill:url(#SVGID_163_);}
	.st176{fill:url(#SVGID_164_);}
	
		.st177{opacity:0.2;fill:none;stroke:url(#SVGID_165_);stroke-width:24;stroke-linecap:round;stroke-linejoin:round;stroke-miterlimit:10;}
	
		.st178{opacity:0.4;fill:none;stroke:url(#SVGID_166_);stroke-width:24;stroke-linecap:round;stroke-linejoin:round;stroke-miterlimit:10;}
	
		.st179{opacity:0.2;fill:none;stroke:url(#SVGID_167_);stroke-width:22;stroke-linecap:round;stroke-linejoin:round;stroke-miterlimit:10;stroke-dasharray:0,44;}
	.st180{fill:none;stroke:url(#SVGID_168_);stroke-width:22;stroke-linecap:round;stroke-linejoin:round;}
	.st181{fill:none;stroke:url(#SVGID_169_);stroke-width:22;stroke-linecap:round;stroke-linejoin:round;stroke-dasharray:0,41.452;}
	.st182{fill:none;stroke:url(#SVGID_170_);stroke-width:22;stroke-linecap:round;stroke-linejoin:round;}
	
		.st183{opacity:0.4;fill:none;stroke:url(#SVGID_171_);stroke-width:24;stroke-linecap:round;stroke-linejoin:round;stroke-miterlimit:10;}
	
		.st184{opacity:0.2;fill:none;stroke:url(#SVGID_172_);stroke-width:24;stroke-linecap:round;stroke-linejoin:round;stroke-miterlimit:10;}
	.st185{fill:url(#SVGID_173_);}
	.st186{fill:none;stroke:url(#SVGID_174_);stroke-width:16;stroke-linecap:round;stroke-linejoin:round;stroke-miterlimit:10;}
	.st187{fill:none;stroke:url(#SVGID_175_);stroke-width:16;stroke-linecap:round;stroke-linejoin:round;stroke-miterlimit:10;}
	.st188{fill:url(#SVGID_176_);}
	.st189{fill:url(#SVGID_177_);}
	.st190{opacity:0.3;fill:none;stroke:url(#SVGID_178_);stroke-width:14;stroke-linecap:round;stroke-miterlimit:10;}
	
		.st191{opacity:0.7;fill:none;stroke:url(#SVGID_179_);stroke-width:14;stroke-linecap:round;stroke-miterlimit:10;stroke-dasharray:0,30;}
	.st192{opacity:0.7;fill:none;stroke:url(#SVGID_180_);stroke-width:14;stroke-linecap:round;stroke-miterlimit:10;}
	.st193{opacity:0.2;fill:none;stroke:url(#SVGID_181_);stroke-width:14;stroke-linecap:round;stroke-miterlimit:10;}
	.st194{fill:url(#SVGID_182_);}
	.st195{fill:none;stroke:url(#SVGID_183_);stroke-width:20;stroke-miterlimit:10;}
	.st196{opacity:0.4;fill:url(#SVGID_184_);}
	.st197{fill:url(#SVGID_185_);}
	.st198{fill:url(#SVGID_186_);}
	.st199{fill:url(#SVGID_187_);}
	.st200{fill:url(#SVGID_188_);}
	.st201{fill:url(#SVGID_189_);}
	.st202{fill:url(#SVGID_190_);}
	.st203{fill:url(#SVGID_191_);}
	.st204{fill:none;stroke:url(#SVGID_192_);stroke-width:20;stroke-linecap:round;stroke-miterlimit:10;}
	.st205{fill:none;stroke:url(#SVGID_193_);stroke-width:20;stroke-linecap:round;stroke-miterlimit:10;}
	.st206{fill:none;stroke:url(#SVGID_194_);stroke-width:20;stroke-linecap:round;stroke-miterlimit:10;}
	.st207{fill:none;stroke:url(#SVGID_195_);stroke-width:20;stroke-linecap:round;stroke-miterlimit:10;}
	.st208{fill:none;stroke:url(#SVGID_196_);stroke-width:20;stroke-linecap:round;stroke-miterlimit:10;}
	.st209{fill:none;stroke:url(#SVGID_197_);stroke-width:20;stroke-linecap:round;stroke-miterlimit:10;}
	.st210{opacity:0.3;fill:none;stroke:url(#SVGID_198_);stroke-width:20;stroke-linecap:round;stroke-miterlimit:10;}
	.st211{opacity:0.4;fill:none;stroke:url(#SVGID_199_);stroke-width:14;stroke-linecap:round;stroke-miterlimit:10;}
	
		.st212{opacity:0.4;fill:none;stroke:url(#SVGID_200_);stroke-width:24;stroke-linecap:round;stroke-linejoin:round;stroke-miterlimit:10;}
	.st213{fill:url(#SVGID_201_);}
	.st214{fill:url(#SVGID_202_);}
</style>
<g class="st5">
	<linearGradient id="SVGID_1_" gradientUnits="userSpaceOnUse" x1="653.5495" y1="350.8943" x2="1225.9037" y2="923.2485">
		<stop  offset="1.071236e-02" style="stop-color:#9BD2CD"/>
		<stop  offset="0.3244" style="stop-color:#84B4CB"/>
		<stop  offset="0.7812" style="stop-color:#688BC2"/>
		<stop  offset="1" style="stop-color:#5E7ABC"/>
	</linearGradient>
	<path class="st0" d="M939.7,262.4c48.7,0,96.1,9.2,141,27.4c46.5,18.8,88.2,46.5,123.9,82.3s63.5,77.5,82.3,123.9
		c18.2,44.9,27.4,92.3,27.4,141s-9.2,96.1-27.4,141c-18.8,46.5-46.5,88.2-82.3,123.9c-35.8,35.8-77.5,63.5-123.9,82.3
		c-44.9,18.2-92.3,27.4-141,27.4s-96.1-9.2-141-27.4c-46.5-18.8-88.2-46.5-123.9-82.3c-35.8-35.8-63.5-77.5-82.3-123.9
		c-18.2-44.9-27.4-92.3-27.4-141s9.2-96.1,27.4-141c18.8-46.5,46.5-88.2,82.3-123.9c35.8-35.8,77.5-63.5,123.9-82.3
		C843.6,271.6,891,262.4,939.7,262.4 M939.7,232.4c-103.6,0-207.2,39.5-286.2,118.5c-158.1,158.1-158.1,414.3,0,572.4
		c79,79,182.6,118.5,286.2,118.5s207.2-39.5,286.2-118.5c158.1-158.1,158.1-414.3,0-572.4C1146.9,271.9,1043.3,232.4,939.7,232.4
		L939.7,232.4z"/>
</g>
<g class="st7">
	<linearGradient id="SVGID_2_" gradientUnits="userSpaceOnUse" x1="618.0294" y1="637.0715" x2="1261.4232" y2="637.0715">
		<stop  offset="1.071236e-02" style="stop-color:#9BD2CD"/>
		<stop  offset="0.3244" style="stop-color:#84B4CB"/>
		<stop  offset="0.7812" style="stop-color:#688BC2"/>
		<stop  offset="1" style="stop-color:#5E7ABC"/>
	</linearGradient>
	<path class="st1" d="M939.7,355.4c38,0,74.9,7.4,109.6,22.1c33.5,14.2,63.7,34.5,89.6,60.4c25.9,25.9,46.2,56,60.4,89.6
		c14.7,34.7,22.1,71.6,22.1,109.6s-7.4,74.9-22.1,109.6c-14.2,33.5-34.5,63.7-60.4,89.6c-25.9,25.9-56,46.2-89.6,60.4
		c-34.7,14.7-71.6,22.1-109.6,22.1s-74.9-7.4-109.6-22.1c-33.5-14.2-63.7-34.5-89.6-60.4c-25.9-25.9-46.2-56-60.4-89.6
		C665.5,712,658,675.1,658,637.1s7.4-74.9,22.1-109.6c14.2-33.5,34.5-63.7,60.4-89.6c25.9-25.9,56-46.2,89.6-60.4
		C864.8,362.8,901.7,355.4,939.7,355.4 M939.7,315.4c-177.7,0-321.7,144-321.7,321.7s144,321.7,321.7,321.7
		c177.7,0,321.7-144,321.7-321.7S1117.4,315.4,939.7,315.4L939.7,315.4z"/>
</g>
<g class="st9">
	<linearGradient id="SVGID_3_" gradientUnits="userSpaceOnUse" x1="690.6708" y1="637.0715" x2="1188.7821" y2="637.0715">
		<stop  offset="1.071236e-02" style="stop-color:#9BD2CD"/>
		<stop  offset="0.3244" style="stop-color:#84B4CB"/>
		<stop  offset="0.7812" style="stop-color:#688BC2"/>
		<stop  offset="1" style="stop-color:#5E7ABC"/>
	</linearGradient>
	<path style="fill:url(#SVGID_3_);" d="M939.7,438c53.2,0,103.2,20.7,140.8,58.3c37.6,37.6,58.3,87.6,58.3,140.8
		s-20.7,103.2-58.3,140.8c-37.6,37.6-87.6,58.3-140.8,58.3S836.6,815.4,799,777.8c-37.6-37.6-58.3-87.6-58.3-140.8
		s20.7-103.2,58.3-140.8C836.6,458.7,886.6,438,939.7,438 M939.7,388c-137.5,0-249.1,111.5-249.1,249.1s111.5,249.1,249.1,249.1
		s249.1-111.5,249.1-249.1S1077.3,388,939.7,388L939.7,388z"/>
</g>
<linearGradient id="SVGID_4_" gradientUnits="userSpaceOnUse" x1="754.7264" y1="637.0715" x2="1124.7264" y2="637.0715">
	<stop  offset="1.239782e-02" style="stop-color:#EF775E"/>
	<stop  offset="0.3394" style="stop-color:#F59F6E"/>
	<stop  offset="0.786" style="stop-color:#FDCD82"/>
	<stop  offset="1" style="stop-color:#FFDD89"/>
</linearGradient>
<path style="fill:url(#SVGID_4_);" d="M939.7,522.1c30.7,0,59.6,12,81.3,33.7c21.7,21.7,33.7,50.6,33.7,81.3s-12,59.6-33.7,81.3
	c-21.7,21.7-50.6,33.7-81.3,33.7s-59.6-12-81.3-33.7c-21.7-21.7-33.7-50.6-33.7-81.3s12-59.6,33.7-81.3
	C880.1,534,909,522.1,939.7,522.1 M939.7,452.1c-102.2,0-185,82.8-185,185c0,102.2,82.8,185,185,185s185-82.8,185-185
	C1124.7,534.9,1041.9,452.1,939.7,452.1L939.7,452.1z"/>
<g class="st25">
	<linearGradient id="SVGID_5_" gradientUnits="userSpaceOnUse" x1="446.8036" y1="637.0715" x2="1432.6493" y2="637.0715">
		<stop  offset="1.071236e-02" style="stop-color:#9BD2CD"/>
		<stop  offset="0.3244" style="stop-color:#84B4CB"/>
		<stop  offset="0.7812" style="stop-color:#688BC2"/>
		<stop  offset="1" style="stop-color:#5E7ABC"/>
	</linearGradient>
	<path class="st6" d="M939.7,164.1c63.9,0,125.8,12.5,184.1,37.2c56.3,23.8,106.9,57.9,150.3,101.4c43.4,43.4,77.5,94,101.4,150.3
		c24.7,58.3,37.2,120.2,37.2,184.1c0,63.9-12.5,125.8-37.2,184.1c-23.8,56.3-57.9,106.9-101.4,150.3c-43.4,43.4-94,77.5-150.3,101.4
		c-58.3,24.7-120.2,37.2-184.1,37.2s-125.8-12.5-184.1-37.2c-56.3-23.8-106.9-57.9-150.3-101.4c-43.4-43.4-77.5-94-101.4-150.3
		c-24.7-58.3-37.2-120.2-37.2-184.1S479.3,511.3,504,453c23.8-56.3,57.9-106.9,101.4-150.3c43.4-43.4,94-77.5,150.3-101.4
		C813.9,176.7,875.9,164.1,939.7,164.1 M939.7,144.1c-272.2,0-492.9,220.7-492.9,492.9S667.5,1130,939.7,1130
		s492.9-220.7,492.9-492.9S1212,144.1,939.7,144.1L939.7,144.1z"/>
</g>
<g class="st25">
	<linearGradient id="SVGID_6_" gradientUnits="userSpaceOnUse" x1="337.3412" y1="637.0715" x2="1542.1117" y2="637.0715">
		<stop  offset="1.071236e-02" style="stop-color:#9BD2CD"/>
		<stop  offset="0.3244" style="stop-color:#84B4CB"/>
		<stop  offset="0.7812" style="stop-color:#688BC2"/>
		<stop  offset="1" style="stop-color:#5E7ABC"/>
	</linearGradient>
	<path class="st8" d="M939.7,39.7c80.6,0,158.9,15.8,232.5,46.9c35.4,15,69.5,33.5,101.5,55.1c31.6,21.4,61.4,45.9,88.4,72.9
		s51.6,56.8,72.9,88.4c21.6,31.9,40.1,66.1,55.1,101.5c31.1,73.6,46.9,151.9,46.9,232.5s-15.8,158.9-46.9,232.5
		c-15,35.4-33.5,69.5-55.1,101.5c-21.4,31.6-45.9,61.4-72.9,88.4s-56.8,51.6-88.4,72.9c-31.9,21.6-66.1,40.1-101.5,55.1
		c-73.6,31.1-151.9,46.9-232.5,46.9s-158.9-15.8-232.5-46.9c-35.4-15-69.5-33.5-101.5-55.1c-31.6-21.4-61.4-45.9-88.4-72.9
		c-27-27-51.6-56.8-72.9-88.4c-21.6-31.9-40.1-66.1-55.1-101.5c-31.1-73.6-46.9-151.9-46.9-232.5s15.8-158.9,46.9-232.5
		c15-35.4,33.5-69.5,55.1-101.5c21.4-31.6,45.9-61.4,72.9-88.4c27-27,56.8-51.6,88.4-72.9c31.9-21.6,66.1-40.1,101.5-55.1
		C780.8,55.5,859.1,39.7,939.7,39.7 M939.7,34.7c-332.7,0-602.4,269.7-602.4,602.4s269.7,602.4,602.4,602.4s602.4-269.7,602.4-602.4
		S1272.4,34.7,939.7,34.7L939.7,34.7z"/>
</g>
</svg>
