<?xml version="1.0" encoding="utf-8"?>
<!-- Generator: Adobe Illustrator 23.0.6, SVG Export Plug-In . SVG Version: 6.00 Build 0)  -->
<svg version="1.1" id="Ebene_1" xmlns="http://www.w3.org/2000/svg" xmlns:xlink="http://www.w3.org/1999/xlink" x="0px" y="0px"
	 viewBox="0 0 1920 1281.7" style="enable-background:new 0 0 1920 1281.7;" xml:space="preserve">
<style type="text/css">
	.st0{fill:url(#SVGID_1_);}
	.st1{opacity:0.4;}
	.st2{fill:url(#SVGID_2_);}
	.st3{fill:url(#SVGID_3_);}
	.st4{fill:url(#SVGID_4_);}
</style>
<g>
	
		<linearGradient id="SVGID_1_" gradientUnits="userSpaceOnUse" x1="841.8628" y1="574.2137" x2="1152.1045" y2="834.5374" gradientTransform="matrix(1 0 0 -1 0 1282)">
		<stop  offset="1.239782e-02" style="stop-color:#EF775E"/>
		<stop  offset="0.3394" style="stop-color:#F59F6E"/>
		<stop  offset="0.786" style="stop-color:#FDCD82"/>
		<stop  offset="1" style="stop-color:#FFDD89"/>
	</linearGradient>
	<path class="st0" d="M986,856.6c-12.5,0-24.2-5.6-32.1-15.3L756,597.4c-17.5-21.6-17.3-52.7,0.6-74l71.1-85
		c10.6-12.6,26.1-19.9,42.6-19.9h231.6c16.5,0,32,7.2,42.6,19.9l71.1,85c17.8,21.3,18.1,52.4,0.6,74l-35.8,44.2
		c-10.4,12.9-29.3,14.8-42.2,4.4c-12.9-10.4-14.8-29.3-4.4-42.2l34.9-43l-68.8-82.2H872.3l-68.8,82.2L986,785.6l29.9-36.8
		c10.4-12.9,29.3-14.8,42.2-4.4c12.9,10.4,14.8,29.3,4.4,42.2l-44.4,54.7C1010.2,851,998.5,856.6,986,856.6z"/>
</g>
<g class="st1">
	
		<linearGradient id="SVGID_2_" gradientUnits="userSpaceOnUse" x1="543.7073" y1="660.7872" x2="1211.2625" y2="660.7872" gradientTransform="matrix(0.9632 0.2688 0.2688 -0.9632 -40.2131 1007.4023)">
		<stop  offset="1.071236e-02" style="stop-color:#B3CDDD"/>
		<stop  offset="0.4262" style="stop-color:#667A94"/>
		<stop  offset="0.8151" style="stop-color:#33405B"/>
		<stop  offset="1" style="stop-color:#212C46"/>
	</linearGradient>
	<path class="st2" d="M982.6,940.6c-30,0-60.2-4.1-89.7-12.3c-85.9-24-157.3-79.9-201.1-157.6C648,693,637.1,603,661.1,517.1
		S741,359.8,818.7,316s167.7-54.7,253.6-30.7s157.3,79.9,201.1,157.6c43.8,77.7,54.7,167.7,30.7,253.6
		c-6.1,21.9-14.4,43.1-24.7,63.1c-4.4,8.6-15,12-23.6,7.6s-12-15-7.6-23.6c9.2-17.9,16.7-36.9,22.1-56.5
		c21.5-76.9,11.7-157.5-27.5-227S1139.8,340.5,1063,319c-76.9-21.5-157.5-11.7-227,27.5s-119.6,103.1-141.1,180
		s-11.7,157.5,27.5,227s103.1,119.6,180,141.1c83.2,23.2,172.3,9.3,244.5-38.2c8.1-5.3,18.9-3.1,24.2,5c5.3,8.1,3.1,18.9-5,24.2
		C1111,921.9,1047.2,940.6,982.6,940.6z"/>
</g>
<g class="st1">
	
		<linearGradient id="SVGID_3_" gradientUnits="userSpaceOnUse" x1="408.8105" y1="-68.7251" x2="1219.5104" y2="-68.7251" gradientTransform="matrix(-0.9023 0.431 0.431 0.9023 1746.8875 317.9076)">
		<stop  offset="1.071236e-02" style="stop-color:#B3CDDD"/>
		<stop  offset="0.4262" style="stop-color:#667A94"/>
		<stop  offset="0.8151" style="stop-color:#33405B"/>
		<stop  offset="1" style="stop-color:#212C46"/>
	</linearGradient>
	<path class="st3" d="M982.7,1012.3c-46,0-91.4-7.8-135.1-23.3c-49.6-17.5-94.7-44.1-133.9-78.8c-40.6-36-73.2-79.3-96.8-128.7
		S580,679.7,577.6,625.4c-2.4-52.4,5.3-104.1,22.8-153.7s44.1-94.7,78.8-133.9c36-40.6,79.3-73.2,128.7-96.8s101.9-36.8,156.1-39.3
		c52.4-2.4,104.1,5.3,153.7,22.9c49.6,17.5,94.7,44.1,133.9,78.8c40.6,36,73.2,79.3,96.8,128.7c58.4,122.2,52,264.9-17.1,381.6
		c-4.9,8.3-15.7,11.1-24,6.1c-8.3-4.9-11.1-15.7-6.1-24c63.2-106.7,69-237,15.7-348.7c-42.6-89.3-117.5-156.6-210.8-189.6
		s-193.8-27.6-283.1,15S666.4,390,633.4,483.3s-27.6,193.8,15,283.1S765.9,923,859.2,956s193.8,27.6,283.1-15
		c19.1-9.1,37.5-19.9,54.6-32c7.9-5.6,18.8-3.7,24.4,4.2s3.7,18.8-4.2,24.4c-18.7,13.3-38.8,25-59.7,35
		c-49.4,23.6-101.9,36.8-156.1,39.3C995.1,1012.2,988.9,1012.3,982.7,1012.3z"/>
</g>
<linearGradient id="SVGID_4_" gradientUnits="userSpaceOnUse" x1="960" y1="524" x2="1353.5376" y2="524" gradientTransform="matrix(1 0 0 -1 0 1282)">
	<stop  offset="1.071236e-02" style="stop-color:#9BD2CD"/>
	<stop  offset="0.3244" style="stop-color:#84B4CB"/>
	<stop  offset="0.7812" style="stop-color:#688BC2"/>
	<stop  offset="1" style="stop-color:#5E7ABC"/>
</linearGradient>
<path class="st4" d="M1347.7,920.6l-295.8-295.8c1.8-5.1,2.9-10.5,2.9-16.2c0-26.2-21.2-47.4-47.4-47.4S960,582.4,960,608.6
	s21.2,47.4,47.4,47.4c5.7,0,11.2-1,16.2-2.9l295.8,295.8c3.9,3.9,9,5.9,14.1,5.9s10.2-2,14.1-5.9
	C1355.5,941.1,1355.5,928.5,1347.7,920.6z"/>
</svg>
