<?xml version="1.0" encoding="utf-8"?>
<!-- Generator: Adobe Illustrator 23.0.6, SVG Export Plug-In . SVG Version: 6.00 Build 0)  -->
<svg version="1.1" id="Ebene_1" xmlns="http://www.w3.org/2000/svg" xmlns:xlink="http://www.w3.org/1999/xlink" x="0px" y="0px"
	 viewBox="0 0 1920 1281.7" style="enable-background:new 0 0 1920 1281.7;" xml:space="preserve">
<style type="text/css">
	.st0{fill:url(#SVGID_1_);}
	.st1{opacity:0.4;}
	.st2{fill:url(#SVGID_2_);}
	.st3{fill:url(#SVGID_3_);}
	.st4{fill:url(#SVGID_4_);}
</style>
<g>
	
		<linearGradient id="SVGID_1_" gradientUnits="userSpaceOnUse" x1="800.2573" y1="510.2957" x2="1202.2013" y2="847.5667" gradientTransform="matrix(1 0 0 -1 0 1282)">
		<stop  offset="1.239782e-02" style="stop-color:#EF775E"/>
		<stop  offset="0.3394" style="stop-color:#F59F6E"/>
		<stop  offset="0.786" style="stop-color:#FDCD82"/>
		<stop  offset="1" style="stop-color:#FFDD89"/>
	</linearGradient>
	<path class="st0" d="M987,964.5c-16.2,0-31.4-7.3-41.6-19.8L689,628.7c-22.7-28-22.4-68.3,0.8-95.9l92.1-110.1
		c13.7-16.3,33.8-25.8,55.2-25.8h300.1c21.4,0,41.5,9.3,55.2,25.8l92.1,110.1c23.1,27.6,23.5,67.9,0.8,95.9l-46.4,57.3
		c-13.5,16.7-38,19.2-54.7,5.7c-16.7-13.5-19.2-38-5.7-54.7l45.2-55.7l-89.1-106.5H839.7l-89.1,106.5L987,872.5l38.7-47.7
		c13.5-16.7,38-19.2,54.7-5.7c16.7,13.5,19.2,38,5.7,54.7l-57.5,70.9C1018.4,957.2,1003.2,964.5,987,964.5z"/>
</g>
<g class="st1">
	
		<linearGradient id="SVGID_2_" gradientUnits="userSpaceOnUse" x1="379.1497" y1="1176.0504" x2="1244.0231" y2="1176.0504" gradientTransform="matrix(0.9632 0.2688 0.2688 -0.9632 -115.2483 1555.4855)">
		<stop  offset="1.071236e-02" style="stop-color:#B3CDDD"/>
		<stop  offset="0.4262" style="stop-color:#667A94"/>
		<stop  offset="0.8151" style="stop-color:#33405B"/>
		<stop  offset="1" style="stop-color:#212C46"/>
	</linearGradient>
	<path class="st2" d="M982.6,1073.3c-38.9,0-78-5.3-116.2-15.9c-111.3-31.1-203.8-103.5-260.5-204.2
		c-56.7-100.7-70.9-217.3-39.8-328.6c31.1-111.3,103.5-203.8,204.2-260.5c100.7-56.7,217.3-70.9,328.6-39.8
		c111.3,31.1,203.8,103.5,260.5,204.2c56.7,100.7,70.9,217.3,39.8,328.6c-7.9,28.4-18.7,55.8-32,81.8c-5.7,11.1-19.4,15.5-30.6,9.8
		c-11.1-5.7-15.5-19.4-9.8-30.6c11.9-23.2,21.6-47.8,28.6-73.2c27.9-99.6,15.2-204.1-35.6-294.1c-50.8-90-133.4-155-232.9-182.8
		c-99.6-27.9-204.1-15.2-294.1,35.6s-155,133.6-182.8,233.2s-15.2,204.1,35.6,294.1s133.6,155,233.2,182.8
		c107.8,30.1,223.2,12,316.8-49.5c10.5-6.9,24.5-4,31.4,6.5c6.9,10.5,4,24.5-6.5,31.4C1148.9,1049.1,1066.3,1073.3,982.6,1073.3z"/>
</g>
<g class="st1">
	
		<linearGradient id="SVGID_3_" gradientUnits="userSpaceOnUse" x1="-3575.2896" y1="840.9127" x2="-2524.9604" y2="840.9127" gradientTransform="matrix(-0.9023 0.431 0.431 0.9023 -2131.9023 1196.7166)">
		<stop  offset="1.071236e-02" style="stop-color:#B3CDDD"/>
		<stop  offset="0.4262" style="stop-color:#667A94"/>
		<stop  offset="0.8151" style="stop-color:#33405B"/>
		<stop  offset="1" style="stop-color:#212C46"/>
	</linearGradient>
	<path class="st3" d="M982.7,1166.2c-59.6,0-118.4-10.1-175-30.2c-64.3-22.7-122.7-57.1-173.5-102.1
		c-52.6-46.6-94.8-102.7-125.4-166.7S461,735.3,457.9,665c-3.1-67.9,6.9-134.9,29.5-199.1c22.7-64.3,57.1-122.7,102.1-173.5
		c46.6-52.6,102.7-94.8,166.7-125.4s132-47.7,202.2-50.9c67.9-3.1,134.9,6.9,199.1,29.7c64.3,22.7,122.7,57.1,173.5,102.1
		c52.6,46.6,94.8,102.7,125.4,166.7c75.7,158.3,67.4,343.2-22.2,494.4c-6.3,10.8-20.3,14.4-31.1,7.9c-10.8-6.3-14.4-20.3-7.9-31.1
		c81.9-138.2,89.4-307.1,20.3-451.8c-55.2-115.7-152.2-202.9-273.1-245.6c-120.9-42.8-251.1-35.8-366.8,19.4S572.9,360,530.2,480.9
		c-42.8,120.9-35.8,251.1,19.4,366.8s152.2,202.9,273.1,245.6c120.9,42.8,251.1,35.8,366.8-19.4c24.7-11.8,48.6-25.8,70.7-41.5
		c10.2-7.3,24.4-4.8,31.6,5.4c7.3,10.2,4.8,24.4-5.4,31.6c-24.2,17.2-50.3,32.4-77.3,45.3c-64,30.6-132,47.7-202.2,50.9
		C998.8,1166.1,990.8,1166.2,982.7,1166.2z"/>
</g>
<linearGradient id="SVGID_4_" gradientUnits="userSpaceOnUse" x1="953.3139" y1="445.2397" x2="1463.1746" y2="445.2397" gradientTransform="matrix(1 0 0 -1 0 1282)">
	<stop  offset="1.071236e-02" style="stop-color:#9BD2CD"/>
	<stop  offset="0.3244" style="stop-color:#84B4CB"/>
	<stop  offset="0.7812" style="stop-color:#688BC2"/>
	<stop  offset="1" style="stop-color:#5E7ABC"/>
</linearGradient>
<path class="st4" d="M1455.6,1047.4l-383.2-383.2c2.3-6.6,3.8-13.6,3.8-21c0-33.9-27.5-61.4-61.4-61.4s-61.4,27.5-61.4,61.4
	c0,33.9,27.5,61.4,61.4,61.4c7.4,0,14.5-1.3,21-3.8l383.2,383.2c5.1,5.1,11.7,7.6,18.3,7.6s13.2-2.6,18.3-7.6
	C1465.7,1074,1465.7,1057.7,1455.6,1047.4z"/>
</svg>
