<?xml version="1.0" encoding="utf-8"?>
<!-- Generator: Adobe Illustrator 23.0.6, SVG Export Plug-In . SVG Version: 6.00 Build 0)  -->
<svg version="1.1" id="Ebene_1" xmlns="http://www.w3.org/2000/svg" xmlns:xlink="http://www.w3.org/1999/xlink" x="0px" y="0px"
	 viewBox="0 0 1920 1281.7" style="enable-background:new 0 0 1920 1281.7;" xml:space="preserve">
<style type="text/css">
	.st0{fill:none;}
	.st1{fill:url(#SVGID_1_);}
	.st2{fill:url(#SVGID_2_);}
	.st3{fill:url(#SVGID_3_);}
	.st4{fill:url(#SVGID_4_);}
	.st5{opacity:0.4;fill:url(#SVGID_5_);enable-background:new    ;}
	.st6{opacity:0.4;fill:url(#SVGID_6_);enable-background:new    ;}
	.st7{opacity:0.4;fill:url(#SVGID_7_);enable-background:new    ;}
	.st8{opacity:0.4;fill:url(#SVGID_8_);enable-background:new    ;}
	.st9{opacity:0.3;fill:url(#SVGID_9_);enable-background:new    ;}
	.st10{opacity:0.2;}
	.st11{fill:url(#SVGID_10_);}
	.st12{opacity:0.3;fill:url(#SVGID_11_);enable-background:new    ;}
	.st13{fill:url(#SVGID_12_);}
	.st14{opacity:0.1;fill:url(#SVGID_13_);enable-background:new    ;}
	.st15{opacity:0.2;fill:url(#SVGID_14_);enable-background:new    ;}
</style>
<g>
	<path class="st0" d="M857.9,582.7c-5.2-9.6-10-19.7-14.4-29.8c-32.8-76.9-36.4-161.3-11-240.1C781,299.2,725.1,301,672.1,321
		c-3.2,1.2-6.6,2.5-9.8,3.9c-133.9,57-196.5,212.1-139.5,346c27.6,64.9,78.8,115,144.2,141.4c26.3,10.6,53.8,16.9,81.3,18.7
		c0.4-46.9,10.6-93.8,30.5-137.8C797.8,651,824.9,613.6,857.9,582.7z"/>
	<path class="st0" d="M1109.9,571.4c-0.4,34.4-5.9,68.6-16.7,102.1c56.3,15,115.7,10.7,170.3-12.4c6.6-2.8,13-5.9,19.3-9.1
		C1237.2,604.6,1175.3,575.8,1109.9,571.4z"/>
	<path class="st0" d="M1101.1,490.5c45.2,1.1,90.2,11.2,132.7,30.4c44.1,19.8,82.8,48.2,114.2,82.9c24.2-24.6,43.6-53.9,57-86.9
		c26.3-65.4,25.7-137.1-1.9-202c-27.6-64.9-78.8-115-144.2-141.4c-62.1-25-129.9-25.7-192.1-2c-3.3,1.2-6.6,2.5-9.9,4
		c-48,20.5-88,53.8-116.2,96.2c63,37.1,112.4,93.1,141.5,161.6C1090.2,452,1096.5,471.1,1101.1,490.5z"/>
	<path class="st0" d="M917.4,521.4c1.9,4.5,4,9,6.2,13.4c15-8.4,30.6-15.8,46.9-21.9c16.3-6.2,32.9-11.1,49.6-14.7
		c-3.1-11.4-7-22.6-11.6-33.6c-21.8-51.2-57.9-92-101.8-119.6C889.7,403.2,893.3,465,917.4,521.4z"/>
	<path class="st0" d="M1029.4,578.5c-10.2,2.5-20.3,5.6-30.5,9.5c-10,3.9-19.8,8.2-29.2,13.1c14.7,15.2,31.2,28.8,49.2,40.1
		C1025.1,620.7,1028.6,599.5,1029.4,578.5z"/>
	<path class="st0" d="M1281.9,740c-71.8,27.3-149.5,29.7-222.6,7.2c-37.1,61-92,108.9-159,137.4c-4.3,1.9-8.6,3.6-12.8,5.2
		c-16.2,6.2-32.6,11-49.4,14.6c2.1,8,4.8,15.9,7.8,23.9c51.6,136,204.2,204.6,340.3,153c136-51.6,204.6-204.2,153-340.3
		c-3.1-7.9-6.4-15.6-10-23.1c-11.1,6.2-22.5,11.9-34.4,16.9C1290.6,736.6,1286.3,738.4,1281.9,740z"/>
	<path class="st0" d="M869,810.7c48-20.5,88-53.8,116.2-96.2c-30.1-17.7-57-39.7-80.1-65.3c-46,46.7-73.3,109.3-76,175
		C842.5,820.7,855.9,816.2,869,810.7z"/>
	
		<linearGradient id="SVGID_1_" gradientUnits="userSpaceOnUse" x1="681.0212" y1="-242.7733" x2="1369.184" y2="-242.7733" gradientTransform="matrix(0.9349 -0.3548 -0.3548 -0.9349 21.3761 901.16)">
		<stop  offset="1.239782e-02" style="stop-color:#EF775E"/>
		<stop  offset="0.3394" style="stop-color:#F59F6E"/>
		<stop  offset="0.786" style="stop-color:#FDCD82"/>
		<stop  offset="1" style="stop-color:#FFDD89"/>
	</linearGradient>
	<path class="st1" d="M829,824.1c-26.5,6.6-53.6,9-80.7,7.2c-0.3,27,2.7,54,9,80.8c27,0.7,54.2-1.9,80.8-7.6
		C830.7,877.7,827.8,850.6,829,824.1z"/>
	
		<linearGradient id="SVGID_2_" gradientUnits="userSpaceOnUse" x1="681.0212" y1="-242.5926" x2="1369.184" y2="-242.5926" gradientTransform="matrix(0.9349 -0.3548 -0.3548 -0.9349 21.3761 901.16)">
		<stop  offset="1.239782e-02" style="stop-color:#EF775E"/>
		<stop  offset="0.3394" style="stop-color:#F59F6E"/>
		<stop  offset="0.786" style="stop-color:#FDCD82"/>
		<stop  offset="1" style="stop-color:#FFDD89"/>
	</linearGradient>
	<path class="st2" d="M1282.7,651.8c18.5,19.1,34.2,41.3,46.4,66.1c23.9-13.4,45.9-29.4,65.7-47.9c-13-24.1-28.8-46.3-46.9-66.3
		C1329,622.9,1307,639.1,1282.7,651.8z"/>
	<g>
		
			<linearGradient id="SVGID_3_" gradientUnits="userSpaceOnUse" x1="1369.8641" y1="-486.6272" x2="986.4547" y2="51.5695" gradientTransform="matrix(0.9349 -0.3548 -0.3548 -0.9349 21.3761 901.16)">
			<stop  offset="1.239782e-02" style="stop-color:#EF775E"/>
			<stop  offset="0.3394" style="stop-color:#F59F6E"/>
			<stop  offset="0.786" style="stop-color:#FDCD82"/>
			<stop  offset="1" style="stop-color:#FFDD89"/>
		</linearGradient>
		<path class="st3" d="M923.6,534.8c12,24.6,27.7,46.8,46.3,66.2c9.4-4.9,19-9.2,29.2-13.1c10-3.9,20.2-7,30.5-9.5
			c1.1-26.9-2-53.9-9.2-80.3c-16.7,3.6-33.3,8.6-49.6,14.7C954.2,519.1,938.5,526.5,923.6,534.8z"/>
		
			<linearGradient id="SVGID_4_" gradientUnits="userSpaceOnUse" x1="1220.937" y1="-592.7224" x2="837.5276" y2="-54.5257" gradientTransform="matrix(0.9349 -0.3548 -0.3548 -0.9349 21.3761 901.16)">
			<stop  offset="1.239782e-02" style="stop-color:#EF775E"/>
			<stop  offset="0.3394" style="stop-color:#F59F6E"/>
			<stop  offset="0.786" style="stop-color:#FDCD82"/>
			<stop  offset="1" style="stop-color:#FFDD89"/>
		</linearGradient>
		<path class="st4" d="M1394.8,670.1c-13-24.1-28.8-46.3-46.9-66.3c-31.4-34.8-70.1-63.1-114.2-82.9
			c-42.5-19.1-87.5-29.3-132.7-30.4c6.2,26.6,9.2,53.8,8.8,80.9c65.4,4.4,127.3,33.2,172.8,80.4c18.5,19.1,34.2,41.3,46.4,66.1
			c3.6,7.5,7.1,15.1,10,23.1c51.6,136-17,288.6-153,340.3c-136,51.6-288.6-17-340.3-153c-2.9-7.9-5.6-15.9-7.8-23.9
			c-7.4-26.6-10.3-53.8-9.1-80.3c2.7-65.7,30-128.3,76-175c-18.1-20.1-33.8-42.3-46.9-66.5c-33.2,30.9-60.1,68.2-79.2,110.7
			c-19.8,44.1-30,90.8-30.5,137.8c-0.3,27,2.7,54,9,80.8c3.5,15.1,8,30,13.6,44.7c32.6,85.9,96.7,154,180.6,191.7
			c83.9,37.7,177.4,40.5,263.2,7.9c85.9-32.6,154-96.7,191.7-180.6c37.7-83.9,40.5-177.4,7.9-263.2
			C1408.7,697.8,1402.1,683.6,1394.8,670.1z"/>
	</g>
	<g>
		
			<linearGradient id="SVGID_5_" gradientUnits="userSpaceOnUse" x1="628.8854" y1="265.7523" x2="943.3896" y2="-332.2866" gradientTransform="matrix(0.9202 -0.3914 -0.3914 -0.9202 16.087 850.9595)">
			<stop  offset="1.071236e-02" style="stop-color:#B3CDDD"/>
			<stop  offset="0.4262" style="stop-color:#667A94"/>
			<stop  offset="0.8151" style="stop-color:#33405B"/>
			<stop  offset="1" style="stop-color:#212C46"/>
		</linearGradient>
		<path class="st5" d="M667,812.6c-65.4-26.3-116.5-76.6-144.2-141.4c-57-133.9,5.6-289,139.5-346c3.2-1.3,6.6-2.7,9.8-3.9
			c53.1-20.1,109-21.9,160.4-8.3c2.5-7.9,5.4-15.6,8.4-23.3c7.1-17.7,15.6-34.6,25.4-50.7c-77.4-23.8-160-19.7-235.4,12.3
			c-84.5,36-150.1,102.7-184.4,187.9C412.1,524.5,413,618,449,702.6c36,84.5,102.7,150.1,187.9,184.4c38.9,15.6,79.6,23.9,120.2,25
			c-6.2-26.6-9.2-53.8-9-80.8C720.8,829.4,693.4,823.2,667,812.6z"/>
		
			<linearGradient id="SVGID_6_" gradientUnits="userSpaceOnUse" x1="-19.1935" y1="1620.1824" x2="1183.3508" y2="-462.6855" gradientTransform="matrix(0.9349 -0.3548 -0.3548 -0.9349 21.3761 901.16)">
			<stop  offset="1.071236e-02" style="stop-color:#B3CDDD"/>
			<stop  offset="0.4262" style="stop-color:#667A94"/>
			<stop  offset="0.8151" style="stop-color:#33405B"/>
			<stop  offset="1" style="stop-color:#212C46"/>
		</linearGradient>
		<path class="st6" d="M1082.3,433.3c-29.2-68.5-78.5-124.5-141.5-161.6c-9.9,14.8-18.5,30.9-25.3,47.9c-3.3,8.4-6.3,16.9-8.8,25.5
			c43.9,27.7,80,68.3,101.8,119.6c4.7,11,8.6,22.2,11.6,33.6c7.2,26.3,10.4,53.4,9.2,80.3c-0.8,21.1-4.3,42.1-10.3,62.7
			c-2.5,8.6-5.4,17-8.8,25.3c-6.8,17-15.4,33-25.3,47.9c-28.2,42.4-68.2,75.8-116.2,96.2c-13.1,5.6-26.5,10-40,13.4
			c-1.1,26.6,1.9,53.6,9.1,80.3c16.7-3.6,33.2-8.4,49.4-14.6c4.3-1.6,8.7-3.3,12.8-5.2c67-28.5,122-76.4,159-137.4
			c9.8-16.1,18.2-32.9,25.4-50.7c3.1-7.6,5.9-15.4,8.4-23.1c10.8-33.3,16.3-67.7,16.7-102.1c0.3-27.2-2.7-54.3-8.8-80.9
			C1096.5,471.1,1090.2,452,1082.3,433.3z"/>
	</g>
	<g>
		
			<linearGradient id="SVGID_7_" gradientUnits="userSpaceOnUse" x1="1107.9167" y1="-307.2466" x2="1234.2131" y2="-180.9502" gradientTransform="matrix(0.9349 -0.3548 -0.3548 -0.9349 21.3761 901.16)">
			<stop  offset="1.071236e-02" style="stop-color:#B3CDDD"/>
			<stop  offset="0.4262" style="stop-color:#667A94"/>
			<stop  offset="0.8151" style="stop-color:#33405B"/>
			<stop  offset="1" style="stop-color:#212C46"/>
		</linearGradient>
		<path class="st7" d="M1294.9,734.9c11.8-5.1,23.3-10.7,34.4-16.9c-12.2-24.9-28-46.9-46.4-66.1c-6.3,3.3-12.7,6.3-19.3,9.1
			c-54.6,23.1-113.8,27.4-170.3,12.4c-2.5,7.8-5.4,15.5-8.4,23.1c-7.1,17.7-15.6,34.6-25.4,50.7c73,22.5,150.6,20.1,222.6-7.2
			C1286.3,738.4,1290.6,736.6,1294.9,734.9"/>
		
			<linearGradient id="SVGID_8_" gradientUnits="userSpaceOnUse" x1="994.3275" y1="-194.7072" x2="1479.5939" y2="290.5592" gradientTransform="matrix(0.9349 -0.3548 -0.3548 -0.9349 21.3761 901.16)">
			<stop  offset="1.071236e-02" style="stop-color:#B3CDDD"/>
			<stop  offset="0.4262" style="stop-color:#667A94"/>
			<stop  offset="0.8151" style="stop-color:#33405B"/>
			<stop  offset="1" style="stop-color:#212C46"/>
		</linearGradient>
		<path class="st8" d="M1476.8,283.6c-36-84.5-102.7-150.1-187.9-184.4s-178.7-33.4-263.4,2.5c-67,28.5-122,76.4-159,137.4
			c-9.8,16.1-18.2,32.9-25.4,50.7c-3.1,7.8-5.9,15.5-8.4,23.3c-25.4,78.8-21.8,163,11,240.1c4.4,10.3,9.2,20.2,14.4,29.8
			c13.1,24.2,28.9,46.4,46.9,66.5c23.1,25.7,50.2,47.6,80.1,65.3c9.9-14.8,18.5-30.9,25.3-47.9c3.3-8.3,6.3-16.9,8.8-25.3
			c-18.1-11.4-34.6-24.9-49.2-40.1c-18.6-19.4-34.2-41.6-46.3-66.2c-2.1-4.4-4.3-8.8-6.2-13.4c-24.1-56.6-27.7-118.2-10.7-176.4
			c2.5-8.6,5.5-17.1,8.8-25.5c6.8-17,15.4-33,25.3-47.9c28.2-42.4,68.2-75.8,116.2-96.2c3.3-1.3,6.6-2.7,9.9-4
			c62.2-23.5,130-23,192.1,2c65.4,26.3,116.5,76.6,144.2,141.4c27.6,64.9,28.2,136.6,1.9,202c-13.2,33-32.6,62.3-57,86.9
			c18.1,20.1,33.8,42.3,46.9,66.3c36.5-34,65.3-75.7,84.5-123.3C1513.7,461.6,1512.8,368.1,1476.8,283.6z"/>
	</g>
	
		<linearGradient id="SVGID_9_" gradientUnits="userSpaceOnUse" x1="777.6761" y1="123.7456" x2="718.3138" y2="207.073" gradientTransform="matrix(0.9349 -0.3548 -0.3548 -0.9349 21.3761 901.16)">
		<stop  offset="1.239782e-02" style="stop-color:#EF775E"/>
		<stop  offset="0.3394" style="stop-color:#F59F6E"/>
		<stop  offset="0.786" style="stop-color:#FDCD82"/>
		<stop  offset="1" style="stop-color:#FFDD89"/>
	</linearGradient>
	<circle class="st9" cx="661.4" cy="480.7" r="56.7"/>
	<g class="st10">
		
			<linearGradient id="SVGID_10_" gradientUnits="userSpaceOnUse" x1="1113.548" y1="-410.1833" x2="1063.9513" y2="-340.564" gradientTransform="matrix(0.9349 -0.3548 -0.3548 -0.9349 21.3761 901.16)">
			<stop  offset="1.239782e-02" style="stop-color:#EF775E"/>
			<stop  offset="0.3394" style="stop-color:#F59F6E"/>
			<stop  offset="0.786" style="stop-color:#FDCD82"/>
			<stop  offset="1" style="stop-color:#FFDD89"/>
		</linearGradient>
		<path class="st11" d="M1187.6,906c-5.4,2-11.1,2.9-17,2.7l0,0c-23.5-1.1-41.9-21-40.8-44.5c0.5-11.4,5.4-21.9,13.8-29.7
			s19.3-11.6,30.8-11.2c11.4,0.5,21.9,5.4,29.7,13.8c7.8,8.4,11.6,19.3,11.2,30.8c-0.5,11.4-5.4,21.9-13.8,29.7
			C1197.2,901.1,1192.6,903.9,1187.6,906z M1171,899c8.8,0.4,17.3-2.7,23.8-8.7c6.6-6,10.3-14.2,10.7-23c0.4-8.8-2.7-17.3-8.7-23.8
			c-6-6.6-14.2-10.3-23-10.7s-17.3,2.7-23.8,8.7c-6.6,6-10.3,14.2-10.7,23C1138.5,882.8,1152.7,898.3,1171,899L1171,899z"/>
	</g>
	
		<linearGradient id="SVGID_11_" gradientUnits="userSpaceOnUse" x1="1395.8083" y1="18.5652" x2="1356.9174" y2="73.1569" gradientTransform="matrix(0.9349 -0.3548 -0.3548 -0.9349 21.3761 901.16)">
		<stop  offset="1.071236e-02" style="stop-color:#B3CDDD"/>
		<stop  offset="0.4262" style="stop-color:#667A94"/>
		<stop  offset="0.8151" style="stop-color:#33405B"/>
		<stop  offset="1" style="stop-color:#212C46"/>
	</linearGradient>
	<circle class="st12" cx="1291.5" cy="369.7" r="37.2"/>
	<g class="st10">
		
			<linearGradient id="SVGID_12_" gradientUnits="userSpaceOnUse" x1="1262.6993" y1="163.1709" x2="1224.5289" y2="216.7512" gradientTransform="matrix(0.9349 -0.3548 -0.3548 -0.9349 21.3761 901.16)">
			<stop  offset="1.071236e-02" style="stop-color:#B3CDDD"/>
			<stop  offset="0.4262" style="stop-color:#667A94"/>
			<stop  offset="0.8151" style="stop-color:#33405B"/>
			<stop  offset="1" style="stop-color:#212C46"/>
		</linearGradient>
		<path class="st13" d="M1128.3,313.1c-17,6.4-36-2.1-42.4-19.1c-6.4-17,2.1-36,19.1-42.4c17-6.4,36,2.1,42.4,19.1
			C1153.9,287.7,1145.3,306.7,1128.3,313.1z M1109.9,264.5c-9.9,3.7-14.8,14.8-11.1,24.7c3.7,9.9,14.8,14.8,24.7,11.1
			c9.9-3.7,14.8-14.8,11.1-24.7C1130.9,265.7,1119.8,260.7,1109.9,264.5z"/>
	</g>
	
		<linearGradient id="SVGID_13_" gradientUnits="userSpaceOnUse" x1="968.8055" y1="-480.5257" x2="937.0709" y2="-435.9793" gradientTransform="matrix(0.9349 -0.3548 -0.3548 -0.9349 21.3761 901.16)">
		<stop  offset="1.071236e-02" style="stop-color:#B3CDDD"/>
		<stop  offset="0.4262" style="stop-color:#667A94"/>
		<stop  offset="0.8151" style="stop-color:#33405B"/>
		<stop  offset="1" style="stop-color:#212C46"/>
	</linearGradient>
	<circle class="st14" cx="1074.6" cy="991.3" r="30.4"/>
	
		<linearGradient id="SVGID_14_" gradientUnits="userSpaceOnUse" x1="-487.1559" y1="-1526.9941" x2="-516.6125" y2="-1485.6456" gradientTransform="matrix(0.1602 -0.9871 -0.9871 -0.1602 -704.4847 -96.7075)">
		<stop  offset="1.071236e-02" style="stop-color:#B3CDDD"/>
		<stop  offset="0.4262" style="stop-color:#667A94"/>
		<stop  offset="0.8151" style="stop-color:#33405B"/>
		<stop  offset="1" style="stop-color:#212C46"/>
	</linearGradient>
	<circle class="st15" cx="701.7" cy="640.2" r="28.2"/>
</g>
</svg>
