<?xml version="1.0" encoding="utf-8"?>
<!-- Generator: Adobe Illustrator 23.0.6, SVG Export Plug-In . SVG Version: 6.00 Build 0)  -->
<svg version="1.1" id="Ebene_1" xmlns="http://www.w3.org/2000/svg" xmlns:xlink="http://www.w3.org/1999/xlink" x="0px" y="0px"
	 viewBox="0 0 1920 1281.7" style="enable-background:new 0 0 1920 1281.7;" xml:space="preserve">
<style type="text/css">
	.st0{fill:none;}
	.st1{fill:url(#SVGID_1_);}
	.st2{fill:url(#SVGID_2_);}
	.st3{opacity:0.4;fill:url(#SVGID_3_);enable-background:new    ;}
	.st4{opacity:0.4;fill:url(#SVGID_4_);enable-background:new    ;}
	.st5{opacity:0.4;fill:url(#SVGID_5_);enable-background:new    ;}
	.st6{opacity:0.4;fill:url(#SVGID_6_);enable-background:new    ;}
	.st7{opacity:0.3;fill:url(#SVGID_7_);enable-background:new    ;}
	.st8{opacity:0.2;}
	.st9{fill:url(#SVGID_8_);}
	.st10{opacity:0.3;fill:url(#SVGID_9_);enable-background:new    ;}
	.st11{fill:url(#SVGID_10_);}
	.st12{opacity:0.1;fill:url(#SVGID_11_);enable-background:new    ;}
	.st13{opacity:0.2;fill:url(#SVGID_12_);enable-background:new    ;}
</style>
<g>
	<path class="st0" d="M884.4,581.4c-3.9-7.2-7.5-14.7-10.8-22.3c-24.5-57.5-27.2-120.6-8.2-179.5c-38.5-10.1-80.3-8.8-119.9,6.2
		c-2.4,0.9-4.9,1.9-7.3,2.9c-100.1,42.6-146.9,158.6-104.3,258.7c20.6,48.5,58.9,86,107.8,105.7c19.7,7.9,40.2,12.6,60.8,14
		c0.3-35.1,7.9-70.1,22.8-103C839.5,632.5,859.7,604.5,884.4,581.4z"/>
	<path class="st0" d="M1072.8,573c-0.3,25.7-4.4,51.3-12.5,76.3c42.1,11.2,86.5,8,127.3-9.3c4.9-2.1,9.7-4.4,14.4-6.8
		C1168,597.8,1121.7,576.3,1072.8,573z"/>
	<path class="st0" d="M1066.2,512.5c33.8,0.8,67.4,8.4,99.2,22.7c33,14.8,61.9,36,85.4,62c18.1-18.4,32.6-40.3,42.6-65
		c19.7-48.9,19.2-102.5-1.4-151s-58.9-86-107.8-105.7c-46.4-18.7-97.1-19.2-143.6-1.5c-2.5,0.9-4.9,1.9-7.4,3
		c-35.9,15.3-65.8,40.2-86.9,71.9c47.1,27.7,84,69.6,105.8,120.8C1058.1,483.7,1062.8,498,1066.2,512.5z"/>
	<path class="st0" d="M928.9,535.6c1.4,3.4,3,6.7,4.6,10c11.2-6.3,22.9-11.8,35.1-16.4c12.2-4.6,24.6-8.3,37.1-11
		c-2.3-8.5-5.2-16.9-8.7-25.1c-16.3-38.3-43.3-68.8-76.1-89.4C908.2,447.2,910.9,493.4,928.9,535.6z"/>
	<path class="st0" d="M1012.6,578.3c-7.6,1.9-15.2,4.2-22.8,7.1c-7.5,2.9-14.8,6.1-21.8,9.8c11,11.4,23.3,21.5,36.8,30
		C1009.4,609.8,1012,594,1012.6,578.3z"/>
	<path class="st0" d="M1201.4,699c-53.7,20.4-111.8,22.2-166.4,5.4c-27.7,45.6-68.8,81.4-118.9,102.7c-3.2,1.4-6.4,2.7-9.6,3.9
		c-12.1,4.6-24.4,8.2-36.9,10.9c1.6,6,3.6,11.9,5.8,17.9c38.6,101.7,152.7,153,254.4,114.4s153-152.7,114.4-254.4
		c-2.3-5.9-4.8-11.7-7.5-17.3c-8.3,4.6-16.8,8.9-25.7,12.6C1207.9,696.5,1204.7,697.8,1201.4,699z"/>
	<path class="st0" d="M892.7,751.9c35.9-15.3,65.8-40.2,86.9-71.9c-22.5-13.2-42.6-29.7-59.9-48.8c-34.4,34.9-54.8,81.7-56.8,130.8
		C872.9,759.4,882.9,756,892.7,751.9z"/>
	<g>
		
			<linearGradient id="SVGID_1_" gradientUnits="userSpaceOnUse" x1="1407.8771" y1="351.6955" x2="1121.2267" y2="754.0703" gradientTransform="matrix(0.9349 -0.3548 -0.3548 -0.9349 154.115 1624.5972)">
			<stop  offset="1.239782e-02" style="stop-color:#EF775E"/>
			<stop  offset="0.3394" style="stop-color:#F59F6E"/>
			<stop  offset="0.786" style="stop-color:#FDCD82"/>
			<stop  offset="1" style="stop-color:#FFDD89"/>
		</linearGradient>
		<path class="st1" d="M933.5,545.6c9,18.4,20.7,35,34.6,49.5c7-3.7,14.2-6.9,21.8-9.8c7.5-2.9,15.1-5.2,22.8-7.1
			c0.8-20.1-1.5-40.3-6.9-60c-12.5,2.7-24.9,6.4-37.1,11C956.4,533.9,944.7,539.4,933.5,545.6z"/>
		
			<linearGradient id="SVGID_2_" gradientUnits="userSpaceOnUse" x1="1296.5341" y1="272.375" x2="1009.8837" y2="674.7497" gradientTransform="matrix(0.9349 -0.3548 -0.3548 -0.9349 154.115 1624.5972)">
			<stop  offset="1.239782e-02" style="stop-color:#EF775E"/>
			<stop  offset="0.3394" style="stop-color:#F59F6E"/>
			<stop  offset="0.786" style="stop-color:#FDCD82"/>
			<stop  offset="1" style="stop-color:#FFDD89"/>
		</linearGradient>
		<path class="st2" d="M1285.8,646.8c-9.7-18-21.5-34.6-35.1-49.6c-23.5-26-52.4-47.2-85.4-62c-31.8-14.3-65.4-21.9-99.2-22.7
			c4.6,19.9,6.9,40.2,6.6,60.5c48.9,3.3,95.2,24.8,129.2,60.1c13.8,14.3,25.6,30.9,34.7,49.4c2.7,5.6,5.3,11.3,7.5,17.3
			c38.6,101.7-12.7,215.8-114.4,254.4c-101.7,38.6-215.8-12.7-254.4-114.4c-2.2-5.9-4.2-11.9-5.8-17.9c-5.5-19.9-7.7-40.2-6.8-60
			c2-49.1,22.4-95.9,56.8-130.8c-13.5-15-25.3-31.6-35.1-49.7c-24.8,23.1-44.9,51-59.2,82.8c-14.8,33-22.4,67.9-22.8,103
			c-0.2,20.2,2,40.4,6.7,60.4c2.6,11.3,6,22.4,10.2,33.4c24.4,64.2,72.3,115.1,135,143.3c62.7,28.2,132.6,30.3,196.8,5.9
			s115.1-72.3,143.3-135c28.2-62.7,30.3-132.6,5.9-196.8C1296.2,667.5,1291.3,656.9,1285.8,646.8z"/>
	</g>
	<g>
		
			<linearGradient id="SVGID_3_" gradientUnits="userSpaceOnUse" x1="879.7024" y1="966.7239" x2="1114.8367" y2="519.609" gradientTransform="matrix(0.9202 -0.3914 -0.3914 -0.9202 178.7992 1649.024)">
			<stop  offset="1.071236e-02" style="stop-color:#B3CDDD"/>
			<stop  offset="0.4262" style="stop-color:#667A94"/>
			<stop  offset="0.8151" style="stop-color:#33405B"/>
			<stop  offset="1" style="stop-color:#212C46"/>
		</linearGradient>
		<path class="st3" d="M741.7,753.3c-48.9-19.7-87.1-57.3-107.8-105.7c-42.6-100.1,4.2-216.1,104.3-258.7c2.4-1,4.9-2,7.3-2.9
			c39.7-15,81.5-16.4,119.9-6.2c1.9-5.9,4-11.7,6.3-17.4c5.3-13.2,11.7-25.9,19-37.9c-57.9-17.8-119.6-14.7-176,9.2
			c-63.2,26.9-112.2,76.8-137.9,140.5c-25.7,63.7-25,133.6,1.9,196.9c26.9,63.2,76.8,112.2,140.5,137.9
			c29.1,11.7,59.5,17.9,89.9,18.7c-4.6-19.9-6.9-40.2-6.7-60.4C781.9,765.9,761.4,761.2,741.7,753.3z"/>
		
			<linearGradient id="SVGID_4_" gradientUnits="userSpaceOnUse" x1="369.628" y1="1926.7219" x2="1268.6924" y2="369.4968" gradientTransform="matrix(0.9349 -0.3548 -0.3548 -0.9349 154.115 1624.5972)">
			<stop  offset="1.071236e-02" style="stop-color:#B3CDDD"/>
			<stop  offset="0.4262" style="stop-color:#667A94"/>
			<stop  offset="0.8151" style="stop-color:#33405B"/>
			<stop  offset="1" style="stop-color:#212C46"/>
		</linearGradient>
		<path class="st4" d="M1052.5,469.7c-21.8-51.2-58.7-93.1-105.8-120.8c-7.4,11.1-13.8,23.1-18.9,35.8c-2.5,6.3-4.7,12.6-6.6,19.1
			c32.8,20.7,59.8,51.1,76.1,89.4c3.5,8.2,6.4,16.6,8.7,25.1c5.4,19.7,7.8,39.9,6.9,60c-0.6,15.8-3.2,31.5-7.7,46.9
			c-1.9,6.4-4,12.7-6.6,18.9c-5.1,12.7-11.5,24.7-18.9,35.8c-21.1,31.7-51,56.7-86.9,71.9c-9.8,4.2-19.8,7.5-29.9,10
			c-0.8,19.9,1.4,40.1,6.8,60c12.5-2.7,24.8-6.3,36.9-10.9c3.2-1.2,6.5-2.5,9.6-3.9c50.1-21.3,91.2-57.1,118.9-102.7
			c7.3-12,13.6-24.6,19-37.9c2.3-5.7,4.4-11.5,6.3-17.3c8.1-24.9,12.2-50.6,12.5-76.3c0.2-20.3-2-40.6-6.6-60.5
			C1063.1,498,1058.4,483.7,1052.5,469.7z"/>
	</g>
	<g>
		
			<linearGradient id="SVGID_5_" gradientUnits="userSpaceOnUse" x1="1212.036" y1="485.8067" x2="1306.4597" y2="580.2303" gradientTransform="matrix(0.9349 -0.3548 -0.3548 -0.9349 154.115 1624.5972)">
			<stop  offset="1.071236e-02" style="stop-color:#B3CDDD"/>
			<stop  offset="0.4262" style="stop-color:#667A94"/>
			<stop  offset="0.8151" style="stop-color:#33405B"/>
			<stop  offset="1" style="stop-color:#212C46"/>
		</linearGradient>
		<path class="st5" d="M1211.1,695.2c8.8-3.8,17.4-8,25.7-12.6c-9.1-18.6-20.9-35.1-34.7-49.4c-4.7,2.5-9.5,4.7-14.4,6.8
			c-40.8,17.3-85.1,20.5-127.3,9.3c-1.9,5.8-4,11.6-6.3,17.3c-5.3,13.2-11.7,25.9-19,37.9c54.6,16.8,112.6,15,166.4-5.4
			C1204.7,697.8,1207.9,696.5,1211.1,695.2"/>
		
			<linearGradient id="SVGID_6_" gradientUnits="userSpaceOnUse" x1="1127.1128" y1="569.9451" x2="1489.9149" y2="932.7473" gradientTransform="matrix(0.9349 -0.3548 -0.3548 -0.9349 154.115 1624.5972)">
			<stop  offset="1.071236e-02" style="stop-color:#B3CDDD"/>
			<stop  offset="0.4262" style="stop-color:#667A94"/>
			<stop  offset="0.8151" style="stop-color:#33405B"/>
			<stop  offset="1" style="stop-color:#212C46"/>
		</linearGradient>
		<path class="st6" d="M1347.1,357.8c-26.9-63.2-76.8-112.2-140.5-137.9s-133.6-25-196.9,1.9c-50.1,21.3-91.2,57.1-118.9,102.7
			c-7.3,12-13.6,24.6-19,37.9c-2.3,5.8-4.4,11.6-6.3,17.4c-19,58.9-16.3,121.9,8.2,179.5c3.3,7.7,6.9,15.1,10.8,22.3
			c9.8,18.1,21.6,34.7,35.1,49.7c17.3,19.2,37.5,35.6,59.9,48.8c7.4-11.1,13.8-23.1,18.9-35.8c2.5-6.2,4.7-12.6,6.6-18.9
			c-13.5-8.5-25.9-18.6-36.8-30c-13.9-14.5-25.6-31.1-34.6-49.5c-1.6-3.3-3.2-6.6-4.6-10c-18-42.3-20.7-88.4-8-131.9
			c1.9-6.4,4.1-12.8,6.6-19.1c5.1-12.7,11.5-24.7,18.9-35.8c21.1-31.7,51-56.7,86.9-71.9c2.5-1,4.9-2,7.4-3
			c46.5-17.6,97.2-17.2,143.6,1.5c48.9,19.7,87.1,57.3,107.8,105.7c20.6,48.5,21.1,102.1,1.4,151c-9.9,24.7-24.4,46.6-42.6,65
			c13.5,15,25.3,31.6,35.1,49.6c27.3-25.4,48.8-56.6,63.2-92.2C1374.7,490.9,1374,421,1347.1,357.8z"/>
	</g>
	
		<linearGradient id="SVGID_7_" gradientUnits="userSpaceOnUse" x1="965.1365" y1="808.0316" x2="920.7552" y2="870.3301" gradientTransform="matrix(0.9349 -0.3548 -0.3548 -0.9349 154.115 1624.5972)">
		<stop  offset="1.239782e-02" style="stop-color:#EF775E"/>
		<stop  offset="0.3394" style="stop-color:#F59F6E"/>
		<stop  offset="0.786" style="stop-color:#FDCD82"/>
		<stop  offset="1" style="stop-color:#FFDD89"/>
	</linearGradient>
	<circle class="st7" cx="737.5" cy="505.2" r="42.4"/>
	<g class="st8">
		
			<linearGradient id="SVGID_8_" gradientUnits="userSpaceOnUse" x1="1216.2461" y1="408.8477" x2="1179.166" y2="460.8975" gradientTransform="matrix(0.9349 -0.3548 -0.3548 -0.9349 154.115 1624.5972)">
			<stop  offset="1.239782e-02" style="stop-color:#EF775E"/>
			<stop  offset="0.3394" style="stop-color:#F59F6E"/>
			<stop  offset="0.786" style="stop-color:#FDCD82"/>
			<stop  offset="1" style="stop-color:#FFDD89"/>
		</linearGradient>
		<path class="st9" d="M1130.9,823.1c-4,1.5-8.3,2.2-12.7,2l0,0c-17.6-0.8-31.3-15.7-30.5-33.3c0.4-8.5,4-16.4,10.3-22.2
			s14.4-8.7,23-8.4c8.5,0.4,16.4,4,22.2,10.3c5.8,6.3,8.7,14.4,8.4,23c-0.4,8.5-4,16.4-10.3,22.2
			C1138.1,819.5,1134.6,821.6,1130.9,823.1z M1118.5,817.9c6.6,0.3,12.9-2,17.8-6.5s7.7-10.6,8-17.2c0.3-6.6-2-12.9-6.5-17.8
			c-4.5-4.9-10.6-7.7-17.2-8s-12.9,2-17.8,6.5s-7.7,10.6-8,17.2C1094.2,805.8,1104.8,817.4,1118.5,817.9L1118.5,817.9z"/>
	</g>
	
		<linearGradient id="SVGID_9_" gradientUnits="userSpaceOnUse" x1="1427.2739" y1="729.395" x2="1398.1976" y2="770.2097" gradientTransform="matrix(0.9349 -0.3548 -0.3548 -0.9349 154.115 1624.5972)">
		<stop  offset="1.071236e-02" style="stop-color:#B3CDDD"/>
		<stop  offset="0.4262" style="stop-color:#667A94"/>
		<stop  offset="0.8151" style="stop-color:#33405B"/>
		<stop  offset="1" style="stop-color:#212C46"/>
	</linearGradient>
	<circle class="st10" cx="1208.6" cy="422.2" r="27.8"/>
	<g class="st8">
		
			<linearGradient id="SVGID_10_" gradientUnits="userSpaceOnUse" x1="1327.757" y1="837.5073" x2="1299.2195" y2="877.5659" gradientTransform="matrix(0.9349 -0.3548 -0.3548 -0.9349 154.115 1624.5972)">
			<stop  offset="1.071236e-02" style="stop-color:#B3CDDD"/>
			<stop  offset="0.4262" style="stop-color:#667A94"/>
			<stop  offset="0.8151" style="stop-color:#33405B"/>
			<stop  offset="1" style="stop-color:#212C46"/>
		</linearGradient>
		<path class="st11" d="M1086.6,379.9c-12.7,4.8-26.9-1.6-31.7-14.3c-4.8-12.7,1.6-26.9,14.3-31.7c12.7-4.8,26.9,1.6,31.7,14.3
			C1105.7,360.9,1099.3,375.1,1086.6,379.9z M1072.8,343.5c-7.4,2.8-11.1,11.1-8.3,18.5s11.1,11.1,18.5,8.3
			c7.4-2.8,11.1-11.1,8.3-18.5S1080.2,340.7,1072.8,343.5z"/>
	</g>
	
		<linearGradient id="SVGID_11_" gradientUnits="userSpaceOnUse" x1="1108.0316" y1="356.2572" x2="1084.3057" y2="389.5616" gradientTransform="matrix(0.9349 -0.3548 -0.3548 -0.9349 154.115 1624.5972)">
		<stop  offset="1.071236e-02" style="stop-color:#B3CDDD"/>
		<stop  offset="0.4262" style="stop-color:#667A94"/>
		<stop  offset="0.8151" style="stop-color:#33405B"/>
		<stop  offset="1" style="stop-color:#212C46"/>
	</linearGradient>
	<circle class="st12" cx="1046.4" cy="886.9" r="22.7"/>
	
		<linearGradient id="SVGID_12_" gradientUnits="userSpaceOnUse" x1="1247.5715" y1="428.3847" x2="1225.5487" y2="459.2983" gradientTransform="matrix(0.1602 -0.9871 -0.9871 -0.1602 1007.8675 1915.9894)">
		<stop  offset="1.071236e-02" style="stop-color:#B3CDDD"/>
		<stop  offset="0.4262" style="stop-color:#667A94"/>
		<stop  offset="0.8151" style="stop-color:#33405B"/>
		<stop  offset="1" style="stop-color:#212C46"/>
	</linearGradient>
	<circle class="st13" cx="767.6" cy="624.4" r="21.1"/>
</g>
</svg>
