<?xml version="1.0" encoding="utf-8"?>
<!-- Generator: Adobe Illustrator 23.0.6, SVG Export Plug-In . SVG Version: 6.00 Build 0)  -->
<svg version="1.1" id="Ebene_1" xmlns="http://www.w3.org/2000/svg" xmlns:xlink="http://www.w3.org/1999/xlink" x="0px" y="0px"
	 viewBox="0 0 1920 1281.7" style="enable-background:new 0 0 1920 1281.7;" xml:space="preserve">
<style type="text/css">
	.st0{opacity:0.2;fill:url(#SVGID_1_);enable-background:new    ;}
	.st1{opacity:0.5;}
	.st2{fill:url(#SVGID_2_);}
	.st3{fill:url(#SVGID_3_);}
	.st4{opacity:0.7;}
	.st5{fill:url(#SVGID_4_);}
	.st6{opacity:0.2;}
	.st7{fill:url(#SVGID_5_);}
	.st8{opacity:0.1;}
	.st9{fill:url(#SVGID_6_);}
	.st10{fill:url(#SVGID_7_);}
	.st11{fill:url(#SVGID_8_);}
	.st12{fill:url(#SVGID_9_);}
	.st13{fill:url(#SVGID_10_);}
	.st14{fill:url(#SVGID_11_);}
	.st15{fill:url(#SVGID_12_);}
	.st16{opacity:0.8;}
	.st17{fill:url(#SVGID_13_);}
	.st18{fill:url(#SVGID_14_);}
	.st19{fill:url(#SVGID_15_);}
	.st20{fill:url(#SVGID_16_);}
	.st21{fill:url(#SVGID_17_);}
	.st22{fill:url(#SVGID_18_);}
</style>
<linearGradient id="SVGID_1_" gradientUnits="userSpaceOnUse" x1="-2783.6172" y1="-1019.2185" x2="-1626.6173" y2="-1019.2185" gradientTransform="matrix(0 1 1 0 2000.0186 2848.7173)">
	<stop  offset="1.071236e-02" style="stop-color:#BDE0DD"/>
	<stop  offset="0.6303" style="stop-color:#A7BFDA"/>
	<stop  offset="1" style="stop-color:#9EAFD7"/>
</linearGradient>
<circle class="st0" cx="980.8" cy="643.6" r="578.5"/>
<g class="st1">
	
		<linearGradient id="SVGID_2_" gradientUnits="userSpaceOnUse" x1="1298.4498" y1="1907.1505" x2="1405.3505" y2="1800.2498" gradientTransform="matrix(1 0 0 -1 0 2364)">
		<stop  offset="1.071236e-02" style="stop-color:#9BD2CD"/>
		<stop  offset="0.3244" style="stop-color:#84B4CB"/>
		<stop  offset="0.7812" style="stop-color:#688BC2"/>
		<stop  offset="1" style="stop-color:#5E7ABC"/>
	</linearGradient>
	<path class="st2" d="M1351.9,474.5c9.6,0,18.5,3.8,25.3,10.5c6.7,6.7,10.5,15.7,10.5,25.3s-3.8,18.5-10.5,25.3
		c-6.7,6.7-15.7,10.5-25.3,10.5c-9.6,0-18.5-3.8-25.3-10.5c-6.7-6.7-10.5-15.7-10.5-25.3c0-9.6,3.8-18.5,10.5-25.3
		C1333.3,478.2,1342.3,474.5,1351.9,474.5 M1351.9,434.6c-19.4,0-38.7,7.4-53.4,22.2c-29.5,29.5-29.5,77.5,0,107
		c14.8,14.8,34.1,22.2,53.4,22.2c19.4,0,38.7-7.4,53.4-22.2c29.5-29.5,29.5-77.5,0-107C1390.6,442,1371.1,434.6,1351.9,434.6
		L1351.9,434.6z"/>
</g>
<g>
	
		<linearGradient id="SVGID_3_" gradientUnits="userSpaceOnUse" x1="-1417.2822" y1="-481.57" x2="-1294.5269" y2="-481.57" gradientTransform="matrix(0.7071 0.7071 0.7071 -0.7071 1903.2783 1108.2421)">
		<stop  offset="1.071236e-02" style="stop-color:#9BD2CD"/>
		<stop  offset="0.3244" style="stop-color:#84B4CB"/>
		<stop  offset="0.7812" style="stop-color:#688BC2"/>
		<stop  offset="1" style="stop-color:#5E7ABC"/>
	</linearGradient>
	<path class="st3" d="M604,551.3c-15.7,0-31.4-6-43.4-17.9c-23.9-23.9-23.9-62.9,0-86.8s62.9-23.9,86.8,0
		c23.9,23.9,23.9,62.9,0,86.8C635.5,545.4,619.7,551.3,604,551.3z M604,454.2c-9.1,0-18.4,3.5-25.3,10.5
		c-13.9,13.9-13.9,36.6,0,50.6c13.9,13.9,36.6,13.9,50.6,0c13.9-13.9,13.9-36.6,0-50.6C622.3,457.7,613.2,454.2,604,454.2z"/>
</g>
<g class="st4">
	
		<linearGradient id="SVGID_4_" gradientUnits="userSpaceOnUse" x1="336.7465" y1="1341.8165" x2="430.9442" y2="1341.8165" gradientTransform="matrix(-0.79 0.6132 0.6132 0.79 498.6599 -1058.8278)">
		<stop  offset="1.071236e-02" style="stop-color:#9BD2CD"/>
		<stop  offset="0.3244" style="stop-color:#84B4CB"/>
		<stop  offset="0.7812" style="stop-color:#688BC2"/>
		<stop  offset="1" style="stop-color:#5E7ABC"/>
	</linearGradient>
	<circle class="st5" cx="1018.2" cy="236.6" r="47"/>
</g>
<g class="st6">
	
		<linearGradient id="SVGID_5_" gradientUnits="userSpaceOnUse" x1="-1250.6161" y1="2881.6929" x2="-1221.1351" y2="2881.6929" gradientTransform="matrix(0.9922 0.125 0.125 -0.9922 1459.1642 3711.4927)">
		<stop  offset="1.071236e-02" style="stop-color:#B3CDDD"/>
		<stop  offset="0.4262" style="stop-color:#667A94"/>
		<stop  offset="0.8151" style="stop-color:#33405B"/>
		<stop  offset="1" style="stop-color:#212C46"/>
	</linearGradient>
	<circle class="st7" cx="593.2" cy="697.8" r="14.8"/>
</g>
<g class="st8">
	
		<linearGradient id="SVGID_6_" gradientUnits="userSpaceOnUse" x1="-1138.5358" y1="3130.0425" x2="-1091.5862" y2="3130.0425" gradientTransform="matrix(0.9922 0.125 0.125 -0.9922 1459.1642 3711.4927)">
		<stop  offset="1.071236e-02" style="stop-color:#B3CDDD"/>
		<stop  offset="0.4262" style="stop-color:#667A94"/>
		<stop  offset="0.8151" style="stop-color:#33405B"/>
		<stop  offset="1" style="stop-color:#212C46"/>
	</linearGradient>
	<circle class="st9" cx="744.2" cy="466.5" r="23.5"/>
</g>
<g class="st8">
	
		<linearGradient id="SVGID_7_" gradientUnits="userSpaceOnUse" x1="-317.2458" y1="1041.6932" x2="-234.0589" y2="1041.6932" gradientTransform="matrix(-0.125 0.9922 0.9922 0.125 317.8891 867.7822)">
		<stop  offset="1.071236e-02" style="stop-color:#B3CDDD"/>
		<stop  offset="0.4262" style="stop-color:#667A94"/>
		<stop  offset="0.8151" style="stop-color:#33405B"/>
		<stop  offset="1" style="stop-color:#212C46"/>
	</linearGradient>
	<circle class="st10" cx="1385.9" cy="724.6" r="41.7"/>
</g>
<g class="st8">
	
		<linearGradient id="SVGID_8_" gradientUnits="userSpaceOnUse" x1="-13.4091" y1="969.2191" x2="18.8581" y2="969.2191" gradientTransform="matrix(-0.125 0.9922 0.9922 0.125 317.8891 867.7822)">
		<stop  offset="1.071236e-02" style="stop-color:#B3CDDD"/>
		<stop  offset="0.4262" style="stop-color:#667A94"/>
		<stop  offset="0.8151" style="stop-color:#33405B"/>
		<stop  offset="1" style="stop-color:#212C46"/>
	</linearGradient>
	<circle class="st11" cx="1279.2" cy="991.7" r="16.1"/>
</g>
<g class="st8">
	
		<linearGradient id="SVGID_9_" gradientUnits="userSpaceOnUse" x1="-667.8018" y1="427.4826" x2="-635.5347" y2="427.4826" gradientTransform="matrix(-0.125 0.9922 0.9922 0.125 317.8891 867.7822)">
		<stop  offset="1.071236e-02" style="stop-color:#B3CDDD"/>
		<stop  offset="0.4262" style="stop-color:#667A94"/>
		<stop  offset="0.8151" style="stop-color:#33405B"/>
		<stop  offset="1" style="stop-color:#212C46"/>
	</linearGradient>
	<circle class="st12" cx="823.5" cy="274.6" r="16.1"/>
</g>
<g class="st8">
	
		<linearGradient id="SVGID_10_" gradientUnits="userSpaceOnUse" x1="39.096" y1="614.6459" x2="149.9312" y2="614.6459" gradientTransform="matrix(-0.125 0.9922 0.9922 0.125 317.8891 867.7822)">
		<stop  offset="1.071236e-02" style="stop-color:#B3CDDD"/>
		<stop  offset="0.4262" style="stop-color:#667A94"/>
		<stop  offset="0.8151" style="stop-color:#33405B"/>
		<stop  offset="1" style="stop-color:#212C46"/>
	</linearGradient>
	<circle class="st13" cx="915.9" cy="1038.6" r="55.5"/>
</g>
<g class="st8">
	
		<linearGradient id="SVGID_11_" gradientUnits="userSpaceOnUse" x1="-75.3165" y1="268.2309" x2="6.4151" y2="268.2309" gradientTransform="matrix(-0.125 0.9922 0.9922 0.125 317.8891 867.7822)">
		<stop  offset="1.071236e-02" style="stop-color:#B3CDDD"/>
		<stop  offset="0.4262" style="stop-color:#667A94"/>
		<stop  offset="0.8151" style="stop-color:#33405B"/>
		<stop  offset="1" style="stop-color:#212C46"/>
	</linearGradient>
	<circle class="st14" cx="588.3" cy="867.4" r="41"/>
</g>
<g class="st8">
	
		<linearGradient id="SVGID_12_" gradientUnits="userSpaceOnUse" x1="-629.587" y1="878.49" x2="-547.8554" y2="878.49" gradientTransform="matrix(-0.125 0.9922 0.9922 0.125 317.8891 867.7822)">
		<stop  offset="1.071236e-02" style="stop-color:#B3CDDD"/>
		<stop  offset="0.4262" style="stop-color:#667A94"/>
		<stop  offset="0.8151" style="stop-color:#33405B"/>
		<stop  offset="1" style="stop-color:#212C46"/>
	</linearGradient>
	<circle class="st15" cx="1263.1" cy="393.6" r="41"/>
</g>
<g class="st16">
	
		<linearGradient id="SVGID_13_" gradientUnits="userSpaceOnUse" x1="-592.9207" y1="2851.9604" x2="-550.8264" y2="2851.9604" gradientTransform="matrix(0.9922 0.125 0.125 -0.9922 1459.1642 3711.4927)">
		<stop  offset="1.071236e-02" style="stop-color:#9BD2CD"/>
		<stop  offset="0.3244" style="stop-color:#84B4CB"/>
		<stop  offset="0.7812" style="stop-color:#688BC2"/>
		<stop  offset="1" style="stop-color:#5E7ABC"/>
	</linearGradient>
	<circle class="st17" cx="1248.3" cy="810.3" r="21.1"/>
</g>
<g>
	
		<linearGradient id="SVGID_14_" gradientUnits="userSpaceOnUse" x1="-946.4248" y1="2629.1343" x2="-904.3306" y2="2629.1343" gradientTransform="matrix(0.9922 0.125 0.125 -0.9922 1459.1642 3711.4927)">
		<stop  offset="1.071236e-02" style="stop-color:#9BD2CD"/>
		<stop  offset="0.3244" style="stop-color:#84B4CB"/>
		<stop  offset="0.7812" style="stop-color:#688BC2"/>
		<stop  offset="1" style="stop-color:#5E7ABC"/>
	</linearGradient>
	<circle class="st18" cx="869.7" cy="987.2" r="21.1"/>
</g>
<g>
	
		<linearGradient id="SVGID_15_" gradientUnits="userSpaceOnUse" x1="2730.9041" y1="-1677.8446" x2="2803.5039" y2="-1677.8446" gradientTransform="matrix(0 1 1 0 2838.7446 -1791.604)">
		<stop  offset="1.071236e-02" style="stop-color:#9BD2CD"/>
		<stop  offset="0.3244" style="stop-color:#84B4CB"/>
		<stop  offset="0.7812" style="stop-color:#688BC2"/>
		<stop  offset="1" style="stop-color:#5E7ABC"/>
	</linearGradient>
	<circle class="st19" cx="1160.9" cy="975.6" r="36.3"/>
</g>
<linearGradient id="SVGID_16_" gradientUnits="userSpaceOnUse" x1="971.2001" y1="1619.5" x2="971.2001" y2="1968.8" gradientTransform="matrix(1 0 0 -1 0 2364)">
	<stop  offset="1.071236e-02" style="stop-color:#272A5B"/>
	<stop  offset="1" style="stop-color:#005B8E"/>
</linearGradient>
<path class="st20" d="M1130.5,395.2c-67.7,0-126.8,36.4-159.3,90.5c-32.4-54.1-91.8-90.5-159.3-90.5c-14.5,0-26.3,11.8-26.3,26.3
	s11.8,26.3,26.3,26.3c73.3,0,133.1,59.7,133.1,133.1v66.8c-15.3,9-25.7,25.8-25.7,44.9c0,28.8,23.3,51.9,51.9,51.9
	c28.7,0,51.9-23.3,51.9-51.9c0-19.1-10.4-35.8-25.7-44.9v-66.8c0-73.3,59.7-133.1,133.1-133.1c14.5,0,26.3-11.8,26.3-26.3
	C1156.8,406.9,1145,395.2,1130.5,395.2z"/>
<g>
	
		<linearGradient id="SVGID_17_" gradientUnits="userSpaceOnUse" x1="971.4501" y1="104.5" x2="971.4501" y2="-239.0643" gradientTransform="matrix(1 0 0 1 0 782)">
		<stop  offset="1.239782e-02" style="stop-color:#EF775E"/>
		<stop  offset="0.3394" style="stop-color:#F59F6E"/>
		<stop  offset="0.786" style="stop-color:#FDCD82"/>
		<stop  offset="1" style="stop-color:#FFDD89"/>
	</linearGradient>
	<path class="st21" d="M971.4,886.5c-51.8,0-100.5-20.2-137.1-56.8c-36.7-36.7-56.8-85.4-56.8-137.1c0-32.6,8.2-64.9,23.9-93.3
		c10.3-18.7,23.5-35.5,39.3-49.9c9.6-8.9,24.7-8.1,33.5,1.5c8.9,9.6,8.1,24.7-1.5,33.5c-11.9,10.9-22,23.6-29.7,37.8
		c-11.8,21.4-18,45.8-18,70.4c0,80.8,65.8,146.5,146.5,146.5c80.8,0,146.5-65.8,146.5-146.5c0-41.2-17.5-80.7-48-108.4
		c-9.7-8.8-10.4-23.8-1.6-33.5s23.8-10.4,33.5-1.6c19.8,18,35.4,39.4,46.3,63.7c11.4,25.1,17.2,52,17.2,79.8
		c0,51.8-20.2,100.5-56.8,137.1C1071.9,866.4,1023.3,886.5,971.4,886.5z"/>
</g>
<g class="st4">
	
		<linearGradient id="SVGID_18_" gradientUnits="userSpaceOnUse" x1="4792.8984" y1="-1375.9025" x2="4899.7598" y2="-1375.9025" gradientTransform="matrix(-0.7071 -0.7071 -0.7071 0.7071 3125.4465 5254.6479)">
		<stop  offset="1.071236e-02" style="stop-color:#9BD2CD"/>
		<stop  offset="0.3244" style="stop-color:#84B4CB"/>
		<stop  offset="0.7812" style="stop-color:#688BC2"/>
		<stop  offset="1" style="stop-color:#5E7ABC"/>
	</linearGradient>
	<circle class="st22" cx="671.6" cy="855" r="53.3"/>
</g>
</svg>
