<?xml version="1.0" encoding="utf-8"?>
<!-- Generator: Adobe Illustrator 23.0.6, SVG Export Plug-In . SVG Version: 6.00 Build 0)  -->
<svg version="1.1" id="Ebene_1" xmlns="http://www.w3.org/2000/svg" xmlns:xlink="http://www.w3.org/1999/xlink" x="0px" y="0px"
	 viewBox="0 0 200 200" style="enable-background:new 0 0 200 200;" xml:space="preserve">
<style type="text/css">
	.st0{fill:#1E183B;}
	.st1{fill-rule:evenodd;clip-rule:evenodd;fill:#1E183B;}
</style>
<g>
	<polygon class="st0" points="57.9,125.7 50.2,118 38.7,118 38.7,141.5 51.1,141.5 51.1,132.9 57.9,139.7 64.7,132.9 64.7,141.5 
		77.2,141.5 77.2,118 65.6,118 	"/>
	<path class="st0" d="M93.9,118l-15.4,23.6h13l1.7-2.6h14.4l1.7,2.6h13L106.8,118H93.9z M97.5,132.3l2.9-4.5l2.9,4.5H97.5z"/>
	<polygon class="st0" points="149.3,128.1 135.6,118 123.4,118 123.4,141.5 135.9,141.5 135.9,131.5 149.5,141.5 161.8,141.5 
		161.8,118 149.3,118 	"/>
	<path class="st0" d="M100.3,57.4c-41.8,0-75.8,33.9-75.8,75.8c0,2.8,0.2,5.6,0.5,8.3h8.5c-0.3-2.7-0.5-5.5-0.5-8.3
		c0-37.2,30.1-67.3,67.3-67.3c37.2,0,67.3,30.1,67.3,67.3c0,2.8-0.2,5.6-0.5,8.3h8.5c0.3-2.7,0.5-5.5,0.5-8.3
		C176.1,91.4,142.2,57.4,100.3,57.4z"/>
</g>
</svg>
