<?xml version="1.0" encoding="utf-8"?>
<!-- Generator: Adobe Illustrator 23.0.6, SVG Export Plug-In . SVG Version: 6.00 Build 0)  -->
<svg version="1.1" id="Ebene_1" xmlns="http://www.w3.org/2000/svg" xmlns:xlink="http://www.w3.org/1999/xlink" x="0px" y="0px"
	 viewBox="0 0 200 200" height="150" width="150" style="enable-background:new 0 0 200 200;" xml:space="preserve">
<style type="text/css">
	.st0{fill:#1E183B;}
	.st1{fill-rule:evenodd;clip-rule:evenodd;fill:#1E183B;}
</style>
<path id="path2521" class="st0" d="M187.9,107.7l0.8-3.6l-4.2,1.1l-0.5,2.5h-2.3l-0.5,2.8h2.1l-0.7,3.2c-0.3,1.2-0.4,1.8-0.4,2.4
	c0,2.4,1.6,3.4,3.6,3.4c0.8,0,1.6-0.1,2.5-0.2l0.4-2.6c-0.4,0.1-0.9,0.3-1.3,0.3c-0.8,0-1.3-0.5-1.3-1.3c0-0.6,0.1-1.1,0.3-2
	l0.7-3.2h2.9l0.5-2.8H187.9z M179.6,113.9c0.2-1.2,0.3-1.7,0.3-2.4c0-2.2-1.3-4-3.6-4c-2.1,0-3.3,0.9-4.4,2.1h0l0.3-1.9h-3.7
	c-0.1,1-0.3,2-0.5,3l-1.8,8.5h4l1.1-5.3c0.3-1.7,1.3-3.1,2.9-3.1c1.1,0,1.5,0.6,1.5,1.3c0,0.6-0.2,1.2-0.3,1.7l-1.1,5.4h4.1
	L179.6,113.9z M165.6,114.6c0.2-0.7,0.3-1.7,0.3-2.2c0-3.5-2.3-5-5.3-5c-5.1,0-6.9,4.1-6.9,6.7c0,2.9,2.1,5.2,5.9,5.2
	c1.2,0,2.6-0.2,4-0.6l0.5-2.8c-1.1,0.5-2.5,0.8-3.6,0.8c-2.4,0-3-1-3.1-2.2L165.6,114.6L165.6,114.6z M162.6,112.4h-4.9
	c0.3-1.1,1.2-2.3,2.9-2.3C162.1,110.1,162.6,111.1,162.6,112.4 M152.5,113.5c0.2-0.8,0.3-1.8,0.3-2.6c0-2.6-1.8-3.4-3.6-3.4
	c-1.7,0-3.1,0.9-4.1,2.3c-0.3-1.6-1.7-2.3-3-2.3c-1.6,0-3.1,0.9-4,2.3l0,0l0.4-2.1H135c-0.1,1-0.3,2-0.5,3l-1.8,8.5h4l1.1-5.3
	c0.3-1.2,0.7-3.1,2.3-3.1c0.9,0,1.3,0.4,1.3,1.2c0,0.5-0.1,1.1-0.2,1.7l-1.2,5.6h4l1.1-5.3c0.3-1.2,0.7-3.1,2.3-3.1
	c0.9,0,1.3,0.4,1.3,1.2c0,0.5-0.1,1.1-0.2,1.7l-1.1,5.6h4L152.5,113.5z M133.7,93.9c0.2-1.2,0.3-1.7,0.3-2.4c0-2.2-1.3-4-3.6-4
	c-2.1,0-3.3,0.9-4.4,2.1h0l0.3-1.9h-3.7c-0.1,1-0.3,2-0.5,3l-1.8,8.5h4l1.1-5.3c0.3-1.7,1.3-3.1,2.9-3.1c1.1,0,1.5,0.6,1.5,1.3
	c0,0.6-0.2,1.2-0.3,1.7l-1.1,5.4h4.1L133.7,93.9z M120.2,92.6c0-2.9-2.1-5.1-6-5.1c-4.5,0-7.4,2.7-7.4,6.7c0,2.9,1.7,5.2,6,5.2
	C117.1,99.5,120.2,97.4,120.2,92.6 M116.1,92.6c0,2.6-1.2,4.1-3,4.1c-1.3,0-2.1-1-2.1-2.5c0-1.8,1.2-3.9,3.1-3.9
	C115.6,90.3,116.1,91.4,116.1,92.6 M107.2,83.9c0-1.1-0.8-1.8-1.9-1.8c-1.4,0-2.5,1.1-2.5,2.4c0,1.2,0.7,1.9,1.9,1.9
	C106.2,86.4,107.2,85.3,107.2,83.9 M106.4,87.8h-4L100,99.2h4L106.4,87.8z M99.1,93.9c0.2-1.2,0.3-1.7,0.3-2.4c0-2.2-1.3-4-3.6-4
	c-2.1,0-3.3,0.9-4.4,2.1h0l0.3-1.9H88c-0.1,1-0.3,2-0.5,3l-1.8,8.5h4l1.1-5.3c0.3-1.7,1.3-3.1,2.9-3.1c1.1,0,1.5,0.6,1.5,1.3
	c0,0.6-0.2,1.2-0.3,1.7l-1.1,5.4H98L99.1,93.9z M85.4,91l1.5-7.1h-4.1l-1.5,6.9c-0.5,2.5-1,5.6-3.6,5.6c-1.4,0-2.2-1-2.2-2.2
	c0-0.4,0.1-0.9,0.3-1.7l1.9-8.7h-4.2l-1.7,7.9c-0.2,0.7-0.3,1.7-0.3,2.9c0,3.6,2.7,4.8,6.2,4.8C83.2,99.5,84.4,95.9,85.4,91
	 M73.4,103.8h-4.1l-3.2,15.3h4.1L73.4,103.8z M57.3,99.6l4.6-22h-5.6l-3.7,18c-1.5,7.4-5.6,11.4-11.5,12.1
	c-5.9,0.7-11.2-3.5-9.4-11.6c0.7-3.1,1.7-8.1,2.6-12.3H17.9l-3.3,15.8c-2.5,12,5.2,21.4,17.2,21.4C43.7,121,54.3,115.2,57.3,99.6
	 M53.2,76.8c0-4-2.7-6.3-6.6-6.3c-4.8,0-8.5,3.7-8.5,8.5c0,4,2.4,6.5,6.5,6.5C49.7,85.5,53.2,81.8,53.2,76.8 M74.2,110.7l-1.8,8.5h4
	l1.1-5.3c0.3-1.7,1.3-3.1,2.9-3.1c1.1,0,1.5,0.6,1.5,1.3c0,0.6-0.1,1.2-0.3,1.7l-1.1,5.4h4.1l1.1-5.3c0.2-1.2,0.3-1.7,0.3-2.4
	c0-2.2-1.3-4-3.6-4c-2.1,0-3.3,0.9-4.4,2.1h0l0.3-1.9h-3.7C74.6,108.8,74.4,109.7,74.2,110.7 M91.5,107.7h-4l1.9,11.5h4.5l6.7-11.5
	h-4.3l-4,8.2h0L91.5,107.7z M99.7,114.2c0,2.9,2.1,5.2,5.9,5.2c1.2,0,2.6-0.2,4-0.6l0.5-2.8c-1.1,0.5-2.5,0.8-3.6,0.8
	c-2.4,0-3-1-3.1-2.2h8.1c0.2-0.7,0.3-1.7,0.3-2.2c0-3.5-2.3-5-5.3-5C101.5,107.5,99.7,111.6,99.7,114.2 M103.7,112.4
	c0.3-1.1,1.2-2.3,2.9-2.3c1.5,0,1.9,1,1.9,2.3H103.7z M112.7,116.2l-0.8,2.7c1.2,0.4,3.1,0.6,4.8,0.6c3,0,5.4-1.5,5.4-4.3
	c0-2.9-4.9-2.8-4.9-4.1c0-0.8,1-1,1.8-1c1.2,0,2.2,0.2,3.2,0.6l0.8-2.6c-1.4-0.5-2.8-0.7-3.8-0.7c-2.7,0-5.8,1.1-5.8,3.8
	c0,3.8,4.7,3,4.7,4.6c0,0.9-1.6,1-2.2,1C114.8,116.8,113.7,116.6,112.7,116.2 M123.9,110.5h2.1l-0.7,3.2c-0.3,1.2-0.4,1.8-0.4,2.4
	c0,2.4,1.6,3.4,3.6,3.4c0.8,0,1.6-0.1,2.5-0.2l0.4-2.6c-0.4,0.1-0.9,0.3-1.3,0.3c-0.8,0-1.3-0.5-1.3-1.3c0-0.6,0.1-1.1,0.3-2
	l0.7-3.2h2.9l0.5-2.8h-2.7l0.8-3.6l-4.2,1.1l-0.5,2.5h-2.3L123.9,110.5z"/>
</svg>
