<?xml version="1.0" encoding="utf-8"?>
<!-- Generator: Adobe Illustrator 23.0.6, SVG Export Plug-In . SVG Version: 6.00 Build 0)  -->
<svg version="1.1" id="Ebene_1" xmlns="http://www.w3.org/2000/svg" xmlns:xlink="http://www.w3.org/1999/xlink" x="0px" y="0px"
	 viewBox="0 0 200 200" style="enable-background:new 0 0 200 200;" xml:space="preserve">
<style type="text/css">
	.st0{fill:#1E183B;}
	.st1{fill-rule:evenodd;clip-rule:evenodd;fill:#1E183B;}
</style>
<path id="path2498" class="st0" d="M124.4,120.4h12.9v-3h-9.4V112h8.5v-2.9h-8.5v-5.7h9.1v-2.9h-12.6V120.4z"/>
<path id="path2510" class="st0" d="M117.7,120.4h3.9l-4.4-8.7c1.8-0.6,4-2.1,4-5.5c0-2.5-1.3-4.1-3-4.9c-1.2-0.6-2.6-0.8-3.9-0.8
	h-7.6v19.9h3.6v-8h3.6L117.7,120.4z M110.3,109.6v-6.5h3.7c1.8,0,3.6,0.8,3.6,3.2c0,2.5-1.7,3.3-3.7,3.3H110.3z"/>
<path id="path2514" class="st0" d="M94.4,120.4h3.5v-9.3c0-3.4-1.5-4.9-4.6-4.9c-2.3,0-3.7,1.2-4.3,2.6h-0.1v-8.9h-3.4v20.5h3.4
	v-8.1c0-2.1,1.1-3.5,3.2-3.5c0.8,0,1.5,0.3,1.9,0.8c0.4,0.6,0.4,1.5,0.4,2.5V120.4z"/>
<path id="path2518" class="st0" d="M82.9,111.2c-0.2-3.4-2.7-4.9-6.1-4.9c-4.2,0-6.7,2.9-6.7,7.3c0,4.5,2.4,7.2,6.7,7.2
	c3.4,0,6-1.8,6.2-5.2h-3.3c-0.1,1.2-0.7,2.8-2.8,2.8c-2.5,0-3.1-2.3-3.1-4.9c0-2.7,0.9-4.9,3.2-4.9c1.7,0,2.5,1.2,2.7,2.6H82.9z"/>
<path id="path2522" class="st0" d="M64.4,120.4h3.5v-13.8h-1.6h-1.9V120.4z"/>
<path id="path2526" class="st0" d="M64.3,103.8h3.5v-3.2h-1.7h-1.8V103.8z"/>
<path id="path2530" class="st0" d="M57.7,120.4h3.5v-9.3c0-3.4-1.5-4.9-4.6-4.9c-2.3,0-3.8,1.2-4.5,2.6h-0.1v-2.3h-3.3v13.8h3.4
	v-8.1c0-2.1,1.1-3.5,3.2-3.5c0.8,0,1.5,0.3,1.9,0.8c0.4,0.6,0.4,1.5,0.4,2.5V120.4z"/>
<path id="path2534" class="st0" d="M36.5,106.6h-3.4v9.4c0,3.3,1.6,4.7,4.7,4.7c2.2,0,3.6-1.2,4.3-2.6h0.1v2.3h3.3v-13.8H42v7.5
	c0,2.7-1,4.1-3.1,4.1c-0.9,0-1.5-0.3-1.9-0.9c-0.4-0.6-0.5-1.5-0.5-2.5V106.6z"/>
<path id="path2538" class="st0" d="M29.9,120.4V100h-5.4l-1.3,3.7l-2.4,7c-0.6,1.7-0.9,2.8-0.9,2.8h-0.1c0,0-0.3-1.1-0.9-2.8l-2.5-7
	l-1.3-3.7H9.8v20.4H13v-16.7h0.1c0,0,0.8,2.6,0.8,2.6l4.1,12h3.2l4.3-12.5c0.1-0.3,0.7-2.1,0.7-2.1h0.1v16.8H29.9z"/>
<path id="path2542" class="st0" d="M148.9,117.4v3h21.4l2.8-3H148.9z"/>
<path id="path2546" class="st0" d="M148.9,100.5v2.9H186l2.6-2.9H148.9z"/>
<path id="path2550" class="st0" d="M185.5,94.7l-3.1-2.9h-33.4v2.9H185.5z"/>
<path id="path2554" class="st0" d="M148.9,109.1v2.9h29.2l2.7-2.9H148.9z"/>
<path id="path2558" class="st0" d="M176.4,86.2l-3.2-2.9h-24.3v2.9H176.4z"/>
<path id="path2562" class="st0" d="M190.2,116.2v-2.9h-27.5l3.2,2.9H190.2z"/>
<path id="path2566" class="st0" d="M190.2,87.5h-29.2l-2.7,2.9h31.9V87.5z"/>
<path id="path2570" class="st0" d="M190.2,107.7v-2.9h-36.6l3.1,2.9H190.2z"/>
<path id="path2574" class="st0" d="M153.1,96.1l-2.6,2.8h39.7v-2.8H153.1z"/>
<path id="path2578" class="st0" d="M166.1,82.1h24.2v-3h-21.4L166.1,82.1z"/>
</svg>
