<?xml version="1.0" encoding="utf-8"?>
<!-- Generator: Adobe Illustrator 23.0.6, SVG Export Plug-In . SVG Version: 6.00 Build 0)  -->
<svg version="1.1" id="Ebene_1" xmlns="http://www.w3.org/2000/svg" xmlns:xlink="http://www.w3.org/1999/xlink" x="0px" y="0px"
	 viewBox="0 0 200 200" style="enable-background:new 0 0 200 200;" xml:space="preserve">
<style type="text/css">
	.st0{fill:#1E183B;}
	.st1{fill-rule:evenodd;clip-rule:evenodd;fill:#1E183B;}
</style>
<g id="layer1_1_" transform="translate(-115.47108,-53.140094)">
	<g id="layer1-7" transform="matrix(1.5368952,0,0,1.5368952,-2.814093,-204.61736)">
		<g id="g1072" transform="matrix(0.26458333,0,0,0.26458333,70.501272,161.44891)">
			<g id="g3049">
				<g id="text3111">
					<g id="g3366" transform="matrix(0.45619558,0,0,0.45619558,-124.51183,-24.971668)">
						<path id="path3368" class="st0" d="M462.1,775.1l-16.8-61.7h-0.2l-17,61.7H418l-18.8-73.4h10l14.4,61.1h0.2l16.4-61.1h10.6
							l16.2,61.1h0.2l14.9-61.1h9.8l-19.6,73.4H462.1z"/>
						<path id="path3370" class="st0" d="M531.5,771.7c-4,3-9,4.5-15,4.5c-4.2,0-7.9-0.7-11.1-2.1s-5.7-3.3-7.9-5.8
							c-2.1-2.5-3.7-5.4-4.8-8.8c-1.1-3.4-1.7-7.2-1.8-11.2c0-4,0.6-7.7,1.9-11.1c1.2-3.4,3-6.3,5.2-8.7c2.2-2.5,4.9-4.4,7.9-5.8
							c3-1.4,6.4-2.1,10-2.1c4.7,0,8.7,1,11.8,2.9c3.1,2,5.6,4.4,7.5,7.4c1.9,3,3.2,6.3,3.9,9.9c0.7,3.6,1,7,0.9,10.2h-39.8
							c-0.1,2.3,0.2,4.5,0.8,6.6c0.6,2.1,1.6,3.9,3,5.6c1.4,1.6,3.1,2.9,5.2,3.9c2.1,1,4.6,1.4,7.5,1.4c3.7,0,6.7-0.9,9.1-2.6
							c2.4-1.7,3.9-4.3,4.7-7.8h8.6C538,764.2,535.5,768.7,531.5,771.7L531.5,771.7z M529.4,737.6c-0.8-1.9-1.9-3.4-3.2-4.8
							s-2.9-2.4-4.7-3.2c-1.8-0.8-3.8-1.2-6-1.2c-2.3,0-4.3,0.4-6.1,1.2c-1.8,0.8-3.4,1.9-4.7,3.2c-1.3,1.4-2.3,3-3.1,4.8
							c-0.8,1.8-1.2,3.8-1.3,5.8h30.5C530.6,741.4,530.2,739.4,529.4,737.6L529.4,737.6z"/>
						<path id="path3372" class="st0" d="M609.4,731.2c-2.2-1.9-5.1-2.8-8.8-2.8c-3.2,0-5.8,0.6-7.9,1.7c-2.1,1.2-3.8,2.7-5.1,4.6
							s-2.2,4.1-2.7,6.6s-0.8,5.1-0.8,7.8c0,2.5,0.3,4.9,0.9,7.2c0.6,2.3,1.5,4.4,2.7,6.2c1.2,1.8,2.8,3.3,4.8,4.4s4.4,1.6,7.1,1.6
							c4.3,0,7.7-1.1,10.1-3.4c2.4-2.3,3.9-5.4,4.5-9.6h8.9c-1,6.6-3.4,11.7-7.4,15.2c-3.9,3.6-9.3,5.3-16.1,5.3
							c-4,0-7.6-0.7-10.7-2c-3.1-1.3-5.7-3.2-7.8-5.6c-2.1-2.4-3.7-5.3-4.7-8.6c-1.1-3.3-1.6-7-1.6-10.9c0-4,0.5-7.7,1.5-11.2
							s2.6-6.5,4.7-9s4.7-4.6,7.9-6.1c3.2-1.5,6.8-2.2,11-2.2c3,0,5.8,0.4,8.5,1.1c2.6,0.7,5,1.8,7,3.3c2,1.5,3.7,3.4,5,5.7
							s2.1,5,2.5,8.2h-9C613,735.6,611.6,733,609.4,731.2L609.4,731.2z"/>
						<path id="path3374" class="st0" d="M640.8,721.9v11.2h0.2c2.1-4.3,4.7-7.5,7.8-9.6s7-3,11.7-2.9v9.3c-3.5,0-6.5,0.5-8.9,1.4
							c-2.5,1-4.5,2.4-6,4.2c-1.5,1.9-2.6,4.1-3.3,6.7c-0.7,2.6-1,5.7-1,9.1v23.6h-8.7v-53.1C632.5,721.9,640.8,721.9,640.8,721.9z"
							/>
						<path id="path3376" class="st0" d="M702.9,771.7c-4,3-9,4.5-15,4.5c-4.2,0-7.9-0.7-11.1-2.1s-5.7-3.3-7.9-5.8
							c-2.1-2.5-3.7-5.4-4.8-8.8c-1.1-3.4-1.7-7.2-1.8-11.2c0-4,0.6-7.7,1.9-11.1c1.2-3.4,3-6.3,5.2-8.7c2.2-2.5,4.9-4.4,7.9-5.8
							c3-1.4,6.4-2.1,10-2.1c4.7,0,8.7,1,11.8,2.9c3.1,2,5.6,4.4,7.5,7.4c1.9,3,3.2,6.3,3.9,9.9c0.7,3.6,1,7,0.9,10.2h-39.8
							c-0.1,2.3,0.2,4.5,0.8,6.6c0.6,2.1,1.6,3.9,3,5.6c1.4,1.6,3.1,2.9,5.2,3.9c2.1,1,4.6,1.4,7.5,1.4c3.7,0,6.7-0.9,9.1-2.6
							c2.4-1.7,3.9-4.3,4.7-7.8h8.6C709.4,764.2,706.8,768.7,702.9,771.7L702.9,771.7z M700.7,737.6c-0.8-1.9-1.9-3.4-3.2-4.8
							c-1.3-1.3-2.9-2.4-4.7-3.2c-1.8-0.8-3.8-1.2-6-1.2c-2.3,0-4.3,0.4-6.1,1.2c-1.8,0.8-3.4,1.9-4.7,3.2c-1.3,1.4-2.3,3-3.1,4.8
							c-0.8,1.8-1.2,3.8-1.3,5.8h30.5C702,741.4,701.5,739.4,700.7,737.6L700.7,737.6z"/>
						<path id="path3378" class="st0" d="M767.5,774.9c-1.5,0.9-3.6,1.3-6.3,1.3c-2.3,0-4.1-0.6-5.4-1.9c-1.3-1.3-2-3.3-2-6.2
							c-2.4,2.9-5.2,4.9-8.4,6.2c-3.2,1.3-6.6,1.9-10.3,1.9c-2.4,0-4.7-0.3-6.8-0.8c-2.2-0.6-4-1.4-5.6-2.6
							c-1.6-1.2-2.8-2.7-3.8-4.6c-0.9-1.9-1.4-4.2-1.4-6.8c0-3,0.5-5.5,1.5-7.4s2.4-3.5,4.1-4.7c1.7-1.2,3.6-2.1,5.8-2.7
							c2.2-0.6,4.4-1.1,6.6-1.5c2.4-0.5,4.7-0.8,6.8-1.1c2.2-0.2,4.1-0.6,5.7-1c1.6-0.4,2.9-1.1,3.9-2c1-0.9,1.4-2.1,1.4-3.8
							c0-1.9-0.4-3.5-1.1-4.6s-1.6-2.1-2.8-2.7c-1.1-0.6-2.4-1-3.8-1.2c-1.4-0.2-2.8-0.3-4.2-0.3c-3.7,0-6.8,0.7-9.3,2.1
							c-2.5,1.4-3.8,4.1-4,8h-8.7c0.1-3.3,0.8-6.1,2.1-8.3s2.9-4.1,4.9-5.5c2.1-1.4,4.4-2.4,7-3c2.6-0.6,5.5-0.9,8.5-0.9
							c2.4,0,4.8,0.2,7.1,0.5c2.4,0.3,4.5,1,6.4,2.1c1.9,1.1,3.5,2.6,4.6,4.5c1.2,1.9,1.7,4.4,1.7,7.5v27.3c0,2.1,0.1,3.6,0.4,4.5
							c0.2,1,1,1.4,2.4,1.4c0.8,0,1.6-0.1,2.7-0.4L767.5,774.9z M753.3,747.6c-1.1,0.8-2.5,1.4-4.3,1.8c-1.8,0.4-3.6,0.7-5.6,0.9
							c-2,0.2-3.9,0.5-5.9,0.8c-2,0.3-3.8,0.8-5.3,1.5c-1.6,0.7-2.9,1.7-3.9,2.9s-1.5,3-1.5,5.2c0,1.4,0.3,2.6,0.9,3.6
							c0.6,1,1.3,1.8,2.3,2.4c0.9,0.6,2,1.1,3.2,1.3c1.2,0.3,2.5,0.4,3.9,0.4c2.9,0,5.3-0.4,7.4-1.2c2.1-0.8,3.7-1.8,5-3
							c1.3-1.2,2.3-2.5,2.9-3.9c0.6-1.4,0.9-2.7,0.9-3.9L753.3,747.6L753.3,747.6z"/>
						<path id="path3380" class="st0" d="M798.4,721.9v7.7h-10.6v33c0,1,0.1,1.9,0.3,2.5c0.2,0.6,0.5,1.1,1,1.4
							c0.5,0.3,1.1,0.6,2,0.7c0.9,0.1,2,0.2,3.3,0.2h4v7.7h-6.7c-2.3,0-4.2-0.2-5.8-0.5c-1.6-0.3-2.9-0.9-3.9-1.7
							c-1-0.8-1.7-2-2.2-3.5c-0.5-1.5-0.7-3.5-0.7-6v-33.8h-9v-7.7h9V706h8.7v15.9L798.4,721.9L798.4,721.9z"/>
						<path id="path3382" class="st0" d="M845.6,771.7c-4,3-9,4.5-15,4.5c-4.2,0-7.9-0.7-11.1-2.1c-3.1-1.4-5.7-3.3-7.9-5.8
							c-2.1-2.5-3.7-5.4-4.8-8.8c-1.1-3.4-1.7-7.2-1.8-11.2c0-4,0.6-7.7,1.9-11.1s3-6.3,5.2-8.7c2.2-2.5,4.9-4.4,7.9-5.8
							c3-1.4,6.4-2.1,10-2.1c4.7,0,8.7,1,11.8,2.9c3.1,2,5.6,4.4,7.5,7.4c1.9,3,3.2,6.3,3.9,9.9c0.7,3.6,1,7,0.9,10.2h-39.8
							c-0.1,2.3,0.2,4.5,0.8,6.6c0.6,2.1,1.6,3.9,3,5.6c1.4,1.6,3.1,2.9,5.2,3.9c2.1,1,4.6,1.4,7.5,1.4c3.7,0,6.7-0.9,9.1-2.6
							c2.4-1.7,3.9-4.3,4.7-7.8h8.6C852.2,764.2,849.6,768.7,845.6,771.7L845.6,771.7z M843.5,737.6c-0.8-1.9-1.9-3.4-3.2-4.8
							c-1.3-1.3-2.9-2.4-4.7-3.2c-1.8-0.8-3.8-1.2-6-1.2c-2.3,0-4.3,0.4-6.1,1.2c-1.8,0.8-3.4,1.9-4.7,3.2c-1.3,1.4-2.3,3-3.1,4.8
							c-0.8,1.8-1.2,3.8-1.3,5.8h30.5C844.8,741.4,844.3,739.4,843.5,737.6L843.5,737.6z"/>
						<path id="path3384" class="st0" d="M923.6,731.2c-2.2-1.9-5.1-2.8-8.8-2.8c-3.2,0-5.8,0.6-7.9,1.7c-2.1,1.2-3.8,2.7-5.1,4.6
							c-1.3,1.9-2.2,4.1-2.7,6.6c-0.6,2.5-0.8,5.1-0.8,7.8c0,2.5,0.3,4.9,0.9,7.2c0.6,2.3,1.5,4.4,2.7,6.2c1.2,1.8,2.8,3.3,4.8,4.4
							s4.4,1.6,7.1,1.6c4.3,0,7.7-1.1,10.1-3.4c2.4-2.3,3.9-5.4,4.5-9.6h8.9c-1,6.6-3.4,11.7-7.3,15.2c-3.9,3.6-9.3,5.3-16.1,5.3
							c-4,0-7.6-0.7-10.7-2c-3.1-1.3-5.7-3.2-7.8-5.6c-2.1-2.4-3.7-5.3-4.7-8.6c-1.1-3.3-1.6-7-1.6-10.9c0-4,0.5-7.7,1.5-11.2
							s2.6-6.5,4.7-9c2.1-2.6,4.7-4.6,7.9-6.1c3.2-1.5,6.8-2.2,11-2.2c3,0,5.8,0.4,8.5,1.1c2.6,0.7,5,1.8,7,3.3c2,1.5,3.7,3.4,5,5.7
							c1.3,2.3,2.1,5,2.5,8.2h-9C927.2,735.6,925.8,733,923.6,731.2L923.6,731.2z"/>
						<path id="path3386" class="st0" d="M955.7,701.7v28.1h0.2c0.7-1.6,1.6-3,2.9-4.2c1.2-1.1,2.6-2.1,4.2-2.8
							c1.5-0.7,3.2-1.3,4.8-1.6c1.7-0.3,3.3-0.5,4.9-0.5c3.5,0,6.4,0.5,8.7,1.4c2.3,1,4.2,2.3,5.7,4c1.4,1.7,2.4,3.8,3,6.1
							s0.9,5,0.9,7.9v35h-8.7v-36c0-3.3-1-5.9-2.9-7.8c-1.9-1.9-4.6-2.9-7.9-2.9c-2.7,0-5,0.4-6.9,1.2c-2,0.8-3.6,2-4.9,3.5
							c-1.3,1.5-2.3,3.3-2.9,5.3c-0.7,2-1,4.2-1,6.6v30H947v-73.4L955.7,701.7L955.7,701.7z"/>
						<path id="path3388" class="st0" d="M1041.8,771.7c-4,3-9,4.5-15,4.5c-4.2,0-7.9-0.7-11.1-2.1s-5.7-3.3-7.9-5.8
							c-2.1-2.5-3.7-5.4-4.8-8.8s-1.7-7.2-1.8-11.2c0-4,0.6-7.7,1.9-11.1c1.2-3.4,3-6.3,5.2-8.7c2.2-2.5,4.9-4.4,7.9-5.8
							c3-1.4,6.4-2.1,10-2.1c4.7,0,8.7,1,11.8,2.9c3.1,2,5.6,4.4,7.5,7.4c1.9,3,3.2,6.3,3.9,9.9c0.7,3.6,1,7,0.9,10.2h-39.8
							c-0.1,2.3,0.2,4.5,0.8,6.6c0.6,2.1,1.6,3.9,3,5.6c1.4,1.6,3.1,2.9,5.2,3.9c2.1,1,4.6,1.4,7.5,1.4c3.7,0,6.7-0.9,9.1-2.6
							c2.4-1.7,3.9-4.3,4.7-7.8h8.6C1048.3,764.2,1045.8,768.7,1041.8,771.7L1041.8,771.7z M1039.7,737.6c-0.8-1.9-1.9-3.4-3.2-4.8
							s-2.9-2.4-4.7-3.2c-1.8-0.8-3.8-1.2-6-1.2c-2.3,0-4.3,0.4-6.1,1.2c-1.8,0.8-3.4,1.9-4.7,3.2c-1.3,1.4-2.3,3-3.1,4.8
							c-0.8,1.8-1.2,3.8-1.3,5.8h30.5C1040.9,741.4,1040.5,739.4,1039.7,737.6L1039.7,737.6z"/>
						<path id="path3390" class="st0" d="M1067.6,721.9v7.8h0.2c4-6,9.7-9,17.2-9c3.3,0,6.3,0.7,8.9,2.1c2.7,1.4,4.6,3.7,5.7,7
							c1.8-2.9,4.1-5.1,7-6.7c2.9-1.6,6.1-2.4,9.6-2.4c2.7,0,5.1,0.3,7.3,0.9c2.2,0.6,4,1.5,5.5,2.7c1.5,1.2,2.7,2.8,3.6,4.8
							c0.9,2,1.3,4.3,1.3,7v39h-8.7v-34.9c0-1.6-0.1-3.2-0.4-4.6c-0.3-1.4-0.8-2.7-1.5-3.8c-0.8-1.1-1.8-1.9-3.1-2.5
							c-1.3-0.6-3.1-0.9-5.2-0.9c-4.3,0-7.7,1.2-10.2,3.7c-2.5,2.5-3.7,5.8-3.7,9.9v33.1h-8.7v-34.9c0-1.7-0.2-3.3-0.5-4.7
							c-0.3-1.4-0.8-2.7-1.6-3.8s-1.8-1.9-3-2.5c-1.3-0.6-2.9-0.9-4.9-0.9c-2.5,0-4.7,0.5-6.5,1.5c-1.8,1-3.3,2.3-4.4,3.7
							s-2,2.9-2.5,4.5c-0.5,1.5-0.8,2.8-0.8,3.9v33.1h-8.7v-53.1L1067.6,721.9L1067.6,721.9z"/>
						<path id="path3392" class="st0" d="M1147.6,712.4v-10.7h8.7v10.7H1147.6z M1156.3,721.9v53.1h-8.7v-53.1
							C1147.6,721.9,1156.3,721.9,1156.3,721.9z"/>
						<path id="path3394" class="st0" d="M1176.6,763.2c0.8,1.3,1.9,2.4,3.2,3.2c1.3,0.8,2.8,1.4,4.5,1.7c1.7,0.3,3.4,0.5,5.2,0.5
							c1.4,0,2.8-0.1,4.3-0.3c1.5-0.2,2.9-0.6,4.2-1.1c1.3-0.6,2.3-1.4,3.1-2.4c0.8-1.1,1.2-2.4,1.2-4.1c0-2.3-0.9-4-2.6-5.1
							s-3.9-2.1-6.4-2.8c-2.6-0.7-5.4-1.4-8.4-2c-3-0.6-5.8-1.4-8.4-2.5c-2.6-1.1-4.7-2.6-6.4-4.5c-1.7-1.9-2.6-4.6-2.6-8
							c0-2.7,0.6-5,1.8-6.9c1.2-1.9,2.7-3.5,4.6-4.7c1.9-1.2,4-2.1,6.4-2.7c2.4-0.6,4.7-0.9,7-0.9c3,0,5.8,0.3,8.3,0.8
							s4.8,1.4,6.7,2.7c2,1.3,3.5,3,4.7,5.1c1.2,2.2,1.9,4.9,2.1,8.1h-8.7c-0.1-1.7-0.6-3.1-1.3-4.3c-0.8-1.1-1.7-2-2.9-2.7
							c-1.2-0.7-2.5-1.2-3.9-1.5s-2.8-0.5-4.3-0.5c-1.3,0-2.6,0.1-4,0.3s-2.6,0.6-3.6,1.1c-1.1,0.5-2,1.2-2.7,2.1
							c-0.7,0.9-1,2-1,3.3c0,1.5,0.5,2.8,1.6,3.8c1.1,1,2.4,1.8,4.1,2.5c1.6,0.7,3.5,1.2,5.5,1.6c2.1,0.4,4.1,0.9,6.2,1.4
							c2.2,0.5,4.3,1.1,6.4,1.7c2.1,0.7,3.9,1.6,5.5,2.7c1.6,1.1,2.9,2.6,3.9,4.3c1,1.7,1.5,3.8,1.5,6.4c0,3.2-0.7,5.9-2,8
							s-3.1,3.8-5.2,5.1c-2.2,1.3-4.6,2.2-7.3,2.7c-2.7,0.5-5.4,0.8-8.1,0.8c-2.9,0-5.8-0.3-8.4-0.9c-2.7-0.6-5-1.6-7.1-3
							c-2.1-1.4-3.7-3.2-4.9-5.6c-1.2-2.3-1.9-5.1-2.1-8.4h8.7C1175.3,760.2,1175.7,761.9,1176.6,763.2L1176.6,763.2z"/>
						<path id="path3396" class="st0" d="M1244,721.9v7.7h-10.6v33c0,1,0.1,1.9,0.3,2.5c0.2,0.6,0.5,1.1,1,1.4
							c0.5,0.3,1.1,0.6,2,0.7c0.9,0.1,2,0.2,3.3,0.2h4v7.7h-6.7c-2.3,0-4.2-0.2-5.8-0.5c-1.6-0.3-2.9-0.9-3.9-1.7
							c-1-0.8-1.7-2-2.2-3.5c-0.5-1.5-0.7-3.5-0.7-6v-33.8h-9v-7.7h9V706h8.7v15.9L1244,721.9L1244,721.9z"/>
						<path id="path3398" class="st0" d="M1261.6,721.9v11.2h0.2c2.1-4.3,4.7-7.5,7.8-9.6s7-3,11.7-2.9v9.3c-3.5,0-6.5,0.5-8.9,1.4
							c-2.5,1-4.5,2.4-6,4.2c-1.5,1.9-2.6,4.1-3.3,6.7c-0.7,2.6-1,5.7-1,9.1v23.6h-8.7v-53.1
							C1253.3,721.9,1261.6,721.9,1261.6,721.9z"/>
						<path id="path3400" class="st0" d="M1308.7,782.2c-1,2.6-2,4.8-3,6.6c-1,1.8-2.1,3.2-3.3,4.4c-1.2,1.1-2.5,2-4,2.5
							c-1.5,0.5-3.2,0.8-5.1,0.8c-1,0-2.1-0.1-3.1-0.2s-2-0.4-3-0.7v-8c0.8,0.3,1.6,0.6,2.6,0.9c1,0.2,1.8,0.4,2.5,0.4
							c1.8,0,3.3-0.4,4.5-1.3s2.1-2.1,2.7-3.6l3.6-8.9l-21.1-52.8h9.9l15.5,43.5h0.2l14.9-43.5h9.3L1308.7,782.2z"/>
					</g>
				</g>
			</g>
			<g id="g3087">
				<g id="g3089">
					<g id="g3091">
						<path id="path3093" class="st0" d="M210,187c0,0,35.3,0,42.4,0c15.6,0,22.7,10.4,22.7,19.9c0,6.8-2.6,11.2-9.7,15.4
							c8.9,3.3,13.7,9.2,13.7,18.4c0,10.9-7.9,22.5-26.7,22.5c-10.4,0-42.5,0-42.5,0L210,187z M233.2,246c0,0,9.9,0,15.4,0
							c5.5,0,7.9-3.9,7.9-7.4c0,1.6,0.7-6.3-7.1-6.3c-4.1,0-16.1,0-16.1,0V246z M233.3,217c0,0,7.1,0,12.3,0c5.6,0,7.9-2.6,7.9-6.5
							c0-0.9-0.3-5.9-6.3-5.9c2.7,0-14,0-14,0V217z"/>
						<path id="path3095" class="st0" d="M303.3,187h24.5l27.9,76h-25.2l-3.7-11.4h-23.5l-3.1,11.3h-25L303.3,187z M314.6,209.6
							l-6.5,25.4H322L314.6,209.6z"/>
						<path id="path3097" class="st0" d="M394.9,209.7h23.4c0-12.9-9.7-24.9-32.8-24.9c-25.3,0-33.1,14-33.1,24.2
							c0,16.5,20.2,20.8,20.8,21c3,0.9,15.5,4.3,18.6,5.4c2.7,1,5.3,3.1,5.3,6c0,4.4-5.3,6.6-9.7,6.6c-2.8,0-12.3-0.9-12.3-11h-24.2
							c0,13.4,9.2,28.4,35.1,28.4c28.5,0,34.5-17,34.5-26.1c0-7.4-4.2-15.6-13.8-19.5c-5.8-2.3-15.4-4.4-20.3-5.8
							c-2.4-0.7-10.6-2.4-10.6-7.3c0-6.3,10.5-5.5,8.9-5.5C389.5,201.2,394.9,203.8,394.9,209.7L394.9,209.7z"/>
						<polygon id="polygon3099" class="st0" points="482.8,187 482.8,207.1 447.8,207.1 447.8,220.5 479,220.5 479,239.7 
							447.7,239.7 447.7,263.2 424.3,263.2 424.4,187 						"/>
					</g>
					<path id="path3101" class="st0" d="M57.8,187v76.1h76.1V187H57.8z M110.5,239.7H81.2v-29.3h29.3L110.5,239.7L110.5,239.7z"/>
					<rect id="rect3103" x="157.3" y="210.5" class="st0" width="29.3" height="29.3"/>
				</g>
			</g>
		</g>
	</g>
</g>
</svg>
