<?xml version="1.0" encoding="utf-8"?>
<!-- Generator: Adobe Illustrator 23.0.6, SVG Export Plug-In . SVG Version: 6.00 Build 0)  -->
<svg version="1.1" id="Ebene_1" xmlns="http://www.w3.org/2000/svg" xmlns:xlink="http://www.w3.org/1999/xlink" x="0px" y="0px"
	 viewBox="0 0 200 200" style="enable-background:new 0 0 200 200;" xml:space="preserve">
<style type="text/css">
	.st0{fill:#1E183B;}
	.st1{fill-rule:evenodd;clip-rule:evenodd;fill:#1E183B;}
</style>
<g id="Ebene_x0020_1">
	<path class="st1" d="M190,86.3v5.5c-2.8-1.1-5.4-1.6-7.6-1.6c-1.3,0-2.4,0.2-3.1,0.7c-0.8,0.5-1.2,1.1-1.2,1.7
		c0,0.9,0.9,1.7,2.7,2.5l5.2,2.5c4.2,2,6.2,4.6,6.2,8c0,2.8-1.1,5-3.3,6.6c-2.2,1.6-5.2,2.5-8.9,2.5c-1.7,0-3.2-0.1-4.6-0.2
		c-1.4-0.1-2.9-0.4-4.7-0.9v-5.7c3.2,1.1,6.1,1.6,8.7,1.6c3.1,0,4.7-0.9,4.7-2.7c0-0.9-0.6-1.6-1.9-2.2l-5.7-2.4
		c-2.1-1-3.7-2.1-4.7-3.5c-1-1.4-1.5-3-1.5-4.8c0-2.5,1.1-4.6,3.2-6.1c2.1-1.5,5-2.3,8.5-2.3c1.1,0,2.5,0.1,3.9,0.3
		C187.2,85.7,188.7,86,190,86.3L190,86.3z"/>
	<path class="st1" d="M27.5,86.3v5.5c-2.8-1.1-5.4-1.6-7.6-1.6c-1.3,0-2.4,0.2-3.1,0.7c-0.8,0.5-1.2,1.1-1.2,1.7
		c0,0.9,0.9,1.7,2.7,2.5l5.2,2.5c4.2,2,6.2,4.6,6.2,8c0,2.8-1.1,5-3.3,6.6c-2.2,1.6-5.2,2.5-8.9,2.5c-1.7,0-3.2-0.1-4.6-0.2
		c-1.4-0.1-2.9-0.4-4.6-0.9v-5.7c3.2,1.1,6.1,1.6,8.7,1.6c3.1,0,4.7-0.9,4.7-2.7c0-0.9-0.6-1.6-1.9-2.2l-5.7-2.4
		c-2.1-1-3.7-2.1-4.7-3.5c-1-1.4-1.5-3-1.5-4.8c0-2.5,1.1-4.6,3.2-6.1c2.1-1.5,5-2.3,8.5-2.3c1.2,0,2.5,0.1,3.9,0.3
		C24.7,85.7,26.1,86,27.5,86.3z"/>
	<polygon class="st1" points="33.4,85.8 41.8,85.8 41.8,114.1 33.4,114.1 	"/>
	<polygon class="st1" points="69,85.8 69,91 56.4,91 56.4,97.3 67.3,97.3 67.3,102 56.4,102 56.4,108.6 69.2,108.6 69.2,114.1 
		48.3,114.1 48.3,85.8 	"/>
	<polygon class="st1" points="108.2,85.8 108.2,114.1 100.4,114.1 100.4,95.4 92.2,114.4 87.4,114.4 79.5,95.4 79.5,114.1 
		73.9,114.1 73.9,85.8 84.1,85.8 91.1,103.1 98.5,85.8 	"/>
	<polygon class="st1" points="135.3,85.8 135.3,91 122.9,91 122.9,97.3 133.7,97.3 133.7,102 122.9,102 122.9,108.6 135.6,108.6 
		135.6,114.1 114.7,114.1 114.7,85.8 	"/>
	<polygon class="st1" points="164.9,85.8 164.9,114.1 155.9,114.1 145.9,95.9 145.9,114.1 140.2,114.1 140.2,85.8 149.4,85.8 
		159.2,103.6 159.2,85.8 	"/>
</g>
</svg>
