<?xml version="1.0" encoding="utf-8"?>
<!-- Generator: Adobe Illustrator 23.0.6, SVG Export Plug-In . SVG Version: 6.00 Build 0)  -->
<svg version="1.1" id="Ebene_1" xmlns="http://www.w3.org/2000/svg" xmlns:xlink="http://www.w3.org/1999/xlink" x="0px" y="0px"
	 viewBox="0 0 200 200" style="enable-background:new 0 0 200 200;" xml:space="preserve">
<style type="text/css">
	.st0{fill:#1E183B;}
	.st1{fill-rule:evenodd;clip-rule:evenodd;fill:#1E183B;}
</style>
<g id="layer1" transform="translate(-649.89646,-406.26802)">
	<g id="g20076" transform="translate(17.716521,17.668446)">
		<path id="path19828" class="st0" d="M764.6,477.5c-1.1-0.8-3-1.4-4.7-1.3c-1.9,0-3.7,0.6-5,1.6v-12h-6v39.3h6v-20.5
			c0-1.4,1.2-3,3.4-3.1c1,0,2.4,0.4,3.1,1.4c0.7,1.1,0.7,2.6,0.7,4.1l0,18h6v-18.2C768,481.5,767.3,479.5,764.6,477.5"/>
		<path id="path19830" class="st0" d="M716.2,491c0,3.8-0.1,4.9-0.2,5.2c-0.2,2.2-1.1,4.4-3.6,4.4c-2.5,0-3.5-2.4-3.6-4.5
			c0,0-0.2-1.3-0.2-5.1c0-3.8,0.1-5.4,0.2-5.4c0-2.2,1.1-4.3,3.6-4.3c2.5,0,3.6,2.2,3.6,4.3C716,485.6,716.2,487.2,716.2,491z
			 M721.9,486.4c-0.8-8.4-5.6-10.2-9.5-10.2c-5.5,0-8.9,3.5-9.5,10.2c-0.1,0.5-0.1,1.5-0.2,4.6c0,2.3,0.1,4.2,0.2,4.6
			c0.4,6.2,3.9,10,9.5,10c5.6,0,9.1-3.9,9.5-10c0-0.4,0.1-2.4,0.1-4.6C722.1,490,722,487.2,721.9,486.4"/>
		<path id="path19832" class="st0" d="M777.9,487.5c0-1.3,0-1.6,0.1-2c0.2-2.4,1.2-4.3,3.6-4.3c2.9,0,3.5,2.8,3.6,4.3
			c0.1,0.8,0.1,1.4,0.1,2H777.9z M785.3,495.3c0,0,0,0.4-0.1,1c-0.2,1.4-0.7,4.3-3.6,4.3c-2.5,0-3.4-2.3-3.6-4.5
			c0-0.6-0.1-1.3-0.1-3.8h13.3c0,0,0-2,0-3.2c0-0.5,0-1.2-0.1-2.9c-0.2-2.5-1.1-5.3-2.6-7c-1.6-2.1-4-3.2-6.8-3.2
			c-5.4,0-8.7,3.5-9.4,10.2c-0.1,0.6-0.2,1.4-0.2,4.6c0,2.3,0.1,4.2,0.2,4.6c0.3,6.1,4,10,9.4,10c5.4,0,9-3.8,9.4-10.3L785.3,495.3"
			/>
		<path id="path19834" class="st0" d="M683.9,445.7h96.8l37,43.3l-37,42.7h-96.8l-37.2-42.8L683.9,445.7z M783,440.9H681.5
			l-41.2,47.8l41.2,47.5H783l41-47.3L783,440.9"/>
		<path id="path19836" class="st0" d="M685.1,471.1h2.8c3.1,0,4.7,1.6,4.8,4.5c0,0.2,0,0.5,0,0.9c0,0.5,0,0.7,0,0.9
			c-0.2,1.7-0.9,4.7-4.5,4.7h-3.1V471.1z M699.2,502.6l-0.6-9.6c-0.3-4.3-1.4-6.9-3.6-8.2c1.6-1,3.7-3.4,3.7-8.4
			c0-7.6-4.7-10.3-10.3-10.4h-9.1v39h5.9l0-17.8h3.3c1.9,0,4,1.6,4.3,6.3l0.6,9.1c0.1,1.3,0.3,2.4,0.3,2.4h5.9
			C699.5,505.1,699.2,504,699.2,502.6"/>
		<path id="path19838" class="st0" d="M739.3,495.1c0,0.4,0,0.8-0.1,1.1c-0.2,2.2-0.9,4.5-3.6,4.5c-2.5,0-3.4-2.5-3.6-4.4
			c-0.1-1.1-0.1-2-0.1-5.3c0-3.8,0.1-4.8,0.2-5.4c0.2-2.5,1.1-4.3,3.6-4.3c2.5,0,3.6,2.2,3.6,4.3c0,0,0.1,0.5,0.1,1.7h5.9
			c0-0.4,0-0.7,0-0.9c-0.7-8.1-5.6-10.1-9.5-10.1c-5.5,0-8.9,3.5-9.5,10.2c-0.1,0.5-0.1,1.5-0.2,4.6c0,2.3,0.1,4.2,0.2,4.6
			c0.4,6.2,3.9,10,9.5,10c5.8,0,9-3.5,9.5-10c0-0.2,0-0.4,0-0.6L739.3,495.1"/>
	</g>
</g>
</svg>
