<?xml version="1.0" encoding="utf-8"?>
<!-- Generator: Adobe Illustrator 23.0.6, SVG Export Plug-In . SVG Version: 6.00 Build 0)  -->
<svg version="1.1" id="Ebene_1" xmlns="http://www.w3.org/2000/svg" xmlns:xlink="http://www.w3.org/1999/xlink" x="0px" y="0px"
	 viewBox="0 0 90 91" style="enable-background:new 0 0 90 91;" xml:space="preserve">
<style type="text/css">
	.st0{fill:#1E093C;}
</style>
<title>Group 6</title>
<desc>Created with Sketch.</desc>
<g>
	<path class="st0" d="M14.7,35.9v0.7v2.6v13.4v3.4H18h6.7h3.4h3.3v3.4h0.1h3.3h10v-3.4h26.8H75v-3.4V39.3v-2.6v-0.7H14.7z
		 M28.1,52.7v-10h-3.4v10H18V39.3h13.4v13.4H28.1z M41.5,52.7v3.4h-6.7V39.3h13.4v13.4H41.5z M71.6,52.7h-3.3v-10h-3.4v10h-3.4v-10
		h-3.4v10h-6.7V39.3h20.1V52.7z"/>
	<rect x="41.5" y="42.7" class="st0" width="3.4" height="6.7"/>
</g>
</svg>
