<?xml version="1.0" encoding="utf-8"?>
<!-- Generator: Adobe Illustrator 23.0.3, SVG Export Plug-In . SVG Version: 6.00 Build 0)  -->
<svg version="1.1" id="Ebene_1" xmlns="http://www.w3.org/2000/svg" xmlns:xlink="http://www.w3.org/1999/xlink" x="0px" y="0px"
	 viewBox="0 0 90 91" style="enable-background:new 0 0 90 91;" xml:space="preserve">
<style type="text/css">
	.st0{fill:none;stroke:#1D1D1B;stroke-width:2;stroke-linecap:round;stroke-miterlimit:10;}
	.st1{fill:none;stroke:#1D1D1B;stroke-width:4;stroke-linecap:round;stroke-miterlimit:10;}
	.st2{fill:#1D1D1B;}
</style>
<title>Group 6</title>
<desc>Created with Sketch.</desc>
<g>
	<path class="st0" d="M31.4,62.7v2c0,1.3,1,2.3,2.3,2.3h22.2l9.1-9.1V26.3c0-1.3-1-2.3-2.3-2.3h-29c-1.3,0-2.3,1-2.3,2.3v2"/>
	<path class="st1" d="M55.9,67"/>
	<path class="st0" d="M65,57.9h-6.8c-1.3,0-2.3,1-2.3,2.3V67"/>
	<path class="st0" d="M35,42.1c0-2.1,1.8-3.8,3.9-3.7c1.9,0.1,3.5,1.7,3.6,3.6c0,0.6-0.1,1.1-0.3,1.6c-0.2,0.5-0.6,1-1,1.3
		c-0.8,0.6-2.4,2.3-2.4,4.7"/>
	<circle class="st2" cx="38.7" cy="52.7" r="1.2"/>
	<path class="st0" d="M45.5,57.4c-2,1.1-4.3,1.8-6.7,1.8c-7.6,0-13.7-6.2-13.7-13.7s6.2-13.7,13.7-13.7c6.7,0,12.4,4.9,13.5,11.3
		c0.1,0.8,0.2,1.6,0.2,2.4c0,1.6-0.3,3.2-0.8,4.6"/>
</g>
</svg>
